%TF.GenerationSoftware,KiCad,Pcbnew,8.0.8*%
%TF.CreationDate,2025-04-17T09:07:27-03:00*%
%TF.ProjectId,ESP32_DevBoard_Minimal_Electgpl,45535033-325f-4446-9576-426f6172645f,rev?*%
%TF.SameCoordinates,Original*%
%TF.FileFunction,Copper,L3,Inr*%
%TF.FilePolarity,Positive*%
%FSLAX46Y46*%
G04 Gerber Fmt 4.6, Leading zero omitted, Abs format (unit mm)*
G04 Created by KiCad (PCBNEW 8.0.8) date 2025-04-17 09:07:27*
%MOMM*%
%LPD*%
G01*
G04 APERTURE LIST*
%TA.AperFunction,HeatsinkPad*%
%ADD10O,1.000000X1.700000*%
%TD*%
%TA.AperFunction,HeatsinkPad*%
%ADD11O,0.850000X1.700000*%
%TD*%
%TA.AperFunction,ComponentPad*%
%ADD12R,1.700000X1.700000*%
%TD*%
%TA.AperFunction,ComponentPad*%
%ADD13O,1.700000X1.700000*%
%TD*%
%TA.AperFunction,ViaPad*%
%ADD14C,0.600000*%
%TD*%
%TA.AperFunction,Conductor*%
%ADD15C,0.406400*%
%TD*%
%TA.AperFunction,Conductor*%
%ADD16C,0.203200*%
%TD*%
%TA.AperFunction,Conductor*%
%ADD17C,0.152400*%
%TD*%
G04 APERTURE END LIST*
D10*
%TO.N,GND*%
%TO.C,J1*%
X145327748Y-128473200D03*
D11*
X150977748Y-128473200D03*
%TD*%
D12*
%TO.N,GND*%
%TO.C,J3*%
X159512748Y-74752200D03*
D13*
%TO.N,TXD*%
X159512748Y-77292200D03*
%TO.N,RXD*%
X159512748Y-79832200D03*
%TO.N,GPIO1*%
X159512748Y-82372200D03*
%TO.N,GPIO2*%
X159512748Y-84912200D03*
%TO.N,GPIO42*%
X159512748Y-87452200D03*
%TO.N,GPIO41*%
X159512748Y-89992200D03*
%TO.N,GPIO40*%
X159512748Y-92532200D03*
%TO.N,GPIO39*%
X159512748Y-95072200D03*
%TO.N,GPIO38*%
X159512748Y-97612200D03*
%TO.N,GPIO37*%
X159512748Y-100152200D03*
%TO.N,GPIO36*%
X159512748Y-102692200D03*
%TO.N,GPIO35*%
X159512748Y-105232200D03*
%TO.N,GPIO0*%
X159512748Y-107772200D03*
%TO.N,GPIO45*%
X159512748Y-110312200D03*
%TO.N,GPIO48*%
X159512748Y-112852200D03*
%TO.N,GPIO47*%
X159512748Y-115392200D03*
%TO.N,GPIO21*%
X159512748Y-117932200D03*
%TO.N,GPIO33*%
X159512748Y-120472200D03*
%TO.N,GPIO34*%
X159512748Y-123012200D03*
%TO.N,RAW*%
X159512748Y-125552200D03*
%TO.N,GND*%
X159512748Y-128092200D03*
%TD*%
D12*
%TO.N,+3.3V*%
%TO.C,J2*%
X136652748Y-74752200D03*
D13*
X136652748Y-77292200D03*
%TO.N,CHIP_PU*%
X136652748Y-79832200D03*
%TO.N,GPIO4*%
X136652748Y-82372200D03*
%TO.N,GPIO5*%
X136652748Y-84912200D03*
%TO.N,GPIO6*%
X136652748Y-87452200D03*
%TO.N,GPIO7*%
X136652748Y-89992200D03*
%TO.N,GPIO15*%
X136652748Y-92532200D03*
%TO.N,GPIO16*%
X136652748Y-95072200D03*
%TO.N,GPIO17*%
X136652748Y-97612200D03*
%TO.N,GPIO18*%
X136652748Y-100152200D03*
%TO.N,GPIO8*%
X136652748Y-102692200D03*
%TO.N,GPIO3*%
X136652748Y-105232200D03*
%TO.N,GPIO46*%
X136652748Y-107772200D03*
%TO.N,GPIO9*%
X136652748Y-110312200D03*
%TO.N,GPIO10*%
X136652748Y-112852200D03*
%TO.N,GPIO11*%
X136652748Y-115392200D03*
%TO.N,GPIO12*%
X136652748Y-117932200D03*
%TO.N,GPIO13*%
X136652748Y-120472200D03*
%TO.N,GPIO14*%
X136652748Y-123012200D03*
%TO.N,GPIO26*%
X136652748Y-125552200D03*
%TO.N,GND*%
X136652748Y-128092200D03*
%TD*%
D14*
%TO.N,+3.3V*%
X146329748Y-108153200D03*
X142621748Y-87552200D03*
X146685748Y-80820200D03*
X152654748Y-85547200D03*
X154178748Y-90373200D03*
X153441748Y-106756200D03*
X142748748Y-105613200D03*
%TO.N,GND*%
X142327748Y-128116950D03*
X146077748Y-113116950D03*
X156077748Y-128116950D03*
X149098748Y-80721200D03*
X146685000Y-79121000D03*
X143002748Y-125933200D03*
X148590748Y-77546200D03*
X151077748Y-118116950D03*
X152327748Y-118116950D03*
X150495748Y-79578200D03*
X152654748Y-77546200D03*
X144526748Y-79121000D03*
X152019748Y-112725200D03*
X153289748Y-125933200D03*
X153577748Y-121866950D03*
X154686748Y-77546200D03*
X153577748Y-123116950D03*
X157327748Y-128116950D03*
X146077748Y-111866950D03*
X148463748Y-80086200D03*
X148590748Y-117805200D03*
X143577748Y-119366950D03*
X154432748Y-84142800D03*
X156077748Y-123116950D03*
X156718748Y-77546200D03*
X154827748Y-123116950D03*
X146685748Y-79832200D03*
X150622748Y-77546200D03*
X142327748Y-124366950D03*
X151638748Y-77546200D03*
X153577748Y-128116950D03*
X144827748Y-111866950D03*
X151638748Y-91389200D03*
X144653748Y-91516200D03*
X149606748Y-119329200D03*
X148014748Y-88152200D03*
X155702748Y-77546200D03*
X156718000Y-86106000D03*
X141859748Y-80594200D03*
X145542748Y-77546200D03*
X152908748Y-113614200D03*
X154827748Y-128116950D03*
X144827748Y-109366950D03*
X156718748Y-90373200D03*
X144526748Y-77546200D03*
X144827748Y-113116950D03*
X153289748Y-95326200D03*
X142327748Y-109366950D03*
X151384748Y-84785200D03*
X141217525Y-88714977D03*
X145542000Y-79121000D03*
X151384748Y-83205600D03*
X151077748Y-119366950D03*
X141077748Y-126866950D03*
X157734748Y-77546200D03*
X146558748Y-77546200D03*
X149860748Y-78943200D03*
X157327748Y-126866950D03*
X149606748Y-77546200D03*
X156077748Y-120616950D03*
X152327748Y-123116950D03*
X138430748Y-77546200D03*
X142032748Y-104195320D03*
X140843748Y-84023200D03*
X151384748Y-81843600D03*
X141077748Y-128116950D03*
X139827748Y-128116950D03*
X142494748Y-77546200D03*
X152327748Y-128116950D03*
X143510748Y-79121000D03*
X146077748Y-110616950D03*
X138577748Y-126866950D03*
X140462748Y-77546200D03*
X150622748Y-78816200D03*
X143577748Y-128116950D03*
X139827748Y-126866950D03*
X151257748Y-101041200D03*
X154203748Y-108153200D03*
X151130748Y-112725200D03*
X149733748Y-81356200D03*
X144780748Y-84999800D03*
X143577748Y-109366950D03*
X151384748Y-105105200D03*
X144827748Y-110616950D03*
X148577748Y-99366950D03*
X147327748Y-113116950D03*
X154827748Y-121866950D03*
X156718748Y-87452200D03*
X142327748Y-115616950D03*
X152908748Y-112725200D03*
X143577748Y-120616950D03*
X151892748Y-79705200D03*
X155829748Y-81737200D03*
X154827748Y-126866950D03*
X156077748Y-126866950D03*
X147327748Y-110616950D03*
X141478748Y-77546200D03*
X147327748Y-98116950D03*
X141077748Y-125616950D03*
X151384748Y-84023200D03*
X144907748Y-101041200D03*
X147828748Y-79451200D03*
X155448748Y-79070200D03*
X152908748Y-111836200D03*
X147574748Y-77546200D03*
X153670748Y-77546200D03*
X138577748Y-128116950D03*
X139954748Y-84023200D03*
X142327748Y-116866950D03*
X142494748Y-78943200D03*
X156077748Y-119366950D03*
X147327748Y-111866950D03*
X142327748Y-118116950D03*
X139446748Y-77546200D03*
X156077748Y-121866950D03*
X149479748Y-124028200D03*
%TO.N,CHIP_PU*%
X147193748Y-105105200D03*
%TO.N,RAW*%
X145414748Y-118694200D03*
%TO.N,GPIO0*%
X148886148Y-83214655D03*
%TO.N,SPIWP*%
X149987748Y-96596200D03*
X143002748Y-97337600D03*
%TO.N,GPIO14*%
X142562651Y-86622297D03*
%TO.N,TXD*%
X158115748Y-81737200D03*
%TO.N,GPIO13*%
X143094681Y-86090268D03*
%TO.N,GPIO12*%
X142601597Y-85482621D03*
%TO.N,GPIO45*%
X154051748Y-88087200D03*
%TO.N,GPIO2*%
X147898511Y-82138800D03*
%TO.N,GPIO26*%
X141423148Y-101930200D03*
%TO.N,GPIO10*%
X142600908Y-84304399D03*
%TO.N,GPIO8*%
X138430748Y-91770200D03*
%TO.N,GPIO3*%
X147146108Y-82138800D03*
X141118348Y-105232200D03*
%TO.N,GPIO9*%
X143129748Y-83769200D03*
%TO.N,GPIO34*%
X157247348Y-111836200D03*
%TO.N,GPIO46*%
X141423148Y-107772200D03*
X154051748Y-87325200D03*
%TO.N,GPIO48*%
X157226748Y-114122200D03*
%TO.N,GPIO11*%
X143136419Y-84953400D03*
%TO.N,GPIO33*%
X157222952Y-112598200D03*
%TO.N,GPIO1*%
X148563023Y-82535170D03*
%TD*%
D15*
%TO.N,+3.3V*%
X150749748Y-85547200D02*
X152654748Y-85547200D01*
X153441748Y-106527200D02*
X154178748Y-105790200D01*
X145895748Y-81610200D02*
X146685748Y-80820200D01*
X147726748Y-106756200D02*
X146329748Y-108153200D01*
X154178748Y-90373200D02*
X152654748Y-88849200D01*
X136652748Y-77292200D02*
X140970748Y-81610200D01*
D16*
X153441748Y-106756200D02*
X153441748Y-106527200D01*
D15*
X150649748Y-87552200D02*
X149401200Y-87552200D01*
X145288748Y-108153200D02*
X146329748Y-108153200D01*
X143587800Y-87552200D02*
X142621748Y-87552200D01*
X140970748Y-81610200D02*
X145895748Y-81610200D01*
X153441748Y-106756200D02*
X147726748Y-106756200D01*
X149733000Y-82371452D02*
X149733000Y-84530452D01*
X152654748Y-85547200D02*
X150649748Y-87552200D01*
X152654748Y-88849200D02*
X152654748Y-85547200D01*
X148181748Y-80820200D02*
X149733000Y-82371452D01*
X149401200Y-87552200D02*
X148844000Y-86995000D01*
X146685748Y-80820200D02*
X148181748Y-80820200D01*
X144145000Y-86995000D02*
X143587800Y-87552200D01*
X142748748Y-105613200D02*
X145288748Y-108153200D01*
X149733000Y-84530452D02*
X150749748Y-85547200D01*
X148844000Y-86995000D02*
X144145000Y-86995000D01*
X154178748Y-105790200D02*
X154178748Y-90373200D01*
D17*
%TO.N,CHIP_PU*%
X140950148Y-82605600D02*
X141585148Y-83240600D01*
X139426148Y-82605600D02*
X140950148Y-82605600D01*
X140688925Y-85313800D02*
X140688925Y-98600377D01*
X141585148Y-84417577D02*
X140688925Y-85313800D01*
X141585148Y-83240600D02*
X141585148Y-84417577D01*
X136652748Y-79832200D02*
X139426148Y-82605600D01*
X140688925Y-98600377D02*
X147193748Y-105105200D01*
%TO.N,GPIO3*%
X141118348Y-105232200D02*
X136652748Y-105232200D01*
%TO.N,GPIO46*%
X141423148Y-107772200D02*
X136652748Y-107772200D01*
%TD*%
%TA.AperFunction,Conductor*%
%TO.N,GND*%
G36*
X158111028Y-77057885D02*
G01*
X158156783Y-77110689D01*
X158167517Y-77173007D01*
X158157089Y-77292198D01*
X158157089Y-77292200D01*
X158177684Y-77527603D01*
X158177686Y-77527613D01*
X158238842Y-77755855D01*
X158238844Y-77755859D01*
X158238845Y-77755863D01*
X158338713Y-77970030D01*
X158338715Y-77970034D01*
X158474249Y-78163595D01*
X158474254Y-78163602D01*
X158641345Y-78330693D01*
X158641351Y-78330698D01*
X158826906Y-78460625D01*
X158870531Y-78515202D01*
X158877725Y-78584700D01*
X158846202Y-78647055D01*
X158826906Y-78663775D01*
X158641345Y-78793705D01*
X158474253Y-78960797D01*
X158338713Y-79154369D01*
X158338712Y-79154371D01*
X158238846Y-79368535D01*
X158238842Y-79368544D01*
X158177686Y-79596786D01*
X158177684Y-79596796D01*
X158157089Y-79832199D01*
X158157089Y-79832200D01*
X158177684Y-80067603D01*
X158177686Y-80067613D01*
X158238842Y-80295855D01*
X158238844Y-80295859D01*
X158238845Y-80295863D01*
X158320362Y-80470676D01*
X158338713Y-80510030D01*
X158338715Y-80510034D01*
X158474249Y-80703595D01*
X158474254Y-80703602D01*
X158568423Y-80797771D01*
X158601908Y-80859094D01*
X158596924Y-80928786D01*
X158555052Y-80984719D01*
X158489588Y-81009136D01*
X158439787Y-81002494D01*
X158295002Y-80951831D01*
X158294997Y-80951830D01*
X158115752Y-80931635D01*
X158115744Y-80931635D01*
X157936498Y-80951830D01*
X157936493Y-80951831D01*
X157766224Y-81011411D01*
X157613485Y-81107384D01*
X157485932Y-81234937D01*
X157389959Y-81387676D01*
X157330379Y-81557945D01*
X157330378Y-81557950D01*
X157310183Y-81737196D01*
X157310183Y-81737203D01*
X157330378Y-81916449D01*
X157330379Y-81916454D01*
X157389959Y-82086723D01*
X157466779Y-82208981D01*
X157485932Y-82239462D01*
X157613486Y-82367016D01*
X157657332Y-82394566D01*
X157740612Y-82446895D01*
X157766226Y-82462989D01*
X157769853Y-82464258D01*
X157936493Y-82522568D01*
X157936497Y-82522569D01*
X158011666Y-82531037D01*
X158077687Y-82538476D01*
X158142100Y-82565542D01*
X158181655Y-82623136D01*
X158183578Y-82629603D01*
X158238842Y-82835855D01*
X158238844Y-82835859D01*
X158238845Y-82835863D01*
X158307844Y-82983831D01*
X158338713Y-83050030D01*
X158338715Y-83050034D01*
X158474249Y-83243595D01*
X158474254Y-83243602D01*
X158641345Y-83410693D01*
X158641351Y-83410698D01*
X158826906Y-83540625D01*
X158870531Y-83595202D01*
X158877725Y-83664700D01*
X158846202Y-83727055D01*
X158826906Y-83743775D01*
X158641345Y-83873705D01*
X158474253Y-84040797D01*
X158338713Y-84234369D01*
X158338712Y-84234371D01*
X158238846Y-84448535D01*
X158238842Y-84448544D01*
X158177686Y-84676786D01*
X158177684Y-84676796D01*
X158157089Y-84912199D01*
X158157089Y-84912200D01*
X158177684Y-85147603D01*
X158177686Y-85147613D01*
X158238842Y-85375855D01*
X158238844Y-85375859D01*
X158238845Y-85375863D01*
X158288625Y-85482616D01*
X158338713Y-85590030D01*
X158338715Y-85590034D01*
X158474249Y-85783595D01*
X158474254Y-85783602D01*
X158641345Y-85950693D01*
X158641351Y-85950698D01*
X158826906Y-86080625D01*
X158870531Y-86135202D01*
X158877725Y-86204700D01*
X158846202Y-86267055D01*
X158826906Y-86283775D01*
X158641345Y-86413705D01*
X158474253Y-86580797D01*
X158338713Y-86774369D01*
X158338712Y-86774371D01*
X158238846Y-86988535D01*
X158238842Y-86988544D01*
X158177686Y-87216786D01*
X158177684Y-87216796D01*
X158157089Y-87452199D01*
X158157089Y-87452200D01*
X158177684Y-87687603D01*
X158177686Y-87687613D01*
X158238842Y-87915855D01*
X158238844Y-87915859D01*
X158238845Y-87915863D01*
X158278442Y-88000779D01*
X158338713Y-88130030D01*
X158338715Y-88130034D01*
X158474249Y-88323595D01*
X158474254Y-88323602D01*
X158641345Y-88490693D01*
X158641351Y-88490698D01*
X158826906Y-88620625D01*
X158870531Y-88675202D01*
X158877725Y-88744700D01*
X158846202Y-88807055D01*
X158826906Y-88823775D01*
X158641345Y-88953705D01*
X158474253Y-89120797D01*
X158338713Y-89314369D01*
X158338712Y-89314371D01*
X158238846Y-89528535D01*
X158238842Y-89528544D01*
X158177686Y-89756786D01*
X158177684Y-89756796D01*
X158157089Y-89992199D01*
X158157089Y-89992200D01*
X158177684Y-90227603D01*
X158177686Y-90227613D01*
X158238842Y-90455855D01*
X158238844Y-90455859D01*
X158238845Y-90455863D01*
X158283887Y-90552455D01*
X158338713Y-90670030D01*
X158338715Y-90670034D01*
X158474249Y-90863595D01*
X158474254Y-90863602D01*
X158641345Y-91030693D01*
X158641351Y-91030698D01*
X158826906Y-91160625D01*
X158870531Y-91215202D01*
X158877725Y-91284700D01*
X158846202Y-91347055D01*
X158826906Y-91363775D01*
X158641345Y-91493705D01*
X158474253Y-91660797D01*
X158338713Y-91854369D01*
X158338712Y-91854371D01*
X158238846Y-92068535D01*
X158238842Y-92068544D01*
X158177686Y-92296786D01*
X158177684Y-92296796D01*
X158157089Y-92532199D01*
X158157089Y-92532200D01*
X158177684Y-92767603D01*
X158177686Y-92767613D01*
X158238842Y-92995855D01*
X158238844Y-92995859D01*
X158238845Y-92995863D01*
X158338713Y-93210030D01*
X158338715Y-93210034D01*
X158474249Y-93403595D01*
X158474254Y-93403602D01*
X158641345Y-93570693D01*
X158641351Y-93570698D01*
X158826906Y-93700625D01*
X158870531Y-93755202D01*
X158877725Y-93824700D01*
X158846202Y-93887055D01*
X158826906Y-93903775D01*
X158641345Y-94033705D01*
X158474253Y-94200797D01*
X158338713Y-94394369D01*
X158338712Y-94394371D01*
X158238846Y-94608535D01*
X158238842Y-94608544D01*
X158177686Y-94836786D01*
X158177684Y-94836796D01*
X158157089Y-95072199D01*
X158157089Y-95072200D01*
X158177684Y-95307603D01*
X158177686Y-95307613D01*
X158238842Y-95535855D01*
X158238844Y-95535859D01*
X158238845Y-95535863D01*
X158338713Y-95750030D01*
X158338715Y-95750034D01*
X158474249Y-95943595D01*
X158474254Y-95943602D01*
X158641345Y-96110693D01*
X158641351Y-96110698D01*
X158826906Y-96240625D01*
X158870531Y-96295202D01*
X158877725Y-96364700D01*
X158846202Y-96427055D01*
X158826906Y-96443775D01*
X158641345Y-96573705D01*
X158474253Y-96740797D01*
X158338713Y-96934369D01*
X158338712Y-96934371D01*
X158238846Y-97148535D01*
X158238842Y-97148544D01*
X158177686Y-97376786D01*
X158177684Y-97376796D01*
X158157089Y-97612199D01*
X158157089Y-97612200D01*
X158177684Y-97847603D01*
X158177686Y-97847613D01*
X158238842Y-98075855D01*
X158238844Y-98075859D01*
X158238845Y-98075863D01*
X158260811Y-98122969D01*
X158338713Y-98290030D01*
X158338715Y-98290034D01*
X158474249Y-98483595D01*
X158474254Y-98483602D01*
X158641345Y-98650693D01*
X158641351Y-98650698D01*
X158826906Y-98780625D01*
X158870531Y-98835202D01*
X158877725Y-98904700D01*
X158846202Y-98967055D01*
X158826906Y-98983775D01*
X158641345Y-99113705D01*
X158474253Y-99280797D01*
X158338713Y-99474369D01*
X158338712Y-99474371D01*
X158238846Y-99688535D01*
X158238842Y-99688544D01*
X158177686Y-99916786D01*
X158177684Y-99916796D01*
X158157089Y-100152199D01*
X158157089Y-100152200D01*
X158177684Y-100387603D01*
X158177686Y-100387613D01*
X158238842Y-100615855D01*
X158238844Y-100615859D01*
X158238845Y-100615863D01*
X158338713Y-100830030D01*
X158338715Y-100830034D01*
X158474249Y-101023595D01*
X158474254Y-101023602D01*
X158641345Y-101190693D01*
X158641351Y-101190698D01*
X158826906Y-101320625D01*
X158870531Y-101375202D01*
X158877725Y-101444700D01*
X158846202Y-101507055D01*
X158826906Y-101523775D01*
X158641345Y-101653705D01*
X158474253Y-101820797D01*
X158338713Y-102014369D01*
X158338712Y-102014371D01*
X158238846Y-102228535D01*
X158238842Y-102228544D01*
X158177686Y-102456786D01*
X158177684Y-102456796D01*
X158157089Y-102692199D01*
X158157089Y-102692200D01*
X158177684Y-102927603D01*
X158177686Y-102927613D01*
X158238842Y-103155855D01*
X158238844Y-103155859D01*
X158238845Y-103155863D01*
X158338713Y-103370030D01*
X158338715Y-103370034D01*
X158474249Y-103563595D01*
X158474254Y-103563602D01*
X158641345Y-103730693D01*
X158641351Y-103730698D01*
X158826906Y-103860625D01*
X158870531Y-103915202D01*
X158877725Y-103984700D01*
X158846202Y-104047055D01*
X158826906Y-104063775D01*
X158641345Y-104193705D01*
X158474253Y-104360797D01*
X158338713Y-104554369D01*
X158338712Y-104554371D01*
X158238846Y-104768535D01*
X158238842Y-104768544D01*
X158177686Y-104996786D01*
X158177684Y-104996796D01*
X158157089Y-105232199D01*
X158157089Y-105232200D01*
X158177684Y-105467603D01*
X158177686Y-105467613D01*
X158238842Y-105695855D01*
X158238844Y-105695859D01*
X158238845Y-105695863D01*
X158308491Y-105845219D01*
X158338713Y-105910030D01*
X158338715Y-105910034D01*
X158417347Y-106022331D01*
X158463844Y-106088736D01*
X158474249Y-106103595D01*
X158474254Y-106103602D01*
X158641345Y-106270693D01*
X158641351Y-106270698D01*
X158826906Y-106400625D01*
X158870531Y-106455202D01*
X158877725Y-106524700D01*
X158846202Y-106587055D01*
X158826906Y-106603775D01*
X158641345Y-106733705D01*
X158474253Y-106900797D01*
X158338713Y-107094369D01*
X158338712Y-107094371D01*
X158238846Y-107308535D01*
X158238842Y-107308544D01*
X158177686Y-107536786D01*
X158177684Y-107536796D01*
X158157089Y-107772199D01*
X158157089Y-107772200D01*
X158177684Y-108007603D01*
X158177686Y-108007613D01*
X158238842Y-108235855D01*
X158238844Y-108235859D01*
X158238845Y-108235863D01*
X158324940Y-108420494D01*
X158338713Y-108450030D01*
X158338715Y-108450034D01*
X158474249Y-108643595D01*
X158474254Y-108643602D01*
X158641345Y-108810693D01*
X158641351Y-108810698D01*
X158826906Y-108940625D01*
X158870531Y-108995202D01*
X158877725Y-109064700D01*
X158846202Y-109127055D01*
X158826906Y-109143775D01*
X158641345Y-109273705D01*
X158474253Y-109440797D01*
X158338713Y-109634369D01*
X158338712Y-109634371D01*
X158238846Y-109848535D01*
X158238842Y-109848544D01*
X158177686Y-110076786D01*
X158177684Y-110076796D01*
X158157089Y-110312199D01*
X158157089Y-110312200D01*
X158177684Y-110547603D01*
X158177686Y-110547613D01*
X158238842Y-110775855D01*
X158238844Y-110775859D01*
X158238845Y-110775863D01*
X158338713Y-110990030D01*
X158338715Y-110990034D01*
X158474249Y-111183595D01*
X158474254Y-111183602D01*
X158641345Y-111350693D01*
X158641351Y-111350698D01*
X158826906Y-111480625D01*
X158870531Y-111535202D01*
X158877725Y-111604700D01*
X158846202Y-111667055D01*
X158826906Y-111683775D01*
X158641345Y-111813705D01*
X158474253Y-111980797D01*
X158338713Y-112174369D01*
X158338712Y-112174371D01*
X158238846Y-112388535D01*
X158238840Y-112388551D01*
X158238299Y-112390570D01*
X158237818Y-112391358D01*
X158236991Y-112393631D01*
X158236534Y-112393464D01*
X158201927Y-112450226D01*
X158139077Y-112480748D01*
X158069702Y-112472445D01*
X158015829Y-112427953D01*
X158001488Y-112399422D01*
X157963038Y-112289538D01*
X157959478Y-112219763D01*
X157970978Y-112192410D01*
X157970116Y-112191995D01*
X157973137Y-112185721D01*
X157977110Y-112174369D01*
X158032716Y-112015455D01*
X158052913Y-111836200D01*
X158050378Y-111813705D01*
X158032717Y-111656950D01*
X158032716Y-111656945D01*
X158001916Y-111568925D01*
X157973137Y-111486678D01*
X157877164Y-111333938D01*
X157749610Y-111206384D01*
X157713342Y-111183595D01*
X157596871Y-111110411D01*
X157426602Y-111050831D01*
X157426597Y-111050830D01*
X157247352Y-111030635D01*
X157247344Y-111030635D01*
X157068098Y-111050830D01*
X157068093Y-111050831D01*
X156897824Y-111110411D01*
X156745085Y-111206384D01*
X156617532Y-111333937D01*
X156521559Y-111486676D01*
X156461979Y-111656945D01*
X156461978Y-111656950D01*
X156441783Y-111836196D01*
X156441783Y-111836203D01*
X156461978Y-112015449D01*
X156461981Y-112015462D01*
X156507259Y-112144856D01*
X156510821Y-112214635D01*
X156499326Y-112241993D01*
X156500183Y-112242406D01*
X156497162Y-112248678D01*
X156437585Y-112418937D01*
X156437582Y-112418950D01*
X156417387Y-112598196D01*
X156417387Y-112598203D01*
X156437582Y-112777449D01*
X156437583Y-112777454D01*
X156497163Y-112947723D01*
X156585056Y-113087603D01*
X156593136Y-113100462D01*
X156720690Y-113228016D01*
X156762064Y-113254013D01*
X156765860Y-113256398D01*
X156812151Y-113308733D01*
X156822799Y-113377786D01*
X156794424Y-113441635D01*
X156765862Y-113466385D01*
X156724484Y-113492385D01*
X156596932Y-113619937D01*
X156500959Y-113772676D01*
X156441379Y-113942945D01*
X156441378Y-113942950D01*
X156421183Y-114122196D01*
X156421183Y-114122203D01*
X156441378Y-114301449D01*
X156441379Y-114301454D01*
X156500959Y-114471723D01*
X156531796Y-114520799D01*
X156596932Y-114624462D01*
X156724486Y-114752016D01*
X156877226Y-114847989D01*
X157047493Y-114907568D01*
X157047498Y-114907569D01*
X157226744Y-114927765D01*
X157226748Y-114927765D01*
X157226752Y-114927765D01*
X157405997Y-114907569D01*
X157406000Y-114907568D01*
X157406003Y-114907568D01*
X157576270Y-114847989D01*
X157729010Y-114752016D01*
X157856564Y-114624462D01*
X157952537Y-114471722D01*
X158012116Y-114301455D01*
X158012117Y-114301449D01*
X158032313Y-114122203D01*
X158032313Y-114122196D01*
X158012117Y-113942950D01*
X158012116Y-113942945D01*
X157952536Y-113772676D01*
X157856563Y-113619937D01*
X157729008Y-113492382D01*
X157683838Y-113464000D01*
X157637548Y-113411666D01*
X157626900Y-113342612D01*
X157655275Y-113278764D01*
X157683840Y-113254013D01*
X157725211Y-113228018D01*
X157725211Y-113228017D01*
X157725214Y-113228016D01*
X157852768Y-113100462D01*
X157942605Y-112957486D01*
X157994940Y-112911196D01*
X158063993Y-112900548D01*
X158127842Y-112928923D01*
X158166214Y-112987313D01*
X158171127Y-113012651D01*
X158177684Y-113087603D01*
X158177686Y-113087613D01*
X158238842Y-113315855D01*
X158238844Y-113315859D01*
X158238845Y-113315863D01*
X158283519Y-113411666D01*
X158338713Y-113530030D01*
X158338715Y-113530034D01*
X158474249Y-113723595D01*
X158474254Y-113723602D01*
X158641345Y-113890693D01*
X158641351Y-113890698D01*
X158826906Y-114020625D01*
X158870531Y-114075202D01*
X158877725Y-114144700D01*
X158846202Y-114207055D01*
X158826906Y-114223775D01*
X158641345Y-114353705D01*
X158474253Y-114520797D01*
X158338713Y-114714369D01*
X158338712Y-114714371D01*
X158238846Y-114928535D01*
X158238842Y-114928544D01*
X158177686Y-115156786D01*
X158177684Y-115156796D01*
X158157089Y-115392199D01*
X158157089Y-115392200D01*
X158177684Y-115627603D01*
X158177686Y-115627613D01*
X158238842Y-115855855D01*
X158238844Y-115855859D01*
X158238845Y-115855863D01*
X158338713Y-116070030D01*
X158338715Y-116070034D01*
X158474249Y-116263595D01*
X158474254Y-116263602D01*
X158641345Y-116430693D01*
X158641351Y-116430698D01*
X158826906Y-116560625D01*
X158870531Y-116615202D01*
X158877725Y-116684700D01*
X158846202Y-116747055D01*
X158826906Y-116763775D01*
X158641345Y-116893705D01*
X158474253Y-117060797D01*
X158338713Y-117254369D01*
X158338712Y-117254371D01*
X158238846Y-117468535D01*
X158238842Y-117468544D01*
X158177686Y-117696786D01*
X158177684Y-117696796D01*
X158157089Y-117932199D01*
X158157089Y-117932200D01*
X158177684Y-118167603D01*
X158177686Y-118167613D01*
X158238842Y-118395855D01*
X158238844Y-118395859D01*
X158238845Y-118395863D01*
X158338713Y-118610030D01*
X158338715Y-118610034D01*
X158474249Y-118803595D01*
X158474254Y-118803602D01*
X158641345Y-118970693D01*
X158641351Y-118970698D01*
X158826906Y-119100625D01*
X158870531Y-119155202D01*
X158877725Y-119224700D01*
X158846202Y-119287055D01*
X158826906Y-119303775D01*
X158641345Y-119433705D01*
X158474253Y-119600797D01*
X158338713Y-119794369D01*
X158338712Y-119794371D01*
X158238846Y-120008535D01*
X158238842Y-120008544D01*
X158177686Y-120236786D01*
X158177684Y-120236796D01*
X158157089Y-120472199D01*
X158157089Y-120472200D01*
X158177684Y-120707603D01*
X158177686Y-120707613D01*
X158238842Y-120935855D01*
X158238844Y-120935859D01*
X158238845Y-120935863D01*
X158338713Y-121150030D01*
X158338715Y-121150034D01*
X158474249Y-121343595D01*
X158474254Y-121343602D01*
X158641345Y-121510693D01*
X158641351Y-121510698D01*
X158826906Y-121640625D01*
X158870531Y-121695202D01*
X158877725Y-121764700D01*
X158846202Y-121827055D01*
X158826906Y-121843775D01*
X158641345Y-121973705D01*
X158474253Y-122140797D01*
X158338713Y-122334369D01*
X158338712Y-122334371D01*
X158238846Y-122548535D01*
X158238842Y-122548544D01*
X158177686Y-122776786D01*
X158177684Y-122776796D01*
X158157089Y-123012199D01*
X158157089Y-123012200D01*
X158177684Y-123247603D01*
X158177686Y-123247613D01*
X158238842Y-123475855D01*
X158238844Y-123475859D01*
X158238845Y-123475863D01*
X158338713Y-123690030D01*
X158338715Y-123690034D01*
X158474249Y-123883595D01*
X158474254Y-123883602D01*
X158641345Y-124050693D01*
X158641351Y-124050698D01*
X158826906Y-124180625D01*
X158870531Y-124235202D01*
X158877725Y-124304700D01*
X158846202Y-124367055D01*
X158826906Y-124383775D01*
X158641345Y-124513705D01*
X158474253Y-124680797D01*
X158338713Y-124874369D01*
X158338712Y-124874371D01*
X158238846Y-125088535D01*
X158238842Y-125088544D01*
X158177686Y-125316786D01*
X158177684Y-125316796D01*
X158157089Y-125552199D01*
X158157089Y-125552200D01*
X158177684Y-125787603D01*
X158177686Y-125787613D01*
X158238842Y-126015855D01*
X158238844Y-126015859D01*
X158238845Y-126015863D01*
X158322692Y-126195672D01*
X158338713Y-126230030D01*
X158338715Y-126230034D01*
X158474249Y-126423595D01*
X158474254Y-126423602D01*
X158641345Y-126590693D01*
X158641351Y-126590698D01*
X158827342Y-126720930D01*
X158870967Y-126775507D01*
X158878161Y-126845005D01*
X158846638Y-126907360D01*
X158827343Y-126924080D01*
X158641670Y-127054090D01*
X158641668Y-127054091D01*
X158474639Y-127221120D01*
X158474634Y-127221126D01*
X158339148Y-127414620D01*
X158339147Y-127414622D01*
X158239318Y-127628707D01*
X158239315Y-127628713D01*
X158182112Y-127842199D01*
X158182112Y-127842200D01*
X158888248Y-127842200D01*
X158955287Y-127861885D01*
X159001042Y-127914689D01*
X159012248Y-127966200D01*
X159012248Y-128218200D01*
X158992563Y-128285239D01*
X158939759Y-128330994D01*
X158888248Y-128342200D01*
X158182112Y-128342200D01*
X158239315Y-128555686D01*
X158239318Y-128555692D01*
X158339147Y-128769778D01*
X158474642Y-128963282D01*
X158641667Y-129130307D01*
X158661402Y-129144126D01*
X158705026Y-129198704D01*
X158712218Y-129268202D01*
X158680695Y-129330556D01*
X158620465Y-129365969D01*
X158590277Y-129369700D01*
X151969239Y-129369700D01*
X151902200Y-129350015D01*
X151856445Y-129297211D01*
X151846501Y-129228053D01*
X151854677Y-129198249D01*
X151867200Y-129168012D01*
X151867202Y-129168005D01*
X151902747Y-128989309D01*
X151902748Y-128989306D01*
X151902748Y-128723200D01*
X151227748Y-128723200D01*
X151227748Y-128223200D01*
X151902748Y-128223200D01*
X151902748Y-127957094D01*
X151902747Y-127957090D01*
X151867202Y-127778394D01*
X151867199Y-127778382D01*
X151797476Y-127610054D01*
X151797469Y-127610041D01*
X151696243Y-127458547D01*
X151696240Y-127458543D01*
X151567404Y-127329707D01*
X151567400Y-127329704D01*
X151415906Y-127228478D01*
X151415897Y-127228473D01*
X151247560Y-127158746D01*
X151227748Y-127154804D01*
X151227748Y-128073472D01*
X151189688Y-127981586D01*
X151119362Y-127911260D01*
X151027476Y-127873200D01*
X150928020Y-127873200D01*
X150836134Y-127911260D01*
X150765808Y-127981586D01*
X150727748Y-128073472D01*
X150727748Y-127154805D01*
X150727747Y-127154804D01*
X150707935Y-127158746D01*
X150539598Y-127228473D01*
X150539589Y-127228478D01*
X150388095Y-127329704D01*
X150388091Y-127329707D01*
X150259255Y-127458543D01*
X150259252Y-127458547D01*
X150158026Y-127610041D01*
X150158019Y-127610054D01*
X150088296Y-127778382D01*
X150088293Y-127778394D01*
X150052748Y-127957090D01*
X150052748Y-128223200D01*
X150727748Y-128223200D01*
X150727748Y-128723200D01*
X150052748Y-128723200D01*
X150052748Y-128989309D01*
X150088293Y-129168005D01*
X150088295Y-129168012D01*
X150100819Y-129198249D01*
X150108287Y-129267718D01*
X150077011Y-129330197D01*
X150016921Y-129365849D01*
X149986257Y-129369700D01*
X146369352Y-129369700D01*
X146302313Y-129350015D01*
X146256558Y-129297211D01*
X146246614Y-129228053D01*
X146254791Y-129198247D01*
X146289318Y-129114889D01*
X146289320Y-129114881D01*
X146327747Y-128921695D01*
X146327748Y-128921692D01*
X146327748Y-128723200D01*
X145577748Y-128723200D01*
X145577748Y-128223200D01*
X146327748Y-128223200D01*
X146327748Y-128024708D01*
X146327747Y-128024704D01*
X146289320Y-127831518D01*
X146289317Y-127831506D01*
X146213940Y-127649528D01*
X146213933Y-127649515D01*
X146104499Y-127485737D01*
X146104496Y-127485733D01*
X145965214Y-127346451D01*
X145965210Y-127346448D01*
X145801432Y-127237014D01*
X145801419Y-127237007D01*
X145619439Y-127161629D01*
X145619431Y-127161627D01*
X145577748Y-127153335D01*
X145577748Y-128073472D01*
X145539688Y-127981586D01*
X145469362Y-127911260D01*
X145377476Y-127873200D01*
X145278020Y-127873200D01*
X145186134Y-127911260D01*
X145115808Y-127981586D01*
X145077748Y-128073472D01*
X145077748Y-127153336D01*
X145077747Y-127153335D01*
X145036064Y-127161627D01*
X145036056Y-127161629D01*
X144854076Y-127237007D01*
X144854063Y-127237014D01*
X144690285Y-127346448D01*
X144690281Y-127346451D01*
X144550999Y-127485733D01*
X144550996Y-127485737D01*
X144441562Y-127649515D01*
X144441555Y-127649528D01*
X144366178Y-127831506D01*
X144366175Y-127831518D01*
X144327748Y-128024704D01*
X144327748Y-128223200D01*
X145077748Y-128223200D01*
X145077748Y-128723200D01*
X144327748Y-128723200D01*
X144327748Y-128921695D01*
X144366175Y-129114881D01*
X144366177Y-129114889D01*
X144400705Y-129198247D01*
X144408174Y-129267717D01*
X144376899Y-129330196D01*
X144316810Y-129365848D01*
X144286144Y-129369700D01*
X137575219Y-129369700D01*
X137508180Y-129350015D01*
X137462425Y-129297211D01*
X137452481Y-129228053D01*
X137481506Y-129164497D01*
X137504094Y-129144126D01*
X137523828Y-129130307D01*
X137690853Y-128963282D01*
X137826348Y-128769778D01*
X137926177Y-128555692D01*
X137926180Y-128555686D01*
X137983384Y-128342200D01*
X137277248Y-128342200D01*
X137210209Y-128322515D01*
X137164454Y-128269711D01*
X137153248Y-128218200D01*
X137153248Y-127966200D01*
X137172933Y-127899161D01*
X137225737Y-127853406D01*
X137277248Y-127842200D01*
X137983384Y-127842200D01*
X137983383Y-127842199D01*
X137926180Y-127628713D01*
X137926177Y-127628707D01*
X137826348Y-127414622D01*
X137826347Y-127414620D01*
X137690861Y-127221126D01*
X137690856Y-127221120D01*
X137523826Y-127054090D01*
X137338153Y-126924079D01*
X137294528Y-126869502D01*
X137287336Y-126800004D01*
X137318858Y-126737649D01*
X137338154Y-126720930D01*
X137524149Y-126590695D01*
X137691243Y-126423601D01*
X137826783Y-126230030D01*
X137910395Y-126050725D01*
X145602248Y-126050725D01*
X145602248Y-126195675D01*
X145611454Y-126230030D01*
X145639765Y-126335688D01*
X145712236Y-126461211D01*
X145712238Y-126461213D01*
X145712239Y-126461215D01*
X145814733Y-126563709D01*
X145814734Y-126563710D01*
X145814736Y-126563711D01*
X145940259Y-126636182D01*
X145940260Y-126636182D01*
X145940263Y-126636184D01*
X146080273Y-126673700D01*
X146080276Y-126673700D01*
X146225220Y-126673700D01*
X146225223Y-126673700D01*
X146365233Y-126636184D01*
X146490763Y-126563709D01*
X146593257Y-126461215D01*
X146665732Y-126335685D01*
X146703248Y-126195675D01*
X146703248Y-126050725D01*
X149602248Y-126050725D01*
X149602248Y-126195675D01*
X149611454Y-126230030D01*
X149639765Y-126335688D01*
X149712236Y-126461211D01*
X149712238Y-126461213D01*
X149712239Y-126461215D01*
X149814733Y-126563709D01*
X149814734Y-126563710D01*
X149814736Y-126563711D01*
X149940259Y-126636182D01*
X149940260Y-126636182D01*
X149940263Y-126636184D01*
X150080273Y-126673700D01*
X150080276Y-126673700D01*
X150225220Y-126673700D01*
X150225223Y-126673700D01*
X150365233Y-126636184D01*
X150490763Y-126563709D01*
X150593257Y-126461215D01*
X150665732Y-126335685D01*
X150703248Y-126195675D01*
X150703248Y-126050725D01*
X150665732Y-125910715D01*
X150593257Y-125785185D01*
X150490763Y-125682691D01*
X150490761Y-125682690D01*
X150490759Y-125682688D01*
X150365236Y-125610217D01*
X150365237Y-125610217D01*
X150353754Y-125607140D01*
X150225223Y-125572700D01*
X150080273Y-125572700D01*
X149951741Y-125607140D01*
X149940259Y-125610217D01*
X149814736Y-125682688D01*
X149814730Y-125682693D01*
X149712241Y-125785182D01*
X149712236Y-125785188D01*
X149639765Y-125910711D01*
X149639764Y-125910715D01*
X149602248Y-126050725D01*
X146703248Y-126050725D01*
X146665732Y-125910715D01*
X146593257Y-125785185D01*
X146490763Y-125682691D01*
X146490761Y-125682690D01*
X146490759Y-125682688D01*
X146365236Y-125610217D01*
X146365237Y-125610217D01*
X146353754Y-125607140D01*
X146225223Y-125572700D01*
X146080273Y-125572700D01*
X145951741Y-125607140D01*
X145940259Y-125610217D01*
X145814736Y-125682688D01*
X145814730Y-125682693D01*
X145712241Y-125785182D01*
X145712236Y-125785188D01*
X145639765Y-125910711D01*
X145639764Y-125910715D01*
X145602248Y-126050725D01*
X137910395Y-126050725D01*
X137926651Y-126015863D01*
X137987811Y-125787608D01*
X138008407Y-125552200D01*
X137987811Y-125316792D01*
X137926651Y-125088537D01*
X137826783Y-124874371D01*
X137691243Y-124680799D01*
X137691242Y-124680797D01*
X137524150Y-124513706D01*
X137524144Y-124513701D01*
X137338590Y-124383775D01*
X137294965Y-124329198D01*
X137287771Y-124259700D01*
X137319294Y-124197345D01*
X137338590Y-124180625D01*
X137360774Y-124165091D01*
X137524149Y-124050695D01*
X137691243Y-123883601D01*
X137826783Y-123690030D01*
X137926651Y-123475863D01*
X137987811Y-123247608D01*
X138008407Y-123012200D01*
X137987811Y-122776792D01*
X137926651Y-122548537D01*
X137826783Y-122334371D01*
X137691243Y-122140799D01*
X137691242Y-122140797D01*
X137524150Y-121973706D01*
X137524144Y-121973701D01*
X137338590Y-121843775D01*
X137294965Y-121789198D01*
X137287771Y-121719700D01*
X137319294Y-121657345D01*
X137338590Y-121640625D01*
X137360774Y-121625091D01*
X137524149Y-121510695D01*
X137691243Y-121343601D01*
X137826783Y-121150030D01*
X137926651Y-120935863D01*
X137987811Y-120707608D01*
X138008407Y-120472200D01*
X137987811Y-120236792D01*
X137926651Y-120008537D01*
X137826783Y-119794371D01*
X137691243Y-119600799D01*
X137691242Y-119600797D01*
X137524150Y-119433706D01*
X137524144Y-119433701D01*
X137338590Y-119303775D01*
X137294965Y-119249198D01*
X137287771Y-119179700D01*
X137319294Y-119117345D01*
X137338590Y-119100625D01*
X137419854Y-119043723D01*
X137524149Y-118970695D01*
X137691243Y-118803601D01*
X137767849Y-118694196D01*
X144609183Y-118694196D01*
X144609183Y-118694203D01*
X144629378Y-118873449D01*
X144629379Y-118873454D01*
X144688959Y-119043723D01*
X144774400Y-119179700D01*
X144784932Y-119196462D01*
X144912486Y-119324016D01*
X145065226Y-119419989D01*
X145235493Y-119479568D01*
X145235498Y-119479569D01*
X145414744Y-119499765D01*
X145414748Y-119499765D01*
X145414752Y-119499765D01*
X145593997Y-119479569D01*
X145594000Y-119479568D01*
X145594003Y-119479568D01*
X145764270Y-119419989D01*
X145917010Y-119324016D01*
X146044564Y-119196462D01*
X146140537Y-119043722D01*
X146200116Y-118873455D01*
X146200117Y-118873449D01*
X146220313Y-118694203D01*
X146220313Y-118694196D01*
X146200117Y-118514950D01*
X146200116Y-118514945D01*
X146158447Y-118395863D01*
X146140537Y-118344678D01*
X146044564Y-118191938D01*
X145917010Y-118064384D01*
X145764271Y-117968411D01*
X145594002Y-117908831D01*
X145593997Y-117908830D01*
X145414752Y-117888635D01*
X145414744Y-117888635D01*
X145235498Y-117908830D01*
X145235493Y-117908831D01*
X145065224Y-117968411D01*
X144912485Y-118064384D01*
X144784932Y-118191937D01*
X144688959Y-118344676D01*
X144629379Y-118514945D01*
X144629378Y-118514950D01*
X144609183Y-118694196D01*
X137767849Y-118694196D01*
X137826783Y-118610030D01*
X137926651Y-118395863D01*
X137987811Y-118167608D01*
X138008407Y-117932200D01*
X137987811Y-117696792D01*
X137926651Y-117468537D01*
X137826783Y-117254371D01*
X137691243Y-117060799D01*
X137691242Y-117060797D01*
X137524150Y-116893706D01*
X137524144Y-116893701D01*
X137338590Y-116763775D01*
X137294965Y-116709198D01*
X137287771Y-116639700D01*
X137319294Y-116577345D01*
X137338590Y-116560625D01*
X137360774Y-116545091D01*
X137524149Y-116430695D01*
X137691243Y-116263601D01*
X137826783Y-116070030D01*
X137926651Y-115855863D01*
X137987811Y-115627608D01*
X138008407Y-115392200D01*
X137987811Y-115156792D01*
X137926651Y-114928537D01*
X137826783Y-114714371D01*
X137763829Y-114624462D01*
X137691242Y-114520797D01*
X137524150Y-114353706D01*
X137524144Y-114353701D01*
X137338590Y-114223775D01*
X137294965Y-114169198D01*
X137287771Y-114099700D01*
X137319294Y-114037345D01*
X137338590Y-114020625D01*
X137449528Y-113942945D01*
X137524149Y-113890695D01*
X137691243Y-113723601D01*
X137826783Y-113530030D01*
X137926651Y-113315863D01*
X137987811Y-113087608D01*
X138008407Y-112852200D01*
X137987811Y-112616792D01*
X137926651Y-112388537D01*
X137826783Y-112174371D01*
X137806117Y-112144856D01*
X137691242Y-111980797D01*
X137524150Y-111813706D01*
X137524144Y-111813701D01*
X137338590Y-111683775D01*
X137294965Y-111629198D01*
X137287771Y-111559700D01*
X137319294Y-111497345D01*
X137338590Y-111480625D01*
X137360774Y-111465091D01*
X137524149Y-111350695D01*
X137691243Y-111183601D01*
X137826783Y-110990030D01*
X137926651Y-110775863D01*
X137987811Y-110547608D01*
X138008407Y-110312200D01*
X137987811Y-110076792D01*
X137926651Y-109848537D01*
X137826783Y-109634371D01*
X137691243Y-109440799D01*
X137691242Y-109440797D01*
X137524150Y-109273706D01*
X137524144Y-109273701D01*
X137338590Y-109143775D01*
X137294965Y-109089198D01*
X137287771Y-109019700D01*
X137319294Y-108957345D01*
X137338590Y-108940625D01*
X137360774Y-108925091D01*
X137524149Y-108810695D01*
X137691243Y-108643601D01*
X137826783Y-108450030D01*
X137840556Y-108420494D01*
X137886729Y-108368055D01*
X137952938Y-108348900D01*
X140816408Y-108348900D01*
X140883447Y-108368585D01*
X140904089Y-108385219D01*
X140920886Y-108402016D01*
X141073626Y-108497989D01*
X141243893Y-108557568D01*
X141243898Y-108557569D01*
X141423144Y-108577765D01*
X141423148Y-108577765D01*
X141423152Y-108577765D01*
X141602397Y-108557569D01*
X141602400Y-108557568D01*
X141602403Y-108557568D01*
X141772670Y-108497989D01*
X141925410Y-108402016D01*
X142052964Y-108274462D01*
X142148937Y-108121722D01*
X142208516Y-107951455D01*
X142228713Y-107772200D01*
X142208516Y-107592945D01*
X142148937Y-107422678D01*
X142052964Y-107269938D01*
X141925410Y-107142384D01*
X141895999Y-107123904D01*
X141772671Y-107046411D01*
X141602402Y-106986831D01*
X141602397Y-106986830D01*
X141423152Y-106966635D01*
X141423144Y-106966635D01*
X141243898Y-106986830D01*
X141243893Y-106986831D01*
X141073624Y-107046411D01*
X140920885Y-107142384D01*
X140904089Y-107159181D01*
X140842766Y-107192666D01*
X140816408Y-107195500D01*
X137952937Y-107195500D01*
X137885898Y-107175815D01*
X137840555Y-107123904D01*
X137826785Y-107094375D01*
X137826782Y-107094369D01*
X137691242Y-106900797D01*
X137524150Y-106733706D01*
X137524144Y-106733701D01*
X137338590Y-106603775D01*
X137294965Y-106549198D01*
X137287771Y-106479700D01*
X137319294Y-106417345D01*
X137338590Y-106400625D01*
X137365019Y-106382119D01*
X137524149Y-106270695D01*
X137691243Y-106103601D01*
X137826783Y-105910030D01*
X137840556Y-105880494D01*
X137886729Y-105828055D01*
X137952938Y-105808900D01*
X140511608Y-105808900D01*
X140578647Y-105828585D01*
X140599289Y-105845219D01*
X140616086Y-105862016D01*
X140768826Y-105957989D01*
X140875895Y-105995454D01*
X140939093Y-106017568D01*
X140939098Y-106017569D01*
X141118344Y-106037765D01*
X141118348Y-106037765D01*
X141118352Y-106037765D01*
X141297597Y-106017569D01*
X141297600Y-106017568D01*
X141297603Y-106017568D01*
X141467870Y-105957989D01*
X141620610Y-105862016D01*
X141748164Y-105734462D01*
X141748164Y-105734461D01*
X141753088Y-105729538D01*
X141755094Y-105731544D01*
X141801794Y-105698735D01*
X141871604Y-105695855D01*
X141931890Y-105731174D01*
X141961059Y-105785889D01*
X141961080Y-105785882D01*
X141961125Y-105786012D01*
X141962496Y-105788583D01*
X141963378Y-105792451D01*
X142022959Y-105962723D01*
X142102139Y-106088736D01*
X142118932Y-106115462D01*
X142246486Y-106243016D01*
X142290534Y-106270693D01*
X142349302Y-106307620D01*
X142399226Y-106338989D01*
X142495772Y-106372771D01*
X142542498Y-106402132D01*
X144739022Y-108598656D01*
X144739051Y-108598687D01*
X144840162Y-108699798D01*
X144840165Y-108699800D01*
X144949268Y-108772700D01*
X144955419Y-108776810D01*
X144955420Y-108776810D01*
X144955421Y-108776811D01*
X145083486Y-108829857D01*
X145083490Y-108829857D01*
X145083491Y-108829858D01*
X145219436Y-108856900D01*
X145219439Y-108856900D01*
X145219440Y-108856900D01*
X145909349Y-108856900D01*
X145975319Y-108875905D01*
X145980226Y-108878989D01*
X145980229Y-108878990D01*
X146150493Y-108938568D01*
X146150498Y-108938569D01*
X146329744Y-108958765D01*
X146329748Y-108958765D01*
X146329752Y-108958765D01*
X146508997Y-108938569D01*
X146509000Y-108938568D01*
X146509003Y-108938568D01*
X146679270Y-108878989D01*
X146832010Y-108783016D01*
X146959564Y-108655462D01*
X147055537Y-108502722D01*
X147089320Y-108406174D01*
X147118678Y-108359450D01*
X147981911Y-107496219D01*
X148043234Y-107462734D01*
X148069592Y-107459900D01*
X153021349Y-107459900D01*
X153087319Y-107478905D01*
X153092226Y-107481989D01*
X153092229Y-107481990D01*
X153262493Y-107541568D01*
X153262498Y-107541569D01*
X153441744Y-107561765D01*
X153441748Y-107561765D01*
X153441752Y-107561765D01*
X153620997Y-107541569D01*
X153621000Y-107541568D01*
X153621003Y-107541568D01*
X153791270Y-107481989D01*
X153944010Y-107386016D01*
X154071564Y-107258462D01*
X154167537Y-107105722D01*
X154227116Y-106935455D01*
X154247313Y-106756200D01*
X154247456Y-106754931D01*
X154274522Y-106690517D01*
X154282985Y-106681143D01*
X154627327Y-106336802D01*
X154627331Y-106336800D01*
X154725348Y-106238783D01*
X154802359Y-106123527D01*
X154855405Y-105995462D01*
X154882448Y-105859508D01*
X154882448Y-90793599D01*
X154901453Y-90727628D01*
X154904537Y-90722722D01*
X154964116Y-90552455D01*
X154974999Y-90455864D01*
X154984313Y-90373203D01*
X154984313Y-90373196D01*
X154964117Y-90193950D01*
X154964116Y-90193945D01*
X154904536Y-90023676D01*
X154808563Y-89870937D01*
X154681010Y-89743384D01*
X154528272Y-89647412D01*
X154528268Y-89647410D01*
X154431723Y-89613627D01*
X154384997Y-89584267D01*
X153898582Y-89097852D01*
X153865097Y-89036529D01*
X153870081Y-88966837D01*
X153911953Y-88910904D01*
X153977417Y-88886487D01*
X154000147Y-88886951D01*
X154051746Y-88892765D01*
X154051748Y-88892765D01*
X154051752Y-88892765D01*
X154230997Y-88872569D01*
X154231000Y-88872568D01*
X154231003Y-88872568D01*
X154401270Y-88812989D01*
X154554010Y-88717016D01*
X154681564Y-88589462D01*
X154777537Y-88436722D01*
X154837116Y-88266455D01*
X154838305Y-88255901D01*
X154857313Y-88087203D01*
X154857313Y-88087196D01*
X154837117Y-87907950D01*
X154837114Y-87907937D01*
X154780854Y-87747155D01*
X154777292Y-87677376D01*
X154780854Y-87665245D01*
X154837114Y-87504462D01*
X154837117Y-87504449D01*
X154857313Y-87325203D01*
X154857313Y-87325196D01*
X154837117Y-87145950D01*
X154837116Y-87145945D01*
X154829633Y-87124559D01*
X154777537Y-86975678D01*
X154681564Y-86822938D01*
X154554010Y-86695384D01*
X154552899Y-86694686D01*
X154401271Y-86599411D01*
X154231002Y-86539831D01*
X154230997Y-86539830D01*
X154051752Y-86519635D01*
X154051744Y-86519635D01*
X153872498Y-86539830D01*
X153872493Y-86539831D01*
X153702224Y-86599411D01*
X153548420Y-86696054D01*
X153481184Y-86715054D01*
X153414348Y-86694686D01*
X153369134Y-86641419D01*
X153358448Y-86591060D01*
X153358448Y-85967599D01*
X153377453Y-85901628D01*
X153380537Y-85896722D01*
X153440116Y-85726455D01*
X153440117Y-85726449D01*
X153460313Y-85547203D01*
X153460313Y-85547196D01*
X153440117Y-85367950D01*
X153440116Y-85367945D01*
X153380536Y-85197676D01*
X153339677Y-85132649D01*
X153284564Y-85044938D01*
X153157010Y-84917384D01*
X153148758Y-84912199D01*
X153004271Y-84821411D01*
X152834002Y-84761831D01*
X152833997Y-84761830D01*
X152654752Y-84741635D01*
X152654744Y-84741635D01*
X152475498Y-84761830D01*
X152475493Y-84761831D01*
X152305229Y-84821409D01*
X152305226Y-84821411D01*
X152300319Y-84824494D01*
X152234349Y-84843500D01*
X151092592Y-84843500D01*
X151025553Y-84823815D01*
X151004911Y-84807181D01*
X150473019Y-84275289D01*
X150439534Y-84213966D01*
X150436700Y-84187608D01*
X150436700Y-82446895D01*
X150436701Y-82446874D01*
X150436701Y-82302141D01*
X150436700Y-82302139D01*
X150424135Y-82238971D01*
X150409658Y-82166190D01*
X150358940Y-82043750D01*
X150357293Y-82039147D01*
X150356611Y-82038126D01*
X150356611Y-82038125D01*
X150279600Y-81922869D01*
X150279598Y-81922866D01*
X150178487Y-81821755D01*
X150178456Y-81821726D01*
X148732688Y-80375958D01*
X148732668Y-80375936D01*
X148630333Y-80273601D01*
X148553855Y-80222501D01*
X148515075Y-80196589D01*
X148500095Y-80190384D01*
X148387013Y-80143544D01*
X148387004Y-80143541D01*
X148386942Y-80143529D01*
X148386942Y-80143528D01*
X148251058Y-80116499D01*
X148251056Y-80116499D01*
X148112440Y-80116499D01*
X148106326Y-80116499D01*
X148106306Y-80116500D01*
X147106147Y-80116500D01*
X147040176Y-80097494D01*
X147035270Y-80094411D01*
X147035268Y-80094410D01*
X147035266Y-80094409D01*
X146865002Y-80034831D01*
X146864997Y-80034830D01*
X146685752Y-80014635D01*
X146685744Y-80014635D01*
X146506498Y-80034830D01*
X146506493Y-80034831D01*
X146336224Y-80094411D01*
X146183485Y-80190384D01*
X146055932Y-80317937D01*
X145959960Y-80470675D01*
X145959959Y-80470676D01*
X145926175Y-80567224D01*
X145896815Y-80613949D01*
X145640583Y-80870182D01*
X145579263Y-80903666D01*
X145552904Y-80906500D01*
X141313592Y-80906500D01*
X141246553Y-80886815D01*
X141225911Y-80870181D01*
X138016356Y-77660626D01*
X137982871Y-77599303D01*
X137984261Y-77540853D01*
X137987811Y-77527608D01*
X138008407Y-77292200D01*
X137997979Y-77173007D01*
X138011746Y-77104507D01*
X138060361Y-77054324D01*
X138121507Y-77038200D01*
X158043989Y-77038200D01*
X158111028Y-77057885D01*
G37*
%TD.AperFunction*%
%TA.AperFunction,Conductor*%
G36*
X138198996Y-82196227D02*
G01*
X138213952Y-82208981D01*
X139072046Y-83067075D01*
X139203550Y-83142999D01*
X139350224Y-83182300D01*
X139502072Y-83182300D01*
X140659909Y-83182300D01*
X140726948Y-83201985D01*
X140747590Y-83218619D01*
X140972129Y-83443158D01*
X141005614Y-83504481D01*
X141008448Y-83530839D01*
X141008448Y-84127338D01*
X140988763Y-84194377D01*
X140972129Y-84215019D01*
X140227452Y-84959695D01*
X140227447Y-84959701D01*
X140151527Y-85091198D01*
X140151527Y-85091199D01*
X140151526Y-85091201D01*
X140151526Y-85091202D01*
X140112225Y-85237876D01*
X140112225Y-98524453D01*
X140112225Y-98676301D01*
X140144658Y-98797345D01*
X140151527Y-98822977D01*
X140151527Y-98822978D01*
X140227447Y-98954475D01*
X140227452Y-98954481D01*
X146358772Y-105085801D01*
X146392257Y-105147124D01*
X146394311Y-105159598D01*
X146408378Y-105284449D01*
X146467958Y-105454721D01*
X146505454Y-105514395D01*
X146563932Y-105607462D01*
X146691486Y-105735016D01*
X146772439Y-105785882D01*
X146843466Y-105830512D01*
X146844226Y-105830989D01*
X146932896Y-105862016D01*
X147014493Y-105890568D01*
X147014498Y-105890569D01*
X147193744Y-105910765D01*
X147193748Y-105910765D01*
X147193751Y-105910765D01*
X147294877Y-105899370D01*
X147330853Y-105895317D01*
X147399675Y-105907371D01*
X147451055Y-105954720D01*
X147468679Y-106022331D01*
X147446953Y-106088736D01*
X147398137Y-106128486D01*
X147398795Y-106129716D01*
X147393426Y-106132585D01*
X147278164Y-106209600D01*
X147248982Y-106238783D01*
X147180148Y-106307617D01*
X147180145Y-106307620D01*
X146123497Y-107364267D01*
X146076772Y-107393627D01*
X146020892Y-107413181D01*
X145980226Y-107427411D01*
X145975319Y-107430494D01*
X145909349Y-107449500D01*
X145631592Y-107449500D01*
X145564553Y-107429815D01*
X145543911Y-107413181D01*
X143537680Y-105406950D01*
X143508319Y-105360223D01*
X143481806Y-105284454D01*
X143474537Y-105263678D01*
X143454757Y-105232199D01*
X143381658Y-105115862D01*
X143378564Y-105110938D01*
X143251010Y-104983384D01*
X143098271Y-104887411D01*
X142928002Y-104827831D01*
X142927997Y-104827830D01*
X142748752Y-104807635D01*
X142748744Y-104807635D01*
X142569498Y-104827830D01*
X142569493Y-104827831D01*
X142399224Y-104887411D01*
X142246485Y-104983384D01*
X142114008Y-105115862D01*
X142112017Y-105113871D01*
X142065178Y-105146705D01*
X141995365Y-105149513D01*
X141935116Y-105114130D01*
X141906036Y-105059510D01*
X141906016Y-105059518D01*
X141905969Y-105059384D01*
X141904597Y-105056807D01*
X141903716Y-105052951D01*
X141903716Y-105052945D01*
X141844137Y-104882678D01*
X141748164Y-104729938D01*
X141620610Y-104602384D01*
X141591199Y-104583904D01*
X141467871Y-104506411D01*
X141297602Y-104446831D01*
X141297597Y-104446830D01*
X141118352Y-104426635D01*
X141118344Y-104426635D01*
X140939098Y-104446830D01*
X140939093Y-104446831D01*
X140768824Y-104506411D01*
X140616085Y-104602384D01*
X140599289Y-104619181D01*
X140537966Y-104652666D01*
X140511608Y-104655500D01*
X137952937Y-104655500D01*
X137885898Y-104635815D01*
X137840555Y-104583904D01*
X137826785Y-104554375D01*
X137826782Y-104554369D01*
X137691242Y-104360797D01*
X137524150Y-104193706D01*
X137524144Y-104193701D01*
X137338590Y-104063775D01*
X137294965Y-104009198D01*
X137287771Y-103939700D01*
X137319294Y-103877345D01*
X137338590Y-103860625D01*
X137360774Y-103845091D01*
X137524149Y-103730695D01*
X137691243Y-103563601D01*
X137826783Y-103370030D01*
X137926651Y-103155863D01*
X137987811Y-102927608D01*
X138008407Y-102692200D01*
X137987811Y-102456792D01*
X137926651Y-102228537D01*
X137826783Y-102014371D01*
X137767849Y-101930203D01*
X137767844Y-101930196D01*
X140617583Y-101930196D01*
X140617583Y-101930203D01*
X140637778Y-102109449D01*
X140637779Y-102109454D01*
X140697359Y-102279723D01*
X140793332Y-102432462D01*
X140920886Y-102560016D01*
X141073626Y-102655989D01*
X141177111Y-102692200D01*
X141243893Y-102715568D01*
X141243898Y-102715569D01*
X141423144Y-102735765D01*
X141423148Y-102735765D01*
X141423152Y-102735765D01*
X141602397Y-102715569D01*
X141602400Y-102715568D01*
X141602403Y-102715568D01*
X141772670Y-102655989D01*
X141925410Y-102560016D01*
X142052964Y-102432462D01*
X142148937Y-102279722D01*
X142208516Y-102109455D01*
X142208517Y-102109449D01*
X142228713Y-101930203D01*
X142228713Y-101930196D01*
X142208517Y-101750950D01*
X142208516Y-101750945D01*
X142148937Y-101580678D01*
X142052964Y-101427938D01*
X141925410Y-101300384D01*
X141772671Y-101204411D01*
X141602402Y-101144831D01*
X141602397Y-101144830D01*
X141423152Y-101124635D01*
X141423144Y-101124635D01*
X141243898Y-101144830D01*
X141243893Y-101144831D01*
X141073624Y-101204411D01*
X140920885Y-101300384D01*
X140793332Y-101427937D01*
X140697359Y-101580676D01*
X140637779Y-101750945D01*
X140637778Y-101750950D01*
X140617583Y-101930196D01*
X137767844Y-101930196D01*
X137691242Y-101820797D01*
X137524150Y-101653706D01*
X137524144Y-101653701D01*
X137338590Y-101523775D01*
X137294965Y-101469198D01*
X137287771Y-101399700D01*
X137319294Y-101337345D01*
X137338590Y-101320625D01*
X137367497Y-101300384D01*
X137524149Y-101190695D01*
X137691243Y-101023601D01*
X137826783Y-100830030D01*
X137926651Y-100615863D01*
X137987811Y-100387608D01*
X138008407Y-100152200D01*
X137987811Y-99916792D01*
X137926651Y-99688537D01*
X137826783Y-99474371D01*
X137691243Y-99280799D01*
X137691242Y-99280797D01*
X137524150Y-99113706D01*
X137524144Y-99113701D01*
X137338590Y-98983775D01*
X137294965Y-98929198D01*
X137287771Y-98859700D01*
X137319294Y-98797345D01*
X137338590Y-98780625D01*
X137360774Y-98765091D01*
X137524149Y-98650695D01*
X137691243Y-98483601D01*
X137826783Y-98290030D01*
X137926651Y-98075863D01*
X137987811Y-97847608D01*
X138008407Y-97612200D01*
X137987811Y-97376792D01*
X137926651Y-97148537D01*
X137826783Y-96934371D01*
X137715510Y-96775455D01*
X137691242Y-96740797D01*
X137524150Y-96573706D01*
X137524144Y-96573701D01*
X137338590Y-96443775D01*
X137294965Y-96389198D01*
X137287771Y-96319700D01*
X137319294Y-96257345D01*
X137338590Y-96240625D01*
X137360774Y-96225091D01*
X137524149Y-96110695D01*
X137691243Y-95943601D01*
X137826783Y-95750030D01*
X137926651Y-95535863D01*
X137987811Y-95307608D01*
X138008407Y-95072200D01*
X137987811Y-94836792D01*
X137926651Y-94608537D01*
X137826783Y-94394371D01*
X137691243Y-94200799D01*
X137691242Y-94200797D01*
X137524150Y-94033706D01*
X137524144Y-94033701D01*
X137338590Y-93903775D01*
X137294965Y-93849198D01*
X137287771Y-93779700D01*
X137319294Y-93717345D01*
X137338590Y-93700625D01*
X137360774Y-93685091D01*
X137524149Y-93570695D01*
X137691243Y-93403601D01*
X137826783Y-93210030D01*
X137926651Y-92995863D01*
X137987811Y-92767608D01*
X137999739Y-92631262D01*
X138025191Y-92566196D01*
X138081782Y-92525217D01*
X138151544Y-92521339D01*
X138164222Y-92525031D01*
X138251485Y-92555566D01*
X138251491Y-92555567D01*
X138251493Y-92555568D01*
X138251494Y-92555568D01*
X138251498Y-92555569D01*
X138430744Y-92575765D01*
X138430748Y-92575765D01*
X138430752Y-92575765D01*
X138609997Y-92555569D01*
X138610000Y-92555568D01*
X138610003Y-92555568D01*
X138780270Y-92495989D01*
X138933010Y-92400016D01*
X139060564Y-92272462D01*
X139156537Y-92119722D01*
X139216116Y-91949455D01*
X139216117Y-91949449D01*
X139236313Y-91770203D01*
X139236313Y-91770196D01*
X139216117Y-91590950D01*
X139216116Y-91590945D01*
X139156536Y-91420676D01*
X139060563Y-91267937D01*
X138933010Y-91140384D01*
X138780271Y-91044411D01*
X138610002Y-90984831D01*
X138609997Y-90984830D01*
X138430752Y-90964635D01*
X138430744Y-90964635D01*
X138251498Y-90984830D01*
X138251493Y-90984831D01*
X138081224Y-91044411D01*
X137928485Y-91140384D01*
X137800932Y-91267937D01*
X137704956Y-91420681D01*
X137702916Y-91426512D01*
X137662192Y-91483285D01*
X137597238Y-91509029D01*
X137528677Y-91495570D01*
X137514754Y-91487126D01*
X137338590Y-91363775D01*
X137294965Y-91309198D01*
X137287771Y-91239700D01*
X137319294Y-91177345D01*
X137338590Y-91160625D01*
X137367497Y-91140384D01*
X137524149Y-91030695D01*
X137691243Y-90863601D01*
X137826783Y-90670030D01*
X137926651Y-90455863D01*
X137987811Y-90227608D01*
X138008407Y-89992200D01*
X137987811Y-89756792D01*
X137926651Y-89528537D01*
X137826783Y-89314371D01*
X137815170Y-89297785D01*
X137691242Y-89120797D01*
X137524150Y-88953706D01*
X137524144Y-88953701D01*
X137338590Y-88823775D01*
X137294965Y-88769198D01*
X137287771Y-88699700D01*
X137319294Y-88637345D01*
X137338590Y-88620625D01*
X137428430Y-88557718D01*
X137524149Y-88490695D01*
X137691243Y-88323601D01*
X137826783Y-88130030D01*
X137926651Y-87915863D01*
X137987811Y-87687608D01*
X138008407Y-87452200D01*
X137987811Y-87216792D01*
X137926651Y-86988537D01*
X137826783Y-86774371D01*
X137770988Y-86694686D01*
X137691242Y-86580797D01*
X137524150Y-86413706D01*
X137524144Y-86413701D01*
X137338590Y-86283775D01*
X137294965Y-86229198D01*
X137287771Y-86159700D01*
X137319294Y-86097345D01*
X137338590Y-86080625D01*
X137406625Y-86032986D01*
X137524149Y-85950695D01*
X137691243Y-85783601D01*
X137826783Y-85590030D01*
X137926651Y-85375863D01*
X137987811Y-85147608D01*
X138008407Y-84912200D01*
X137987811Y-84676792D01*
X137926651Y-84448537D01*
X137826783Y-84234371D01*
X137812496Y-84213966D01*
X137691242Y-84040797D01*
X137524150Y-83873706D01*
X137524144Y-83873701D01*
X137338590Y-83743775D01*
X137294965Y-83689198D01*
X137287771Y-83619700D01*
X137319294Y-83557345D01*
X137338590Y-83540625D01*
X137425918Y-83479477D01*
X137524149Y-83410695D01*
X137691243Y-83243601D01*
X137826783Y-83050030D01*
X137926651Y-82835863D01*
X137987811Y-82607608D01*
X138008407Y-82372200D01*
X138002743Y-82307468D01*
X138016509Y-82238971D01*
X138065123Y-82188787D01*
X138133152Y-82172853D01*
X138198996Y-82196227D01*
G37*
%TD.AperFunction*%
%TA.AperFunction,Conductor*%
G36*
X141734922Y-85185891D02*
G01*
X141790856Y-85227762D01*
X141815273Y-85293227D01*
X141814809Y-85315956D01*
X141796032Y-85482616D01*
X141796032Y-85482624D01*
X141816227Y-85661870D01*
X141816228Y-85661875D01*
X141858820Y-85783595D01*
X141875808Y-85832143D01*
X141950299Y-85950695D01*
X141956294Y-85960235D01*
X141975294Y-86027471D01*
X141954926Y-86094307D01*
X141938985Y-86113884D01*
X141932837Y-86120031D01*
X141932835Y-86120034D01*
X141836862Y-86272773D01*
X141777282Y-86443042D01*
X141777281Y-86443047D01*
X141757086Y-86622293D01*
X141757086Y-86622300D01*
X141777281Y-86801546D01*
X141777282Y-86801551D01*
X141836862Y-86971820D01*
X141897486Y-87068302D01*
X141916486Y-87135539D01*
X141898662Y-87196248D01*
X141898981Y-87196402D01*
X141898048Y-87198337D01*
X141897491Y-87200238D01*
X141895961Y-87202673D01*
X141895957Y-87202681D01*
X141836381Y-87372937D01*
X141836378Y-87372950D01*
X141816183Y-87552196D01*
X141816183Y-87552203D01*
X141836378Y-87731449D01*
X141836379Y-87731454D01*
X141895959Y-87901723D01*
X141958203Y-88000783D01*
X141991932Y-88054462D01*
X142119486Y-88182016D01*
X142188832Y-88225589D01*
X142253869Y-88266455D01*
X142272226Y-88277989D01*
X142442493Y-88337568D01*
X142442498Y-88337569D01*
X142621744Y-88357765D01*
X142621748Y-88357765D01*
X142621752Y-88357765D01*
X142800997Y-88337569D01*
X142801000Y-88337568D01*
X142801003Y-88337568D01*
X142971270Y-88277989D01*
X142976176Y-88274905D01*
X143042147Y-88255900D01*
X143512358Y-88255900D01*
X143512378Y-88255901D01*
X143518492Y-88255901D01*
X143657110Y-88255901D01*
X143748568Y-88237707D01*
X143793062Y-88228857D01*
X143921127Y-88175811D01*
X143924781Y-88173369D01*
X143926020Y-88172542D01*
X143989644Y-88130030D01*
X144036383Y-88098800D01*
X144134400Y-88000783D01*
X144134402Y-88000779D01*
X144400164Y-87735016D01*
X144461486Y-87701534D01*
X144487844Y-87698700D01*
X148501156Y-87698700D01*
X148568195Y-87718385D01*
X148588837Y-87735019D01*
X148851474Y-87997656D01*
X148851503Y-87997687D01*
X148952614Y-88098798D01*
X148952617Y-88098800D01*
X149067873Y-88175811D01*
X149188048Y-88225589D01*
X149195938Y-88228857D01*
X149229926Y-88235618D01*
X149331889Y-88255901D01*
X149331892Y-88255901D01*
X149476623Y-88255901D01*
X149476643Y-88255900D01*
X150574306Y-88255900D01*
X150574326Y-88255901D01*
X150580440Y-88255901D01*
X150719058Y-88255901D01*
X150810516Y-88237707D01*
X150855010Y-88228857D01*
X150983075Y-88175811D01*
X150986729Y-88173369D01*
X150987968Y-88172542D01*
X151051592Y-88130030D01*
X151098331Y-88098800D01*
X151196348Y-88000783D01*
X151196349Y-88000780D01*
X151203415Y-87993715D01*
X151203417Y-87993711D01*
X151739368Y-87457761D01*
X151800690Y-87424277D01*
X151870382Y-87429261D01*
X151926315Y-87471133D01*
X151950732Y-87536597D01*
X151951048Y-87545443D01*
X151951048Y-88774756D01*
X151951047Y-88774782D01*
X151951047Y-88918509D01*
X151973254Y-89030145D01*
X151973254Y-89030146D01*
X151978090Y-89054456D01*
X151978092Y-89054465D01*
X152005568Y-89120799D01*
X152031137Y-89182527D01*
X152082477Y-89259364D01*
X152108149Y-89297785D01*
X152210484Y-89400120D01*
X152210506Y-89400140D01*
X153389815Y-90579449D01*
X153419175Y-90626175D01*
X153452959Y-90722722D01*
X153456042Y-90727628D01*
X153475048Y-90793599D01*
X153475048Y-105447356D01*
X153455363Y-105514395D01*
X153438729Y-105535037D01*
X152957585Y-106016181D01*
X152896262Y-106049666D01*
X152869904Y-106052500D01*
X147657438Y-106052500D01*
X147634189Y-106057124D01*
X147564597Y-106050895D01*
X147509421Y-106008031D01*
X147486178Y-105942140D01*
X147502247Y-105874144D01*
X147544026Y-105830513D01*
X147696010Y-105735016D01*
X147823564Y-105607462D01*
X147919537Y-105454722D01*
X147979116Y-105284455D01*
X147981457Y-105263678D01*
X147999313Y-105105203D01*
X147999313Y-105105196D01*
X147979117Y-104925950D01*
X147979116Y-104925945D01*
X147963976Y-104882678D01*
X147919537Y-104755678D01*
X147903363Y-104729938D01*
X147823563Y-104602937D01*
X147696010Y-104475384D01*
X147543269Y-104379410D01*
X147372997Y-104319830D01*
X147248146Y-104305763D01*
X147183732Y-104278696D01*
X147174349Y-104270224D01*
X141301944Y-98397819D01*
X141268459Y-98336496D01*
X141265625Y-98310138D01*
X141265625Y-97337596D01*
X142197183Y-97337596D01*
X142197183Y-97337603D01*
X142217378Y-97516849D01*
X142217379Y-97516854D01*
X142276959Y-97687123D01*
X142372932Y-97839862D01*
X142500486Y-97967416D01*
X142653226Y-98063389D01*
X142688852Y-98075855D01*
X142823493Y-98122968D01*
X142823498Y-98122969D01*
X143002744Y-98143165D01*
X143002748Y-98143165D01*
X143002752Y-98143165D01*
X143181997Y-98122969D01*
X143182000Y-98122968D01*
X143182003Y-98122968D01*
X143352270Y-98063389D01*
X143505010Y-97967416D01*
X143632564Y-97839862D01*
X143728537Y-97687122D01*
X143788116Y-97516855D01*
X143788117Y-97516849D01*
X143808313Y-97337603D01*
X143808313Y-97337596D01*
X143788117Y-97158350D01*
X143788116Y-97158345D01*
X143728536Y-96988076D01*
X143632563Y-96835337D01*
X143505010Y-96707784D01*
X143352271Y-96611811D01*
X143307646Y-96596196D01*
X149182183Y-96596196D01*
X149182183Y-96596203D01*
X149202378Y-96775449D01*
X149202379Y-96775454D01*
X149261959Y-96945723D01*
X149288573Y-96988078D01*
X149357932Y-97098462D01*
X149485486Y-97226016D01*
X149638226Y-97321989D01*
X149794827Y-97376786D01*
X149808493Y-97381568D01*
X149808498Y-97381569D01*
X149987744Y-97401765D01*
X149987748Y-97401765D01*
X149987752Y-97401765D01*
X150166997Y-97381569D01*
X150167000Y-97381568D01*
X150167003Y-97381568D01*
X150337270Y-97321989D01*
X150490010Y-97226016D01*
X150617564Y-97098462D01*
X150713537Y-96945722D01*
X150773116Y-96775455D01*
X150793313Y-96596200D01*
X150790778Y-96573705D01*
X150773117Y-96416950D01*
X150773116Y-96416945D01*
X150742316Y-96328925D01*
X150713537Y-96246678D01*
X150617564Y-96093938D01*
X150490010Y-95966384D01*
X150453742Y-95943595D01*
X150337271Y-95870411D01*
X150167002Y-95810831D01*
X150166997Y-95810830D01*
X149987752Y-95790635D01*
X149987744Y-95790635D01*
X149808498Y-95810830D01*
X149808493Y-95810831D01*
X149638224Y-95870411D01*
X149485485Y-95966384D01*
X149357932Y-96093937D01*
X149261959Y-96246676D01*
X149202379Y-96416945D01*
X149202378Y-96416950D01*
X149182183Y-96596196D01*
X143307646Y-96596196D01*
X143182002Y-96552231D01*
X143181997Y-96552230D01*
X143002752Y-96532035D01*
X143002744Y-96532035D01*
X142823498Y-96552230D01*
X142823493Y-96552231D01*
X142653224Y-96611811D01*
X142500485Y-96707784D01*
X142372932Y-96835337D01*
X142276959Y-96988076D01*
X142217379Y-97158345D01*
X142217378Y-97158350D01*
X142197183Y-97337596D01*
X141265625Y-97337596D01*
X141265625Y-85604038D01*
X141285310Y-85536999D01*
X141301940Y-85516361D01*
X141603911Y-85214390D01*
X141665231Y-85180907D01*
X141734922Y-85185891D01*
G37*
%TD.AperFunction*%
%TA.AperFunction,Conductor*%
G36*
X146329099Y-82270840D02*
G01*
X146361645Y-82320641D01*
X146420318Y-82488321D01*
X146505028Y-82623136D01*
X146516292Y-82641062D01*
X146643846Y-82768616D01*
X146796586Y-82864589D01*
X146859207Y-82886501D01*
X146966853Y-82924168D01*
X146966858Y-82924169D01*
X147146104Y-82944365D01*
X147146108Y-82944365D01*
X147146112Y-82944365D01*
X147325357Y-82924169D01*
X147325360Y-82924168D01*
X147325363Y-82924168D01*
X147325364Y-82924167D01*
X147325367Y-82924167D01*
X147367264Y-82909505D01*
X147481355Y-82869583D01*
X147551131Y-82866021D01*
X147563263Y-82869584D01*
X147719248Y-82924166D01*
X147719254Y-82924167D01*
X147719256Y-82924168D01*
X147719257Y-82924168D01*
X147719261Y-82924169D01*
X147813575Y-82934795D01*
X147877990Y-82961861D01*
X147904686Y-82992042D01*
X147933205Y-83037430D01*
X148046111Y-83150336D01*
X148079596Y-83211659D01*
X148081650Y-83224133D01*
X148100778Y-83393905D01*
X148100779Y-83393909D01*
X148160359Y-83564178D01*
X148176550Y-83589945D01*
X148256332Y-83716917D01*
X148383886Y-83844471D01*
X148536626Y-83940444D01*
X148706893Y-84000023D01*
X148706898Y-84000024D01*
X148886145Y-84020220D01*
X148886148Y-84020220D01*
X148886149Y-84020220D01*
X148888020Y-84020009D01*
X148891409Y-84019627D01*
X148960232Y-84031677D01*
X149011614Y-84079023D01*
X149029300Y-84142846D01*
X149029300Y-84456008D01*
X149029299Y-84456034D01*
X149029299Y-84461144D01*
X149029299Y-84599760D01*
X149029299Y-84599762D01*
X149029298Y-84599762D01*
X149056341Y-84735708D01*
X149056343Y-84735716D01*
X149109386Y-84863775D01*
X149186401Y-84979037D01*
X149288736Y-85081372D01*
X149288758Y-85081392D01*
X150200022Y-85992656D01*
X150200051Y-85992687D01*
X150301162Y-86093798D01*
X150416424Y-86170813D01*
X150544483Y-86223856D01*
X150544484Y-86223856D01*
X150544486Y-86223857D01*
X150544490Y-86223857D01*
X150544491Y-86223858D01*
X150682639Y-86251339D01*
X150744550Y-86283724D01*
X150779124Y-86344440D01*
X150775383Y-86414210D01*
X150746128Y-86460637D01*
X150394585Y-86812181D01*
X150333262Y-86845666D01*
X150306904Y-86848500D01*
X149744044Y-86848500D01*
X149677005Y-86828815D01*
X149656363Y-86812181D01*
X149394940Y-86550758D01*
X149394920Y-86550736D01*
X149292585Y-86448401D01*
X149177323Y-86371386D01*
X149049264Y-86318343D01*
X149049256Y-86318341D01*
X148913310Y-86291299D01*
X148913308Y-86291299D01*
X148774692Y-86291299D01*
X148768578Y-86291299D01*
X148768558Y-86291300D01*
X144220443Y-86291300D01*
X144220423Y-86291299D01*
X144214309Y-86291299D01*
X144075692Y-86291299D01*
X144075689Y-86291299D01*
X144039462Y-86298505D01*
X143969871Y-86292278D01*
X143914694Y-86249415D01*
X143891449Y-86183525D01*
X143892051Y-86163005D01*
X143900246Y-86090271D01*
X143900246Y-86090264D01*
X143880050Y-85911018D01*
X143880049Y-85911013D01*
X143820469Y-85740743D01*
X143742145Y-85616093D01*
X143723144Y-85548856D01*
X143743511Y-85482021D01*
X143759456Y-85462440D01*
X143766235Y-85455662D01*
X143862208Y-85302922D01*
X143921787Y-85132655D01*
X143928052Y-85077052D01*
X143941984Y-84953403D01*
X143941984Y-84953396D01*
X143921788Y-84774150D01*
X143921787Y-84774145D01*
X143887722Y-84676792D01*
X143862208Y-84603878D01*
X143859620Y-84599760D01*
X143766234Y-84451137D01*
X143760742Y-84445645D01*
X143727257Y-84384322D01*
X143732241Y-84314630D01*
X143756059Y-84277579D01*
X143755220Y-84276910D01*
X143759561Y-84271465D01*
X143759561Y-84271464D01*
X143759564Y-84271462D01*
X143855537Y-84118722D01*
X143915116Y-83948455D01*
X143923538Y-83873706D01*
X143935313Y-83769203D01*
X143935313Y-83769196D01*
X143915117Y-83589950D01*
X143915116Y-83589945D01*
X143885211Y-83504481D01*
X143855537Y-83419678D01*
X143849894Y-83410698D01*
X143759563Y-83266937D01*
X143632010Y-83139384D01*
X143479271Y-83043411D01*
X143309002Y-82983831D01*
X143308997Y-82983830D01*
X143129752Y-82963635D01*
X143129744Y-82963635D01*
X142950498Y-82983830D01*
X142950493Y-82983831D01*
X142780224Y-83043411D01*
X142627485Y-83139384D01*
X142499932Y-83266937D01*
X142403960Y-83419675D01*
X142403958Y-83419680D01*
X142402888Y-83422738D01*
X142401664Y-83424444D01*
X142400941Y-83425946D01*
X142400677Y-83425819D01*
X142362165Y-83479513D01*
X142297212Y-83505258D01*
X142228650Y-83491800D01*
X142178249Y-83443411D01*
X142161848Y-83381780D01*
X142161848Y-83164678D01*
X142161848Y-83164676D01*
X142122547Y-83018002D01*
X142102818Y-82983831D01*
X142046625Y-82886501D01*
X142046620Y-82886495D01*
X141685706Y-82525581D01*
X141652221Y-82464258D01*
X141657205Y-82394566D01*
X141699077Y-82338633D01*
X141764541Y-82314216D01*
X141773387Y-82313900D01*
X145820306Y-82313900D01*
X145820326Y-82313901D01*
X145826440Y-82313901D01*
X145965058Y-82313901D01*
X146056516Y-82295707D01*
X146101010Y-82286857D01*
X146197152Y-82247033D01*
X146266619Y-82239565D01*
X146329099Y-82270840D01*
G37*
%TD.AperFunction*%
%TD*%
M02*
