%TF.GenerationSoftware,KiCad,Pcbnew,8.0.8*%
%TF.CreationDate,2025-04-17T09:07:28-03:00*%
%TF.ProjectId,ESP32_DevBoard_Minimal_Electgpl,45535033-325f-4446-9576-426f6172645f,rev?*%
%TF.SameCoordinates,Original*%
%TF.FileFunction,Soldermask,Bot*%
%TF.FilePolarity,Negative*%
%FSLAX46Y46*%
G04 Gerber Fmt 4.6, Leading zero omitted, Abs format (unit mm)*
G04 Created by KiCad (PCBNEW 8.0.8) date 2025-04-17 09:07:28*
%MOMM*%
%LPD*%
G01*
G04 APERTURE LIST*
%ADD10C,0.600000*%
%ADD11O,1.000000X1.700000*%
%ADD12O,0.850000X1.700000*%
%ADD13R,1.700000X1.700000*%
%ADD14O,1.700000X1.700000*%
G04 APERTURE END LIST*
D10*
%TO.C,J1*%
X146152748Y-126123200D03*
X150152748Y-126123200D03*
D11*
X145327748Y-128473200D03*
D12*
X150977748Y-128473200D03*
%TD*%
D13*
%TO.C,J3*%
X159512748Y-74752200D03*
D14*
X159512748Y-77292200D03*
X159512748Y-79832200D03*
X159512748Y-82372200D03*
X159512748Y-84912200D03*
X159512748Y-87452200D03*
X159512748Y-89992200D03*
X159512748Y-92532200D03*
X159512748Y-95072200D03*
X159512748Y-97612200D03*
X159512748Y-100152200D03*
X159512748Y-102692200D03*
X159512748Y-105232200D03*
X159512748Y-107772200D03*
X159512748Y-110312200D03*
X159512748Y-112852200D03*
X159512748Y-115392200D03*
X159512748Y-117932200D03*
X159512748Y-120472200D03*
X159512748Y-123012200D03*
X159512748Y-125552200D03*
X159512748Y-128092200D03*
%TD*%
D13*
%TO.C,J2*%
X136652748Y-74752200D03*
D14*
X136652748Y-77292200D03*
X136652748Y-79832200D03*
X136652748Y-82372200D03*
X136652748Y-84912200D03*
X136652748Y-87452200D03*
X136652748Y-89992200D03*
X136652748Y-92532200D03*
X136652748Y-95072200D03*
X136652748Y-97612200D03*
X136652748Y-100152200D03*
X136652748Y-102692200D03*
X136652748Y-105232200D03*
X136652748Y-107772200D03*
X136652748Y-110312200D03*
X136652748Y-112852200D03*
X136652748Y-115392200D03*
X136652748Y-117932200D03*
X136652748Y-120472200D03*
X136652748Y-123012200D03*
X136652748Y-125552200D03*
X136652748Y-128092200D03*
%TD*%
M02*
