M48
; DRILL file {KiCad 8.0.8} date 2025-04-17T09:07:28-0300
; FORMAT={-:-/ absolute / inch / decimal}
; #@! TF.CreationDate,2025-04-17T09:07:28-03:00
; #@! TF.GenerationSoftware,Kicad,Pcbnew,8.0.8
; #@! TF.FileFunction,Plated,1,4,PTH
FMAT,2
INCH
; #@! TA.AperFunction,Plated,PTH,ViaDrill
T1C0.0118
; #@! TA.AperFunction,Plated,PTH,ComponentDrill
T2C0.0197
; #@! TA.AperFunction,Plated,PTH,ComponentDrill
T3C0.0394
%
G90
G05
T1
X5.45Y-3.053
X5.45Y-3.613
X5.4558Y-4.9948
X5.4558Y-5.044
X5.49Y-3.053
X5.505Y-4.9948
X5.505Y-5.044
X5.51Y-3.308
X5.53Y-3.053
X5.545Y-3.308
X5.5542Y-4.9455
X5.5542Y-4.9948
X5.5542Y-5.044
X5.5558Y-4.143
X5.5597Y-3.4927
X5.5678Y-4.013
X5.5678Y-4.243
X5.57Y-3.053
X5.585Y-3.173
X5.5918Y-4.1022
X5.6035Y-4.3058
X5.6035Y-4.5518
X5.6035Y-4.6011
X5.6035Y-4.6503
X5.6035Y-4.8963
X5.6035Y-5.044
X5.61Y-3.053
X5.61Y-3.108
X5.6127Y-3.4103
X5.6142Y-3.3191
X5.6142Y-3.3655
X5.615Y-3.4469
X5.62Y-4.158
X5.63Y-3.8322
X5.63Y-4.958
X5.6336Y-3.3894
X5.635Y-3.298
X5.6353Y-3.3446
X5.65Y-3.115
X5.6527Y-4.3058
X5.6527Y-4.6995
X5.6527Y-4.7487
X5.6527Y-5.044
X5.69Y-3.053
X5.69Y-3.115
X5.695Y-3.603
X5.7Y-3.3464
X5.7019Y-4.3058
X5.7019Y-4.355
X5.7019Y-4.4042
X5.7019Y-4.4534
X5.705Y-3.978
X5.725Y-4.673
X5.73Y-3.115
X5.73Y-3.053
X5.7511Y-4.355
X5.7511Y-4.4042
X5.7511Y-4.4534
X5.761Y-4.258
X5.77Y-3.053
X5.775Y-3.115
X5.775Y-3.143
X5.775Y-3.1819
X5.7932Y-3.2338
X5.795Y-4.138
X5.8003Y-3.8629
X5.8003Y-4.355
X5.8003Y-4.4042
X5.8003Y-4.4534
X5.81Y-3.053
X5.82Y-3.128
X5.8228Y-3.2338
X5.8274Y-3.4706
X5.845Y-3.153
X5.8489Y-3.2494
X5.8495Y-3.9121
X5.85Y-3.053
X5.85Y-4.638
X5.8617Y-3.2762
X5.87Y-3.178
X5.885Y-4.883
X5.89Y-3.053
X5.89Y-4.698
X5.895Y-3.203
X5.9Y-3.108
X5.905Y-3.803
X5.925Y-3.133
X5.93Y-3.053
X5.93Y-3.103
X5.9479Y-4.6503
X5.9479Y-4.6995
X5.95Y-4.438
X5.955Y-3.978
X5.96Y-3.2222
X5.96Y-3.2758
X5.96Y-3.308
X5.96Y-3.338
X5.96Y-4.138
X5.97Y-3.053
X5.97Y-3.598
X5.98Y-3.138
X5.985Y-4.438
X5.9972Y-4.6503
X5.9972Y-4.8471
X5.9972Y-5.044
X6.01Y-3.053
X6.01Y-3.368
X6.02Y-4.403
X6.02Y-4.438
X6.02Y-4.473
X6.035Y-3.753
X6.035Y-4.958
X6.041Y-4.203
X6.0464Y-4.7979
X6.0464Y-4.8471
X6.0464Y-5.044
X6.05Y-3.053
X6.065Y-3.438
X6.065Y-3.468
X6.07Y-3.558
X6.071Y-4.258
X6.08Y-3.3127
X6.09Y-3.053
X6.0956Y-4.7979
X6.0956Y-4.8471
X6.0956Y-4.9948
X6.0956Y-5.044
X6.12Y-3.113
X6.13Y-3.053
X6.135Y-3.218
X6.1448Y-4.6995
X6.1448Y-4.7487
X6.1448Y-4.7979
X6.1448Y-4.8471
X6.1448Y-4.9948
X6.1448Y-5.044
X6.17Y-3.39
X6.17Y-3.053
X6.17Y-3.443
X6.17Y-3.558
X6.1899Y-4.433
X6.19Y-4.493
X6.1908Y-4.403
X6.194Y-4.9948
X6.194Y-5.044
X6.21Y-3.053
X6.225Y-3.218
T3
X5.38Y-2.943
X5.38Y-3.043
X5.38Y-3.143
X5.38Y-3.243
X5.38Y-3.343
X5.38Y-3.443
X5.38Y-3.543
X5.38Y-3.643
X5.38Y-3.743
X5.38Y-3.843
X5.38Y-3.943
X5.38Y-4.043
X5.38Y-4.143
X5.38Y-4.243
X5.38Y-4.343
X5.38Y-4.443
X5.38Y-4.543
X5.38Y-4.643
X5.38Y-4.743
X5.38Y-4.843
X5.38Y-4.943
X5.38Y-5.043
X6.28Y-2.943
X6.28Y-3.043
X6.28Y-3.143
X6.28Y-3.243
X6.28Y-3.343
X6.28Y-3.443
X6.28Y-3.543
X6.28Y-3.643
X6.28Y-3.743
X6.28Y-3.843
X6.28Y-3.943
X6.28Y-4.043
X6.28Y-4.143
X6.28Y-4.243
X6.28Y-4.343
X6.28Y-4.443
X6.28Y-4.543
X6.28Y-4.643
X6.28Y-4.743
X6.28Y-4.843
X6.28Y-4.943
X6.28Y-5.043
T2
G00X5.7216Y-5.0442
M15
G01X5.7216Y-5.0718
M16
G05
G00X5.944Y-5.0442
M15
G01X5.944Y-5.0718
M16
G05
M30
