%TF.GenerationSoftware,KiCad,Pcbnew,8.0.8*%
%TF.CreationDate,2025-04-17T09:07:27-03:00*%
%TF.ProjectId,ESP32_DevBoard_Minimal_Electgpl,45535033-325f-4446-9576-426f6172645f,rev?*%
%TF.SameCoordinates,Original*%
%TF.FileFunction,Legend,Top*%
%TF.FilePolarity,Positive*%
%FSLAX46Y46*%
G04 Gerber Fmt 4.6, Leading zero omitted, Abs format (unit mm)*
G04 Created by KiCad (PCBNEW 8.0.8) date 2025-04-17 09:07:27*
%MOMM*%
%LPD*%
G01*
G04 APERTURE LIST*
G04 Aperture macros list*
%AMRoundRect*
0 Rectangle with rounded corners*
0 $1 Rounding radius*
0 $2 $3 $4 $5 $6 $7 $8 $9 X,Y pos of 4 corners*
0 Add a 4 corners polygon primitive as box body*
4,1,4,$2,$3,$4,$5,$6,$7,$8,$9,$2,$3,0*
0 Add four circle primitives for the rounded corners*
1,1,$1+$1,$2,$3*
1,1,$1+$1,$4,$5*
1,1,$1+$1,$6,$7*
1,1,$1+$1,$8,$9*
0 Add four rect primitives between the rounded corners*
20,1,$1+$1,$2,$3,$4,$5,0*
20,1,$1+$1,$4,$5,$6,$7,0*
20,1,$1+$1,$6,$7,$8,$9,0*
20,1,$1+$1,$8,$9,$2,$3,0*%
%AMFreePoly0*
4,1,9,1.050000,0.350000,0.550000,0.000000,0.550000,-0.400000,0.800000,-0.650000,0.800000,-0.800000,-1.050000,-0.800000,-1.050000,0.800000,1.050000,0.800000,1.050000,0.350000,1.050000,0.350000,$1*%
%AMFreePoly1*
4,1,9,1.050000,-0.800000,-0.800000,-0.800000,-0.800000,-0.650000,-0.550000,-0.400000,-0.550000,0.000000,-1.050000,0.350000,-1.050000,0.800000,1.050000,0.800000,1.050000,-0.800000,1.050000,-0.800000,$1*%
G04 Aperture macros list end*
%ADD10C,0.100000*%
%ADD11C,0.200000*%
%ADD12C,0.076200*%
%ADD13C,0.120000*%
%ADD14RoundRect,0.140000X-0.140000X-0.170000X0.140000X-0.170000X0.140000X0.170000X-0.140000X0.170000X0*%
%ADD15RoundRect,0.140000X0.170000X-0.140000X0.170000X0.140000X-0.170000X0.140000X-0.170000X-0.140000X0*%
%ADD16RoundRect,0.225000X0.225000X0.250000X-0.225000X0.250000X-0.225000X-0.250000X0.225000X-0.250000X0*%
%ADD17RoundRect,0.135000X0.135000X0.185000X-0.135000X0.185000X-0.135000X-0.185000X0.135000X-0.185000X0*%
%ADD18RoundRect,0.140000X-0.170000X0.140000X-0.170000X-0.140000X0.170000X-0.140000X0.170000X0.140000X0*%
%ADD19C,0.600000*%
%ADD20R,0.400000X1.350000*%
%ADD21FreePoly0,0.000000*%
%ADD22O,1.000000X1.700000*%
%ADD23R,1.900000X1.900000*%
%ADD24O,0.850000X1.700000*%
%ADD25FreePoly1,0.000000*%
%ADD26RoundRect,0.225000X0.225000X0.375000X-0.225000X0.375000X-0.225000X-0.375000X0.225000X-0.375000X0*%
%ADD27RoundRect,0.140000X0.140000X0.170000X-0.140000X0.170000X-0.140000X-0.170000X0.140000X-0.170000X0*%
%ADD28R,0.500000X0.500000*%
%ADD29R,0.630000X0.500000*%
%ADD30RoundRect,0.140000X-0.219203X-0.021213X-0.021213X-0.219203X0.219203X0.021213X0.021213X0.219203X0*%
%ADD31RoundRect,0.225000X-0.250000X0.225000X-0.250000X-0.225000X0.250000X-0.225000X0.250000X0.225000X0*%
%ADD32RoundRect,0.225000X0.250000X-0.225000X0.250000X0.225000X-0.250000X0.225000X-0.250000X-0.225000X0*%
%ADD33RoundRect,0.175000X-0.325000X0.175000X-0.325000X-0.175000X0.325000X-0.175000X0.325000X0.175000X0*%
%ADD34RoundRect,0.150000X-0.150000X0.200000X-0.150000X-0.200000X0.150000X-0.200000X0.150000X0.200000X0*%
%ADD35R,1.700000X1.700000*%
%ADD36O,1.700000X1.700000*%
%ADD37RoundRect,0.135000X-0.135000X-0.185000X0.135000X-0.185000X0.135000X0.185000X-0.135000X0.185000X0*%
%ADD38RoundRect,0.200000X0.200000X0.800000X-0.200000X0.800000X-0.200000X-0.800000X0.200000X-0.800000X0*%
%ADD39RoundRect,0.140000X0.021213X-0.219203X0.219203X-0.021213X-0.021213X0.219203X-0.219203X0.021213X0*%
%ADD40RoundRect,0.218750X0.218750X0.256250X-0.218750X0.256250X-0.218750X-0.256250X0.218750X-0.256250X0*%
%ADD41RoundRect,0.225000X-0.225000X-0.250000X0.225000X-0.250000X0.225000X0.250000X-0.225000X0.250000X0*%
%ADD42RoundRect,0.200000X0.200000X0.275000X-0.200000X0.275000X-0.200000X-0.275000X0.200000X-0.275000X0*%
%ADD43RoundRect,0.250001X0.462499X0.624999X-0.462499X0.624999X-0.462499X-0.624999X0.462499X-0.624999X0*%
%ADD44R,0.900000X0.800000*%
%ADD45RoundRect,0.375000X0.625000X0.375000X-0.625000X0.375000X-0.625000X-0.375000X0.625000X-0.375000X0*%
%ADD46RoundRect,0.500000X0.500000X1.400000X-0.500000X1.400000X-0.500000X-1.400000X0.500000X-1.400000X0*%
%ADD47RoundRect,0.150000X0.650000X0.150000X-0.650000X0.150000X-0.650000X-0.150000X0.650000X-0.150000X0*%
%ADD48RoundRect,0.050000X-0.050000X0.387500X-0.050000X-0.387500X0.050000X-0.387500X0.050000X0.387500X0*%
%ADD49RoundRect,0.050000X-0.387500X0.050000X-0.387500X-0.050000X0.387500X-0.050000X0.387500X0.050000X0*%
%ADD50R,5.600000X5.600000*%
G04 APERTURE END LIST*
D10*
X156955609Y-109297115D02*
X156955609Y-108963782D01*
X157479419Y-108820925D02*
X157479419Y-109297115D01*
X157479419Y-109297115D02*
X156479419Y-109297115D01*
X156479419Y-109297115D02*
X156479419Y-108820925D01*
X157431800Y-108439972D02*
X157479419Y-108297115D01*
X157479419Y-108297115D02*
X157479419Y-108059020D01*
X157479419Y-108059020D02*
X157431800Y-107963782D01*
X157431800Y-107963782D02*
X157384180Y-107916163D01*
X157384180Y-107916163D02*
X157288942Y-107868544D01*
X157288942Y-107868544D02*
X157193704Y-107868544D01*
X157193704Y-107868544D02*
X157098466Y-107916163D01*
X157098466Y-107916163D02*
X157050847Y-107963782D01*
X157050847Y-107963782D02*
X157003228Y-108059020D01*
X157003228Y-108059020D02*
X156955609Y-108249496D01*
X156955609Y-108249496D02*
X156907990Y-108344734D01*
X156907990Y-108344734D02*
X156860371Y-108392353D01*
X156860371Y-108392353D02*
X156765133Y-108439972D01*
X156765133Y-108439972D02*
X156669895Y-108439972D01*
X156669895Y-108439972D02*
X156574657Y-108392353D01*
X156574657Y-108392353D02*
X156527038Y-108344734D01*
X156527038Y-108344734D02*
X156479419Y-108249496D01*
X156479419Y-108249496D02*
X156479419Y-108011401D01*
X156479419Y-108011401D02*
X156527038Y-107868544D01*
X157479419Y-107439972D02*
X156479419Y-107439972D01*
X156479419Y-107439972D02*
X156479419Y-107059020D01*
X156479419Y-107059020D02*
X156527038Y-106963782D01*
X156527038Y-106963782D02*
X156574657Y-106916163D01*
X156574657Y-106916163D02*
X156669895Y-106868544D01*
X156669895Y-106868544D02*
X156812752Y-106868544D01*
X156812752Y-106868544D02*
X156907990Y-106916163D01*
X156907990Y-106916163D02*
X156955609Y-106963782D01*
X156955609Y-106963782D02*
X157003228Y-107059020D01*
X157003228Y-107059020D02*
X157003228Y-107439972D01*
X156479419Y-106535210D02*
X156479419Y-105916163D01*
X156479419Y-105916163D02*
X156860371Y-106249496D01*
X156860371Y-106249496D02*
X156860371Y-106106639D01*
X156860371Y-106106639D02*
X156907990Y-106011401D01*
X156907990Y-106011401D02*
X156955609Y-105963782D01*
X156955609Y-105963782D02*
X157050847Y-105916163D01*
X157050847Y-105916163D02*
X157288942Y-105916163D01*
X157288942Y-105916163D02*
X157384180Y-105963782D01*
X157384180Y-105963782D02*
X157431800Y-106011401D01*
X157431800Y-106011401D02*
X157479419Y-106106639D01*
X157479419Y-106106639D02*
X157479419Y-106392353D01*
X157479419Y-106392353D02*
X157431800Y-106487591D01*
X157431800Y-106487591D02*
X157384180Y-106535210D01*
X156574657Y-105535210D02*
X156527038Y-105487591D01*
X156527038Y-105487591D02*
X156479419Y-105392353D01*
X156479419Y-105392353D02*
X156479419Y-105154258D01*
X156479419Y-105154258D02*
X156527038Y-105059020D01*
X156527038Y-105059020D02*
X156574657Y-105011401D01*
X156574657Y-105011401D02*
X156669895Y-104963782D01*
X156669895Y-104963782D02*
X156765133Y-104963782D01*
X156765133Y-104963782D02*
X156907990Y-105011401D01*
X156907990Y-105011401D02*
X157479419Y-105582829D01*
X157479419Y-105582829D02*
X157479419Y-104963782D01*
X157098466Y-104535210D02*
X157098466Y-103773306D01*
X157431800Y-103344734D02*
X157479419Y-103201877D01*
X157479419Y-103201877D02*
X157479419Y-102963782D01*
X157479419Y-102963782D02*
X157431800Y-102868544D01*
X157431800Y-102868544D02*
X157384180Y-102820925D01*
X157384180Y-102820925D02*
X157288942Y-102773306D01*
X157288942Y-102773306D02*
X157193704Y-102773306D01*
X157193704Y-102773306D02*
X157098466Y-102820925D01*
X157098466Y-102820925D02*
X157050847Y-102868544D01*
X157050847Y-102868544D02*
X157003228Y-102963782D01*
X157003228Y-102963782D02*
X156955609Y-103154258D01*
X156955609Y-103154258D02*
X156907990Y-103249496D01*
X156907990Y-103249496D02*
X156860371Y-103297115D01*
X156860371Y-103297115D02*
X156765133Y-103344734D01*
X156765133Y-103344734D02*
X156669895Y-103344734D01*
X156669895Y-103344734D02*
X156574657Y-103297115D01*
X156574657Y-103297115D02*
X156527038Y-103249496D01*
X156527038Y-103249496D02*
X156479419Y-103154258D01*
X156479419Y-103154258D02*
X156479419Y-102916163D01*
X156479419Y-102916163D02*
X156527038Y-102773306D01*
X156479419Y-102439972D02*
X156479419Y-101820925D01*
X156479419Y-101820925D02*
X156860371Y-102154258D01*
X156860371Y-102154258D02*
X156860371Y-102011401D01*
X156860371Y-102011401D02*
X156907990Y-101916163D01*
X156907990Y-101916163D02*
X156955609Y-101868544D01*
X156955609Y-101868544D02*
X157050847Y-101820925D01*
X157050847Y-101820925D02*
X157288942Y-101820925D01*
X157288942Y-101820925D02*
X157384180Y-101868544D01*
X157384180Y-101868544D02*
X157431800Y-101916163D01*
X157431800Y-101916163D02*
X157479419Y-102011401D01*
X157479419Y-102011401D02*
X157479419Y-102297115D01*
X157479419Y-102297115D02*
X157431800Y-102392353D01*
X157431800Y-102392353D02*
X157384180Y-102439972D01*
X157479419Y-100630448D02*
X156479419Y-100630448D01*
X156479419Y-100630448D02*
X156479419Y-100392353D01*
X156479419Y-100392353D02*
X156527038Y-100249496D01*
X156527038Y-100249496D02*
X156622276Y-100154258D01*
X156622276Y-100154258D02*
X156717514Y-100106639D01*
X156717514Y-100106639D02*
X156907990Y-100059020D01*
X156907990Y-100059020D02*
X157050847Y-100059020D01*
X157050847Y-100059020D02*
X157241323Y-100106639D01*
X157241323Y-100106639D02*
X157336561Y-100154258D01*
X157336561Y-100154258D02*
X157431800Y-100249496D01*
X157431800Y-100249496D02*
X157479419Y-100392353D01*
X157479419Y-100392353D02*
X157479419Y-100630448D01*
X157431800Y-99249496D02*
X157479419Y-99344734D01*
X157479419Y-99344734D02*
X157479419Y-99535210D01*
X157479419Y-99535210D02*
X157431800Y-99630448D01*
X157431800Y-99630448D02*
X157336561Y-99678067D01*
X157336561Y-99678067D02*
X156955609Y-99678067D01*
X156955609Y-99678067D02*
X156860371Y-99630448D01*
X156860371Y-99630448D02*
X156812752Y-99535210D01*
X156812752Y-99535210D02*
X156812752Y-99344734D01*
X156812752Y-99344734D02*
X156860371Y-99249496D01*
X156860371Y-99249496D02*
X156955609Y-99201877D01*
X156955609Y-99201877D02*
X157050847Y-99201877D01*
X157050847Y-99201877D02*
X157146085Y-99678067D01*
X156812752Y-98868543D02*
X157479419Y-98630448D01*
X157479419Y-98630448D02*
X156812752Y-98392353D01*
X156812752Y-97344733D02*
X157479419Y-97106638D01*
X157479419Y-97106638D02*
X156812752Y-96868543D01*
X157479419Y-95963781D02*
X157479419Y-96535209D01*
X157479419Y-96249495D02*
X156479419Y-96249495D01*
X156479419Y-96249495D02*
X156622276Y-96344733D01*
X156622276Y-96344733D02*
X156717514Y-96439971D01*
X156717514Y-96439971D02*
X156765133Y-96535209D01*
X157384180Y-95535209D02*
X157431800Y-95487590D01*
X157431800Y-95487590D02*
X157479419Y-95535209D01*
X157479419Y-95535209D02*
X157431800Y-95582828D01*
X157431800Y-95582828D02*
X157384180Y-95535209D01*
X157384180Y-95535209D02*
X157479419Y-95535209D01*
X156479419Y-94868543D02*
X156479419Y-94773305D01*
X156479419Y-94773305D02*
X156527038Y-94678067D01*
X156527038Y-94678067D02*
X156574657Y-94630448D01*
X156574657Y-94630448D02*
X156669895Y-94582829D01*
X156669895Y-94582829D02*
X156860371Y-94535210D01*
X156860371Y-94535210D02*
X157098466Y-94535210D01*
X157098466Y-94535210D02*
X157288942Y-94582829D01*
X157288942Y-94582829D02*
X157384180Y-94630448D01*
X157384180Y-94630448D02*
X157431800Y-94678067D01*
X157431800Y-94678067D02*
X157479419Y-94773305D01*
X157479419Y-94773305D02*
X157479419Y-94868543D01*
X157479419Y-94868543D02*
X157431800Y-94963781D01*
X157431800Y-94963781D02*
X157384180Y-95011400D01*
X157384180Y-95011400D02*
X157288942Y-95059019D01*
X157288942Y-95059019D02*
X157098466Y-95106638D01*
X157098466Y-95106638D02*
X156860371Y-95106638D01*
X156860371Y-95106638D02*
X156669895Y-95059019D01*
X156669895Y-95059019D02*
X156574657Y-95011400D01*
X156574657Y-95011400D02*
X156527038Y-94963781D01*
X156527038Y-94963781D02*
X156479419Y-94868543D01*
D11*
G36*
X140794741Y-106225804D02*
G01*
X139071582Y-106225804D01*
X139071582Y-105055463D01*
X139405096Y-105055463D01*
X139405096Y-105835835D01*
X139710818Y-105835835D01*
X139710818Y-105142750D01*
X140044333Y-105142750D01*
X140044333Y-105835835D01*
X140461226Y-105835835D01*
X140461226Y-104997706D01*
X140794741Y-104997706D01*
X140794741Y-106225804D01*
G37*
G36*
X140822533Y-104217768D02*
G01*
X140817979Y-104313527D01*
X140806209Y-104404950D01*
X140787358Y-104481801D01*
X140753789Y-104562273D01*
X140703007Y-104634497D01*
X140695728Y-104642044D01*
X140621454Y-104696181D01*
X140552856Y-104721948D01*
X140463289Y-104737908D01*
X140376190Y-104743144D01*
X140363082Y-104743227D01*
X138909167Y-104743227D01*
X138849239Y-104370629D01*
X140290560Y-104370629D01*
X140378787Y-104363701D01*
X140381321Y-104363247D01*
X140449067Y-104334151D01*
X140494230Y-104272920D01*
X140514886Y-104185714D01*
X140516812Y-104165222D01*
X140822533Y-104217768D01*
G37*
G36*
X140198931Y-102787303D02*
G01*
X140266676Y-102792080D01*
X140266676Y-103638026D01*
X140352366Y-103614176D01*
X140427175Y-103558034D01*
X140449501Y-103530329D01*
X140490518Y-103449841D01*
X140511487Y-103359966D01*
X140516812Y-103274981D01*
X140513237Y-103186054D01*
X140502515Y-103098623D01*
X140498138Y-103073917D01*
X140478724Y-102989109D01*
X140452106Y-102912371D01*
X140740023Y-102862431D01*
X140770422Y-102942770D01*
X140791107Y-103027693D01*
X140796043Y-103053941D01*
X140809721Y-103142239D01*
X140814717Y-103185089D01*
X140821434Y-103272654D01*
X140822533Y-103325356D01*
X140818446Y-103421588D01*
X140806182Y-103510470D01*
X140782968Y-103600605D01*
X140770856Y-103634118D01*
X140730863Y-103718996D01*
X140681942Y-103793304D01*
X140629720Y-103851684D01*
X140557660Y-103910147D01*
X140476317Y-103955907D01*
X140416931Y-103979357D01*
X140330130Y-104002845D01*
X140238712Y-104016584D01*
X140151596Y-104020612D01*
X140058054Y-104016353D01*
X139971383Y-104003574D01*
X139883139Y-103979384D01*
X139850217Y-103966764D01*
X139766626Y-103925792D01*
X139693195Y-103876917D01*
X139635256Y-103825628D01*
X139576631Y-103756173D01*
X139529730Y-103679390D01*
X139504977Y-103624130D01*
X139477985Y-103537881D01*
X139463451Y-103449800D01*
X139460682Y-103390061D01*
X139460964Y-103385284D01*
X139766404Y-103385284D01*
X139779391Y-103472392D01*
X139787683Y-103492982D01*
X139838980Y-103564305D01*
X139843269Y-103568110D01*
X139918332Y-103612460D01*
X139924042Y-103614576D01*
X140010682Y-103637069D01*
X140016540Y-103638026D01*
X140016540Y-103145137D01*
X139930510Y-103159946D01*
X139924910Y-103161639D01*
X139848028Y-103202393D01*
X139845874Y-103204196D01*
X139790382Y-103273992D01*
X139788986Y-103276719D01*
X139767198Y-103361621D01*
X139766404Y-103385284D01*
X139460964Y-103385284D01*
X139466636Y-103289161D01*
X139484499Y-103196536D01*
X139514270Y-103112185D01*
X139564053Y-103024234D01*
X139630045Y-102947547D01*
X139699159Y-102892203D01*
X139779479Y-102848311D01*
X139871005Y-102815868D01*
X139973738Y-102794876D01*
X140067908Y-102786129D01*
X140128146Y-102784698D01*
X140198931Y-102787303D01*
G37*
G36*
X140141608Y-102568434D02*
G01*
X140047124Y-102562995D01*
X139956540Y-102546677D01*
X139877575Y-102522402D01*
X139795986Y-102485633D01*
X139721990Y-102439217D01*
X139661312Y-102388649D01*
X139602287Y-102323928D01*
X139552395Y-102250380D01*
X139514965Y-102175860D01*
X139484060Y-102085719D01*
X139467096Y-101996559D01*
X139460735Y-101900529D01*
X139460682Y-101890549D01*
X139464256Y-101802001D01*
X139476018Y-101714693D01*
X139479356Y-101698170D01*
X139502154Y-101611751D01*
X139533204Y-101527938D01*
X139816344Y-101605237D01*
X139789311Y-101689674D01*
X139781603Y-101720317D01*
X139768200Y-101808752D01*
X139766404Y-101860150D01*
X139776497Y-101955332D01*
X139810915Y-102041027D01*
X139869759Y-102106812D01*
X139948316Y-102153046D01*
X140033269Y-102178423D01*
X140120750Y-102187702D01*
X140141608Y-102188019D01*
X140235859Y-102182008D01*
X140325596Y-102161228D01*
X140406085Y-102121226D01*
X140418668Y-102112023D01*
X140478474Y-102038700D01*
X140507227Y-101953154D01*
X140516716Y-101857162D01*
X140516812Y-101845385D01*
X140511892Y-101757345D01*
X140504218Y-101700775D01*
X140484058Y-101612907D01*
X140464266Y-101557903D01*
X140754788Y-101505357D01*
X140783582Y-101588944D01*
X140802557Y-101668206D01*
X140816213Y-101757228D01*
X140822046Y-101846888D01*
X140822533Y-101883166D01*
X140819249Y-101969965D01*
X140807704Y-102060216D01*
X140785125Y-102151310D01*
X140769987Y-102193230D01*
X140729099Y-102277307D01*
X140679282Y-102350402D01*
X140626246Y-102407322D01*
X140553208Y-102463627D01*
X140470888Y-102507475D01*
X140410851Y-102529785D01*
X140323001Y-102551789D01*
X140230225Y-102564660D01*
X140141608Y-102568434D01*
G37*
G36*
X139159737Y-101274763D02*
G01*
X139099375Y-100901730D01*
X139488475Y-100901730D01*
X139488475Y-100454004D01*
X139794197Y-100454004D01*
X139794197Y-100901730D01*
X140258425Y-100901730D01*
X140346232Y-100894921D01*
X140432854Y-100867848D01*
X140446461Y-100860475D01*
X140501354Y-100792987D01*
X140516743Y-100701887D01*
X140516812Y-100694152D01*
X140510979Y-100605986D01*
X140505521Y-100570387D01*
X140484803Y-100484454D01*
X140474254Y-100454004D01*
X140755222Y-100401458D01*
X140785108Y-100487111D01*
X140802557Y-100551713D01*
X140817539Y-100643560D01*
X140822358Y-100731935D01*
X140822533Y-100754080D01*
X140818547Y-100844487D01*
X140804953Y-100932080D01*
X140781713Y-101007256D01*
X140739463Y-101087088D01*
X140680545Y-101155834D01*
X140667067Y-101167499D01*
X140591489Y-101215762D01*
X140508724Y-101246517D01*
X140489453Y-101251312D01*
X140401045Y-101266495D01*
X140312821Y-101273640D01*
X140258425Y-101274763D01*
X139159737Y-101274763D01*
G37*
G36*
X140731614Y-99076174D02*
G01*
X140819784Y-99088165D01*
X140914923Y-99113106D01*
X140998429Y-99149559D01*
X141081149Y-99206636D01*
X141111753Y-99235894D01*
X141172330Y-99316103D01*
X141212412Y-99398514D01*
X141241561Y-99493537D01*
X141257503Y-99582355D01*
X141265853Y-99679931D01*
X141267219Y-99742680D01*
X141264227Y-99832634D01*
X141255250Y-99922709D01*
X141245941Y-99982828D01*
X141228027Y-100070278D01*
X141204211Y-100159502D01*
X141189486Y-100205171D01*
X140886370Y-100140031D01*
X140916007Y-100055980D01*
X140938965Y-99968302D01*
X140941522Y-99956338D01*
X140955177Y-99866995D01*
X140961010Y-99775102D01*
X140961498Y-99737469D01*
X140954500Y-99646519D01*
X140927630Y-99561675D01*
X140889844Y-99511217D01*
X140813604Y-99463527D01*
X140726090Y-99445359D01*
X140705282Y-99444775D01*
X140656645Y-99444775D01*
X140687900Y-99529024D01*
X140697900Y-99568540D01*
X140709771Y-99657188D01*
X140711362Y-99707505D01*
X140705728Y-99805285D01*
X140688828Y-99894089D01*
X140654870Y-99986347D01*
X140605576Y-100066386D01*
X140551119Y-100125266D01*
X140474713Y-100181782D01*
X140386088Y-100224418D01*
X140300399Y-100249914D01*
X140205733Y-100265211D01*
X140102090Y-100270310D01*
X140014525Y-100265942D01*
X139924081Y-100251047D01*
X139839794Y-100225581D01*
X139755968Y-100185907D01*
X139681668Y-100134630D01*
X139637428Y-100093999D01*
X139579352Y-100023750D01*
X139532146Y-99942631D01*
X139506714Y-99882513D01*
X139480506Y-99792680D01*
X139466121Y-99704334D01*
X139460727Y-99609628D01*
X139460682Y-99599807D01*
X139460763Y-99597202D01*
X139766404Y-99597202D01*
X139777642Y-99689833D01*
X139815535Y-99770637D01*
X139861508Y-99817373D01*
X139939655Y-99861566D01*
X140023843Y-99884159D01*
X140101656Y-99889895D01*
X140189229Y-99883725D01*
X140274725Y-99860030D01*
X140347456Y-99809926D01*
X140394953Y-99723046D01*
X140405640Y-99637154D01*
X140395893Y-99548878D01*
X140390875Y-99529891D01*
X140358178Y-99449230D01*
X140355700Y-99444775D01*
X139778998Y-99444775D01*
X139770312Y-99509915D01*
X139766404Y-99597202D01*
X139460763Y-99597202D01*
X139463487Y-99509778D01*
X139467196Y-99461277D01*
X139476322Y-99372762D01*
X139483264Y-99320141D01*
X139498056Y-99230611D01*
X139507148Y-99185954D01*
X139527398Y-99101367D01*
X139535810Y-99072177D01*
X140635366Y-99072177D01*
X140731614Y-99076174D01*
G37*
G36*
X140236265Y-97509911D02*
G01*
X140322974Y-97520980D01*
X140412182Y-97541678D01*
X140419971Y-97544002D01*
X140508235Y-97576959D01*
X140586728Y-97619809D01*
X140633629Y-97653871D01*
X140699792Y-97718601D01*
X140752910Y-97794941D01*
X140773027Y-97834091D01*
X140803195Y-97919383D01*
X140818617Y-98005507D01*
X140822533Y-98081621D01*
X140817175Y-98170408D01*
X140807334Y-98227099D01*
X140782344Y-98313388D01*
X140764776Y-98356944D01*
X141267219Y-98356944D01*
X141267219Y-98729542D01*
X139535810Y-98729542D01*
X139513121Y-98642234D01*
X139507148Y-98614463D01*
X139490593Y-98526349D01*
X139483264Y-98478104D01*
X139472306Y-98388062D01*
X139467196Y-98333060D01*
X139461598Y-98243153D01*
X139460736Y-98194530D01*
X139766404Y-98194530D01*
X139769839Y-98281679D01*
X139770312Y-98287028D01*
X139778563Y-98356944D01*
X140464266Y-98356944D01*
X140499132Y-98276069D01*
X140502047Y-98265749D01*
X140516105Y-98177009D01*
X140516812Y-98151972D01*
X140504018Y-98061799D01*
X140456752Y-97980177D01*
X140374658Y-97923949D01*
X140276572Y-97895965D01*
X140175288Y-97886896D01*
X140152899Y-97886636D01*
X140059743Y-97892785D01*
X139969209Y-97914040D01*
X139885394Y-97954957D01*
X139871930Y-97964370D01*
X139807625Y-98032970D01*
X139774751Y-98114522D01*
X139766404Y-98194530D01*
X139460736Y-98194530D01*
X139460682Y-98191490D01*
X139464529Y-98102879D01*
X139477829Y-98010870D01*
X139500628Y-97925646D01*
X139509320Y-97901401D01*
X139547180Y-97818398D01*
X139594483Y-97744939D01*
X139645679Y-97686441D01*
X139717230Y-97626512D01*
X139792369Y-97581878D01*
X139860639Y-97552688D01*
X139951358Y-97526233D01*
X140039975Y-97511712D01*
X140134445Y-97506267D01*
X140144213Y-97506221D01*
X140236265Y-97509911D01*
G37*
G36*
X140822533Y-96701531D02*
G01*
X140817979Y-96797289D01*
X140806209Y-96888713D01*
X140787358Y-96965563D01*
X140753789Y-97046036D01*
X140703007Y-97118259D01*
X140695728Y-97125806D01*
X140621454Y-97179943D01*
X140552856Y-97205711D01*
X140463289Y-97221670D01*
X140376190Y-97226907D01*
X140363082Y-97226990D01*
X138909167Y-97226990D01*
X138849239Y-96854391D01*
X140290560Y-96854391D01*
X140378787Y-96847463D01*
X140381321Y-96847009D01*
X140449067Y-96817913D01*
X140494230Y-96756682D01*
X140514886Y-96669477D01*
X140516812Y-96648985D01*
X140822533Y-96701531D01*
G37*
D12*
X149370143Y-102383981D02*
X149333857Y-102420267D01*
X149333857Y-102420267D02*
X149225000Y-102456552D01*
X149225000Y-102456552D02*
X149152428Y-102456552D01*
X149152428Y-102456552D02*
X149043571Y-102420267D01*
X149043571Y-102420267D02*
X148971000Y-102347695D01*
X148971000Y-102347695D02*
X148934714Y-102275124D01*
X148934714Y-102275124D02*
X148898428Y-102129981D01*
X148898428Y-102129981D02*
X148898428Y-102021124D01*
X148898428Y-102021124D02*
X148934714Y-101875981D01*
X148934714Y-101875981D02*
X148971000Y-101803409D01*
X148971000Y-101803409D02*
X149043571Y-101730838D01*
X149043571Y-101730838D02*
X149152428Y-101694552D01*
X149152428Y-101694552D02*
X149225000Y-101694552D01*
X149225000Y-101694552D02*
X149333857Y-101730838D01*
X149333857Y-101730838D02*
X149370143Y-101767124D01*
X150095857Y-102456552D02*
X149660428Y-102456552D01*
X149878143Y-102456552D02*
X149878143Y-101694552D01*
X149878143Y-101694552D02*
X149805571Y-101803409D01*
X149805571Y-101803409D02*
X149733000Y-101875981D01*
X149733000Y-101875981D02*
X149660428Y-101912267D01*
X150821571Y-102456552D02*
X150386142Y-102456552D01*
X150603857Y-102456552D02*
X150603857Y-101694552D01*
X150603857Y-101694552D02*
X150531285Y-101803409D01*
X150531285Y-101803409D02*
X150458714Y-101875981D01*
X150458714Y-101875981D02*
X150386142Y-101912267D01*
X156993981Y-80830056D02*
X157030267Y-80866342D01*
X157030267Y-80866342D02*
X157066552Y-80975199D01*
X157066552Y-80975199D02*
X157066552Y-81047771D01*
X157066552Y-81047771D02*
X157030267Y-81156628D01*
X157030267Y-81156628D02*
X156957695Y-81229199D01*
X156957695Y-81229199D02*
X156885124Y-81265485D01*
X156885124Y-81265485D02*
X156739981Y-81301771D01*
X156739981Y-81301771D02*
X156631124Y-81301771D01*
X156631124Y-81301771D02*
X156485981Y-81265485D01*
X156485981Y-81265485D02*
X156413409Y-81229199D01*
X156413409Y-81229199D02*
X156340838Y-81156628D01*
X156340838Y-81156628D02*
X156304552Y-81047771D01*
X156304552Y-81047771D02*
X156304552Y-80975199D01*
X156304552Y-80975199D02*
X156340838Y-80866342D01*
X156340838Y-80866342D02*
X156377124Y-80830056D01*
X157066552Y-80104342D02*
X157066552Y-80539771D01*
X157066552Y-80322056D02*
X156304552Y-80322056D01*
X156304552Y-80322056D02*
X156413409Y-80394628D01*
X156413409Y-80394628D02*
X156485981Y-80467199D01*
X156485981Y-80467199D02*
X156522267Y-80539771D01*
X156377124Y-79814057D02*
X156340838Y-79777771D01*
X156340838Y-79777771D02*
X156304552Y-79705200D01*
X156304552Y-79705200D02*
X156304552Y-79523771D01*
X156304552Y-79523771D02*
X156340838Y-79451200D01*
X156340838Y-79451200D02*
X156377124Y-79414914D01*
X156377124Y-79414914D02*
X156449695Y-79378628D01*
X156449695Y-79378628D02*
X156522267Y-79378628D01*
X156522267Y-79378628D02*
X156631124Y-79414914D01*
X156631124Y-79414914D02*
X157066552Y-79850342D01*
X157066552Y-79850342D02*
X157066552Y-79378628D01*
X143637000Y-82190981D02*
X143600714Y-82227267D01*
X143600714Y-82227267D02*
X143491857Y-82263552D01*
X143491857Y-82263552D02*
X143419285Y-82263552D01*
X143419285Y-82263552D02*
X143310428Y-82227267D01*
X143310428Y-82227267D02*
X143237857Y-82154695D01*
X143237857Y-82154695D02*
X143201571Y-82082124D01*
X143201571Y-82082124D02*
X143165285Y-81936981D01*
X143165285Y-81936981D02*
X143165285Y-81828124D01*
X143165285Y-81828124D02*
X143201571Y-81682981D01*
X143201571Y-81682981D02*
X143237857Y-81610409D01*
X143237857Y-81610409D02*
X143310428Y-81537838D01*
X143310428Y-81537838D02*
X143419285Y-81501552D01*
X143419285Y-81501552D02*
X143491857Y-81501552D01*
X143491857Y-81501552D02*
X143600714Y-81537838D01*
X143600714Y-81537838D02*
X143637000Y-81574124D01*
X143891000Y-81501552D02*
X144399000Y-81501552D01*
X144399000Y-81501552D02*
X144072428Y-82263552D01*
X155321000Y-91715981D02*
X155284714Y-91752267D01*
X155284714Y-91752267D02*
X155175857Y-91788552D01*
X155175857Y-91788552D02*
X155103285Y-91788552D01*
X155103285Y-91788552D02*
X154994428Y-91752267D01*
X154994428Y-91752267D02*
X154921857Y-91679695D01*
X154921857Y-91679695D02*
X154885571Y-91607124D01*
X154885571Y-91607124D02*
X154849285Y-91461981D01*
X154849285Y-91461981D02*
X154849285Y-91353124D01*
X154849285Y-91353124D02*
X154885571Y-91207981D01*
X154885571Y-91207981D02*
X154921857Y-91135409D01*
X154921857Y-91135409D02*
X154994428Y-91062838D01*
X154994428Y-91062838D02*
X155103285Y-91026552D01*
X155103285Y-91026552D02*
X155175857Y-91026552D01*
X155175857Y-91026552D02*
X155284714Y-91062838D01*
X155284714Y-91062838D02*
X155321000Y-91099124D01*
X155683857Y-91788552D02*
X155829000Y-91788552D01*
X155829000Y-91788552D02*
X155901571Y-91752267D01*
X155901571Y-91752267D02*
X155937857Y-91715981D01*
X155937857Y-91715981D02*
X156010428Y-91607124D01*
X156010428Y-91607124D02*
X156046714Y-91461981D01*
X156046714Y-91461981D02*
X156046714Y-91171695D01*
X156046714Y-91171695D02*
X156010428Y-91099124D01*
X156010428Y-91099124D02*
X155974143Y-91062838D01*
X155974143Y-91062838D02*
X155901571Y-91026552D01*
X155901571Y-91026552D02*
X155756428Y-91026552D01*
X155756428Y-91026552D02*
X155683857Y-91062838D01*
X155683857Y-91062838D02*
X155647571Y-91099124D01*
X155647571Y-91099124D02*
X155611285Y-91171695D01*
X155611285Y-91171695D02*
X155611285Y-91353124D01*
X155611285Y-91353124D02*
X155647571Y-91425695D01*
X155647571Y-91425695D02*
X155683857Y-91461981D01*
X155683857Y-91461981D02*
X155756428Y-91498267D01*
X155756428Y-91498267D02*
X155901571Y-91498267D01*
X155901571Y-91498267D02*
X155974143Y-91461981D01*
X155974143Y-91461981D02*
X156010428Y-91425695D01*
X156010428Y-91425695D02*
X156046714Y-91353124D01*
X152527000Y-106139552D02*
X152273000Y-105776695D01*
X152091571Y-106139552D02*
X152091571Y-105377552D01*
X152091571Y-105377552D02*
X152381857Y-105377552D01*
X152381857Y-105377552D02*
X152454428Y-105413838D01*
X152454428Y-105413838D02*
X152490714Y-105450124D01*
X152490714Y-105450124D02*
X152527000Y-105522695D01*
X152527000Y-105522695D02*
X152527000Y-105631552D01*
X152527000Y-105631552D02*
X152490714Y-105704124D01*
X152490714Y-105704124D02*
X152454428Y-105740409D01*
X152454428Y-105740409D02*
X152381857Y-105776695D01*
X152381857Y-105776695D02*
X152091571Y-105776695D01*
X153252714Y-106139552D02*
X152817285Y-106139552D01*
X153035000Y-106139552D02*
X153035000Y-105377552D01*
X153035000Y-105377552D02*
X152962428Y-105486409D01*
X152962428Y-105486409D02*
X152889857Y-105558981D01*
X152889857Y-105558981D02*
X152817285Y-105595267D01*
X154178000Y-110715181D02*
X154141714Y-110751467D01*
X154141714Y-110751467D02*
X154032857Y-110787752D01*
X154032857Y-110787752D02*
X153960285Y-110787752D01*
X153960285Y-110787752D02*
X153851428Y-110751467D01*
X153851428Y-110751467D02*
X153778857Y-110678895D01*
X153778857Y-110678895D02*
X153742571Y-110606324D01*
X153742571Y-110606324D02*
X153706285Y-110461181D01*
X153706285Y-110461181D02*
X153706285Y-110352324D01*
X153706285Y-110352324D02*
X153742571Y-110207181D01*
X153742571Y-110207181D02*
X153778857Y-110134609D01*
X153778857Y-110134609D02*
X153851428Y-110062038D01*
X153851428Y-110062038D02*
X153960285Y-110025752D01*
X153960285Y-110025752D02*
X154032857Y-110025752D01*
X154032857Y-110025752D02*
X154141714Y-110062038D01*
X154141714Y-110062038D02*
X154178000Y-110098324D01*
X154831143Y-110279752D02*
X154831143Y-110787752D01*
X154649714Y-109989467D02*
X154468285Y-110533752D01*
X154468285Y-110533752D02*
X154940000Y-110533752D01*
X142621000Y-126586552D02*
X142621000Y-127130838D01*
X142621000Y-127130838D02*
X142584715Y-127239695D01*
X142584715Y-127239695D02*
X142512143Y-127312267D01*
X142512143Y-127312267D02*
X142403286Y-127348552D01*
X142403286Y-127348552D02*
X142330715Y-127348552D01*
X143383000Y-127348552D02*
X142947571Y-127348552D01*
X143165286Y-127348552D02*
X143165286Y-126586552D01*
X143165286Y-126586552D02*
X143092714Y-126695409D01*
X143092714Y-126695409D02*
X143020143Y-126767981D01*
X143020143Y-126767981D02*
X142947571Y-126804267D01*
X143274143Y-103145981D02*
X143237857Y-103182267D01*
X143237857Y-103182267D02*
X143129000Y-103218552D01*
X143129000Y-103218552D02*
X143056428Y-103218552D01*
X143056428Y-103218552D02*
X142947571Y-103182267D01*
X142947571Y-103182267D02*
X142875000Y-103109695D01*
X142875000Y-103109695D02*
X142838714Y-103037124D01*
X142838714Y-103037124D02*
X142802428Y-102891981D01*
X142802428Y-102891981D02*
X142802428Y-102783124D01*
X142802428Y-102783124D02*
X142838714Y-102637981D01*
X142838714Y-102637981D02*
X142875000Y-102565409D01*
X142875000Y-102565409D02*
X142947571Y-102492838D01*
X142947571Y-102492838D02*
X143056428Y-102456552D01*
X143056428Y-102456552D02*
X143129000Y-102456552D01*
X143129000Y-102456552D02*
X143237857Y-102492838D01*
X143237857Y-102492838D02*
X143274143Y-102529124D01*
X143999857Y-103218552D02*
X143564428Y-103218552D01*
X143782143Y-103218552D02*
X143782143Y-102456552D01*
X143782143Y-102456552D02*
X143709571Y-102565409D01*
X143709571Y-102565409D02*
X143637000Y-102637981D01*
X143637000Y-102637981D02*
X143564428Y-102674267D01*
X144653000Y-102710552D02*
X144653000Y-103218552D01*
X144471571Y-102420267D02*
X144290142Y-102964552D01*
X144290142Y-102964552D02*
X144761857Y-102964552D01*
X139900319Y-120439752D02*
X139900319Y-119677752D01*
X139900319Y-119677752D02*
X140081748Y-119677752D01*
X140081748Y-119677752D02*
X140190605Y-119714038D01*
X140190605Y-119714038D02*
X140263176Y-119786609D01*
X140263176Y-119786609D02*
X140299462Y-119859181D01*
X140299462Y-119859181D02*
X140335748Y-120004324D01*
X140335748Y-120004324D02*
X140335748Y-120113181D01*
X140335748Y-120113181D02*
X140299462Y-120258324D01*
X140299462Y-120258324D02*
X140263176Y-120330895D01*
X140263176Y-120330895D02*
X140190605Y-120403467D01*
X140190605Y-120403467D02*
X140081748Y-120439752D01*
X140081748Y-120439752D02*
X139900319Y-120439752D01*
X141061462Y-120439752D02*
X140626033Y-120439752D01*
X140843748Y-120439752D02*
X140843748Y-119677752D01*
X140843748Y-119677752D02*
X140771176Y-119786609D01*
X140771176Y-119786609D02*
X140698605Y-119859181D01*
X140698605Y-119859181D02*
X140626033Y-119895467D01*
X153815143Y-83333981D02*
X153778857Y-83370267D01*
X153778857Y-83370267D02*
X153670000Y-83406552D01*
X153670000Y-83406552D02*
X153597428Y-83406552D01*
X153597428Y-83406552D02*
X153488571Y-83370267D01*
X153488571Y-83370267D02*
X153416000Y-83297695D01*
X153416000Y-83297695D02*
X153379714Y-83225124D01*
X153379714Y-83225124D02*
X153343428Y-83079981D01*
X153343428Y-83079981D02*
X153343428Y-82971124D01*
X153343428Y-82971124D02*
X153379714Y-82825981D01*
X153379714Y-82825981D02*
X153416000Y-82753409D01*
X153416000Y-82753409D02*
X153488571Y-82680838D01*
X153488571Y-82680838D02*
X153597428Y-82644552D01*
X153597428Y-82644552D02*
X153670000Y-82644552D01*
X153670000Y-82644552D02*
X153778857Y-82680838D01*
X153778857Y-82680838D02*
X153815143Y-82717124D01*
X154540857Y-83406552D02*
X154105428Y-83406552D01*
X154323143Y-83406552D02*
X154323143Y-82644552D01*
X154323143Y-82644552D02*
X154250571Y-82753409D01*
X154250571Y-82753409D02*
X154178000Y-82825981D01*
X154178000Y-82825981D02*
X154105428Y-82862267D01*
X154794857Y-82644552D02*
X155302857Y-82644552D01*
X155302857Y-82644552D02*
X154976285Y-83406552D01*
X140843000Y-86889981D02*
X140806714Y-86926267D01*
X140806714Y-86926267D02*
X140697857Y-86962552D01*
X140697857Y-86962552D02*
X140625285Y-86962552D01*
X140625285Y-86962552D02*
X140516428Y-86926267D01*
X140516428Y-86926267D02*
X140443857Y-86853695D01*
X140443857Y-86853695D02*
X140407571Y-86781124D01*
X140407571Y-86781124D02*
X140371285Y-86635981D01*
X140371285Y-86635981D02*
X140371285Y-86527124D01*
X140371285Y-86527124D02*
X140407571Y-86381981D01*
X140407571Y-86381981D02*
X140443857Y-86309409D01*
X140443857Y-86309409D02*
X140516428Y-86236838D01*
X140516428Y-86236838D02*
X140625285Y-86200552D01*
X140625285Y-86200552D02*
X140697857Y-86200552D01*
X140697857Y-86200552D02*
X140806714Y-86236838D01*
X140806714Y-86236838D02*
X140843000Y-86273124D01*
X141496143Y-86200552D02*
X141351000Y-86200552D01*
X141351000Y-86200552D02*
X141278428Y-86236838D01*
X141278428Y-86236838D02*
X141242143Y-86273124D01*
X141242143Y-86273124D02*
X141169571Y-86381981D01*
X141169571Y-86381981D02*
X141133285Y-86527124D01*
X141133285Y-86527124D02*
X141133285Y-86817409D01*
X141133285Y-86817409D02*
X141169571Y-86889981D01*
X141169571Y-86889981D02*
X141205857Y-86926267D01*
X141205857Y-86926267D02*
X141278428Y-86962552D01*
X141278428Y-86962552D02*
X141423571Y-86962552D01*
X141423571Y-86962552D02*
X141496143Y-86926267D01*
X141496143Y-86926267D02*
X141532428Y-86889981D01*
X141532428Y-86889981D02*
X141568714Y-86817409D01*
X141568714Y-86817409D02*
X141568714Y-86635981D01*
X141568714Y-86635981D02*
X141532428Y-86563409D01*
X141532428Y-86563409D02*
X141496143Y-86527124D01*
X141496143Y-86527124D02*
X141423571Y-86490838D01*
X141423571Y-86490838D02*
X141278428Y-86490838D01*
X141278428Y-86490838D02*
X141205857Y-86527124D01*
X141205857Y-86527124D02*
X141169571Y-86563409D01*
X141169571Y-86563409D02*
X141133285Y-86635981D01*
X139445999Y-78743838D02*
X139808857Y-78743838D01*
X139373428Y-78961552D02*
X139627428Y-78199552D01*
X139627428Y-78199552D02*
X139881428Y-78961552D01*
X140135428Y-78562409D02*
X140389428Y-78562409D01*
X140498285Y-78961552D02*
X140135428Y-78961552D01*
X140135428Y-78961552D02*
X140135428Y-78199552D01*
X140135428Y-78199552D02*
X140498285Y-78199552D01*
X141224000Y-78961552D02*
X140788571Y-78961552D01*
X141006286Y-78961552D02*
X141006286Y-78199552D01*
X141006286Y-78199552D02*
X140933714Y-78308409D01*
X140933714Y-78308409D02*
X140861143Y-78380981D01*
X140861143Y-78380981D02*
X140788571Y-78417267D01*
X145669000Y-82190981D02*
X145632714Y-82227267D01*
X145632714Y-82227267D02*
X145523857Y-82263552D01*
X145523857Y-82263552D02*
X145451285Y-82263552D01*
X145451285Y-82263552D02*
X145342428Y-82227267D01*
X145342428Y-82227267D02*
X145269857Y-82154695D01*
X145269857Y-82154695D02*
X145233571Y-82082124D01*
X145233571Y-82082124D02*
X145197285Y-81936981D01*
X145197285Y-81936981D02*
X145197285Y-81828124D01*
X145197285Y-81828124D02*
X145233571Y-81682981D01*
X145233571Y-81682981D02*
X145269857Y-81610409D01*
X145269857Y-81610409D02*
X145342428Y-81537838D01*
X145342428Y-81537838D02*
X145451285Y-81501552D01*
X145451285Y-81501552D02*
X145523857Y-81501552D01*
X145523857Y-81501552D02*
X145632714Y-81537838D01*
X145632714Y-81537838D02*
X145669000Y-81574124D01*
X146104428Y-81828124D02*
X146031857Y-81791838D01*
X146031857Y-81791838D02*
X145995571Y-81755552D01*
X145995571Y-81755552D02*
X145959285Y-81682981D01*
X145959285Y-81682981D02*
X145959285Y-81646695D01*
X145959285Y-81646695D02*
X145995571Y-81574124D01*
X145995571Y-81574124D02*
X146031857Y-81537838D01*
X146031857Y-81537838D02*
X146104428Y-81501552D01*
X146104428Y-81501552D02*
X146249571Y-81501552D01*
X146249571Y-81501552D02*
X146322143Y-81537838D01*
X146322143Y-81537838D02*
X146358428Y-81574124D01*
X146358428Y-81574124D02*
X146394714Y-81646695D01*
X146394714Y-81646695D02*
X146394714Y-81682981D01*
X146394714Y-81682981D02*
X146358428Y-81755552D01*
X146358428Y-81755552D02*
X146322143Y-81791838D01*
X146322143Y-81791838D02*
X146249571Y-81828124D01*
X146249571Y-81828124D02*
X146104428Y-81828124D01*
X146104428Y-81828124D02*
X146031857Y-81864409D01*
X146031857Y-81864409D02*
X145995571Y-81900695D01*
X145995571Y-81900695D02*
X145959285Y-81973267D01*
X145959285Y-81973267D02*
X145959285Y-82118409D01*
X145959285Y-82118409D02*
X145995571Y-82190981D01*
X145995571Y-82190981D02*
X146031857Y-82227267D01*
X146031857Y-82227267D02*
X146104428Y-82263552D01*
X146104428Y-82263552D02*
X146249571Y-82263552D01*
X146249571Y-82263552D02*
X146322143Y-82227267D01*
X146322143Y-82227267D02*
X146358428Y-82190981D01*
X146358428Y-82190981D02*
X146394714Y-82118409D01*
X146394714Y-82118409D02*
X146394714Y-81973267D01*
X146394714Y-81973267D02*
X146358428Y-81900695D01*
X146358428Y-81900695D02*
X146322143Y-81864409D01*
X146322143Y-81864409D02*
X146249571Y-81828124D01*
X150285733Y-79023661D02*
X150029155Y-78767083D01*
X150029155Y-78767083D02*
X150567970Y-78228267D01*
X150747575Y-79485503D02*
X150439681Y-79177609D01*
X150593628Y-79331556D02*
X151132443Y-78792740D01*
X151132443Y-78792740D02*
X151004154Y-78818398D01*
X151004154Y-78818398D02*
X150901522Y-78818398D01*
X150901522Y-78818398D02*
X150824549Y-78792740D01*
X153924000Y-112239181D02*
X153887714Y-112275467D01*
X153887714Y-112275467D02*
X153778857Y-112311752D01*
X153778857Y-112311752D02*
X153706285Y-112311752D01*
X153706285Y-112311752D02*
X153597428Y-112275467D01*
X153597428Y-112275467D02*
X153524857Y-112202895D01*
X153524857Y-112202895D02*
X153488571Y-112130324D01*
X153488571Y-112130324D02*
X153452285Y-111985181D01*
X153452285Y-111985181D02*
X153452285Y-111876324D01*
X153452285Y-111876324D02*
X153488571Y-111731181D01*
X153488571Y-111731181D02*
X153524857Y-111658609D01*
X153524857Y-111658609D02*
X153597428Y-111586038D01*
X153597428Y-111586038D02*
X153706285Y-111549752D01*
X153706285Y-111549752D02*
X153778857Y-111549752D01*
X153778857Y-111549752D02*
X153887714Y-111586038D01*
X153887714Y-111586038D02*
X153924000Y-111622324D01*
X154613428Y-111549752D02*
X154250571Y-111549752D01*
X154250571Y-111549752D02*
X154214285Y-111912609D01*
X154214285Y-111912609D02*
X154250571Y-111876324D01*
X154250571Y-111876324D02*
X154323143Y-111840038D01*
X154323143Y-111840038D02*
X154504571Y-111840038D01*
X154504571Y-111840038D02*
X154577143Y-111876324D01*
X154577143Y-111876324D02*
X154613428Y-111912609D01*
X154613428Y-111912609D02*
X154649714Y-111985181D01*
X154649714Y-111985181D02*
X154649714Y-112166609D01*
X154649714Y-112166609D02*
X154613428Y-112239181D01*
X154613428Y-112239181D02*
X154577143Y-112275467D01*
X154577143Y-112275467D02*
X154504571Y-112311752D01*
X154504571Y-112311752D02*
X154323143Y-112311752D01*
X154323143Y-112311752D02*
X154250571Y-112275467D01*
X154250571Y-112275467D02*
X154214285Y-112239181D01*
X151384748Y-117115981D02*
X151348462Y-117152267D01*
X151348462Y-117152267D02*
X151239605Y-117188552D01*
X151239605Y-117188552D02*
X151167033Y-117188552D01*
X151167033Y-117188552D02*
X151058176Y-117152267D01*
X151058176Y-117152267D02*
X150985605Y-117079695D01*
X150985605Y-117079695D02*
X150949319Y-117007124D01*
X150949319Y-117007124D02*
X150913033Y-116861981D01*
X150913033Y-116861981D02*
X150913033Y-116753124D01*
X150913033Y-116753124D02*
X150949319Y-116607981D01*
X150949319Y-116607981D02*
X150985605Y-116535409D01*
X150985605Y-116535409D02*
X151058176Y-116462838D01*
X151058176Y-116462838D02*
X151167033Y-116426552D01*
X151167033Y-116426552D02*
X151239605Y-116426552D01*
X151239605Y-116426552D02*
X151348462Y-116462838D01*
X151348462Y-116462838D02*
X151384748Y-116499124D01*
X151675033Y-116499124D02*
X151711319Y-116462838D01*
X151711319Y-116462838D02*
X151783891Y-116426552D01*
X151783891Y-116426552D02*
X151965319Y-116426552D01*
X151965319Y-116426552D02*
X152037891Y-116462838D01*
X152037891Y-116462838D02*
X152074176Y-116499124D01*
X152074176Y-116499124D02*
X152110462Y-116571695D01*
X152110462Y-116571695D02*
X152110462Y-116644267D01*
X152110462Y-116644267D02*
X152074176Y-116753124D01*
X152074176Y-116753124D02*
X151638748Y-117188552D01*
X151638748Y-117188552D02*
X152110462Y-117188552D01*
X150821571Y-121709752D02*
X150821571Y-120947752D01*
X150821571Y-120947752D02*
X151003000Y-120947752D01*
X151003000Y-120947752D02*
X151111857Y-120984038D01*
X151111857Y-120984038D02*
X151184428Y-121056609D01*
X151184428Y-121056609D02*
X151220714Y-121129181D01*
X151220714Y-121129181D02*
X151257000Y-121274324D01*
X151257000Y-121274324D02*
X151257000Y-121383181D01*
X151257000Y-121383181D02*
X151220714Y-121528324D01*
X151220714Y-121528324D02*
X151184428Y-121600895D01*
X151184428Y-121600895D02*
X151111857Y-121673467D01*
X151111857Y-121673467D02*
X151003000Y-121709752D01*
X151003000Y-121709752D02*
X150821571Y-121709752D01*
X151547285Y-121020324D02*
X151583571Y-120984038D01*
X151583571Y-120984038D02*
X151656143Y-120947752D01*
X151656143Y-120947752D02*
X151837571Y-120947752D01*
X151837571Y-120947752D02*
X151910143Y-120984038D01*
X151910143Y-120984038D02*
X151946428Y-121020324D01*
X151946428Y-121020324D02*
X151982714Y-121092895D01*
X151982714Y-121092895D02*
X151982714Y-121165467D01*
X151982714Y-121165467D02*
X151946428Y-121274324D01*
X151946428Y-121274324D02*
X151511000Y-121709752D01*
X151511000Y-121709752D02*
X151982714Y-121709752D01*
X156718748Y-124884752D02*
X156718748Y-125429038D01*
X156718748Y-125429038D02*
X156682463Y-125537895D01*
X156682463Y-125537895D02*
X156609891Y-125610467D01*
X156609891Y-125610467D02*
X156501034Y-125646752D01*
X156501034Y-125646752D02*
X156428463Y-125646752D01*
X157009034Y-124884752D02*
X157480748Y-124884752D01*
X157480748Y-124884752D02*
X157226748Y-125175038D01*
X157226748Y-125175038D02*
X157335605Y-125175038D01*
X157335605Y-125175038D02*
X157408177Y-125211324D01*
X157408177Y-125211324D02*
X157444462Y-125247609D01*
X157444462Y-125247609D02*
X157480748Y-125320181D01*
X157480748Y-125320181D02*
X157480748Y-125501609D01*
X157480748Y-125501609D02*
X157444462Y-125574181D01*
X157444462Y-125574181D02*
X157408177Y-125610467D01*
X157408177Y-125610467D02*
X157335605Y-125646752D01*
X157335605Y-125646752D02*
X157117891Y-125646752D01*
X157117891Y-125646752D02*
X157045319Y-125610467D01*
X157045319Y-125610467D02*
X157009034Y-125574181D01*
X154178000Y-115414181D02*
X154141714Y-115450467D01*
X154141714Y-115450467D02*
X154032857Y-115486752D01*
X154032857Y-115486752D02*
X153960285Y-115486752D01*
X153960285Y-115486752D02*
X153851428Y-115450467D01*
X153851428Y-115450467D02*
X153778857Y-115377895D01*
X153778857Y-115377895D02*
X153742571Y-115305324D01*
X153742571Y-115305324D02*
X153706285Y-115160181D01*
X153706285Y-115160181D02*
X153706285Y-115051324D01*
X153706285Y-115051324D02*
X153742571Y-114906181D01*
X153742571Y-114906181D02*
X153778857Y-114833609D01*
X153778857Y-114833609D02*
X153851428Y-114761038D01*
X153851428Y-114761038D02*
X153960285Y-114724752D01*
X153960285Y-114724752D02*
X154032857Y-114724752D01*
X154032857Y-114724752D02*
X154141714Y-114761038D01*
X154141714Y-114761038D02*
X154178000Y-114797324D01*
X154432000Y-114724752D02*
X154903714Y-114724752D01*
X154903714Y-114724752D02*
X154649714Y-115015038D01*
X154649714Y-115015038D02*
X154758571Y-115015038D01*
X154758571Y-115015038D02*
X154831143Y-115051324D01*
X154831143Y-115051324D02*
X154867428Y-115087609D01*
X154867428Y-115087609D02*
X154903714Y-115160181D01*
X154903714Y-115160181D02*
X154903714Y-115341609D01*
X154903714Y-115341609D02*
X154867428Y-115414181D01*
X154867428Y-115414181D02*
X154831143Y-115450467D01*
X154831143Y-115450467D02*
X154758571Y-115486752D01*
X154758571Y-115486752D02*
X154540857Y-115486752D01*
X154540857Y-115486752D02*
X154468285Y-115450467D01*
X154468285Y-115450467D02*
X154432000Y-115414181D01*
X147066000Y-119147981D02*
X147029714Y-119184267D01*
X147029714Y-119184267D02*
X146920857Y-119220552D01*
X146920857Y-119220552D02*
X146848285Y-119220552D01*
X146848285Y-119220552D02*
X146739428Y-119184267D01*
X146739428Y-119184267D02*
X146666857Y-119111695D01*
X146666857Y-119111695D02*
X146630571Y-119039124D01*
X146630571Y-119039124D02*
X146594285Y-118893981D01*
X146594285Y-118893981D02*
X146594285Y-118785124D01*
X146594285Y-118785124D02*
X146630571Y-118639981D01*
X146630571Y-118639981D02*
X146666857Y-118567409D01*
X146666857Y-118567409D02*
X146739428Y-118494838D01*
X146739428Y-118494838D02*
X146848285Y-118458552D01*
X146848285Y-118458552D02*
X146920857Y-118458552D01*
X146920857Y-118458552D02*
X147029714Y-118494838D01*
X147029714Y-118494838D02*
X147066000Y-118531124D01*
X147791714Y-119220552D02*
X147356285Y-119220552D01*
X147574000Y-119220552D02*
X147574000Y-118458552D01*
X147574000Y-118458552D02*
X147501428Y-118567409D01*
X147501428Y-118567409D02*
X147428857Y-118639981D01*
X147428857Y-118639981D02*
X147356285Y-118676267D01*
X153942891Y-78507981D02*
X153906605Y-78544267D01*
X153906605Y-78544267D02*
X153797748Y-78580552D01*
X153797748Y-78580552D02*
X153725176Y-78580552D01*
X153725176Y-78580552D02*
X153616319Y-78544267D01*
X153616319Y-78544267D02*
X153543748Y-78471695D01*
X153543748Y-78471695D02*
X153507462Y-78399124D01*
X153507462Y-78399124D02*
X153471176Y-78253981D01*
X153471176Y-78253981D02*
X153471176Y-78145124D01*
X153471176Y-78145124D02*
X153507462Y-77999981D01*
X153507462Y-77999981D02*
X153543748Y-77927409D01*
X153543748Y-77927409D02*
X153616319Y-77854838D01*
X153616319Y-77854838D02*
X153725176Y-77818552D01*
X153725176Y-77818552D02*
X153797748Y-77818552D01*
X153797748Y-77818552D02*
X153906605Y-77854838D01*
X153906605Y-77854838D02*
X153942891Y-77891124D01*
X154668605Y-78580552D02*
X154233176Y-78580552D01*
X154450891Y-78580552D02*
X154450891Y-77818552D01*
X154450891Y-77818552D02*
X154378319Y-77927409D01*
X154378319Y-77927409D02*
X154305748Y-77999981D01*
X154305748Y-77999981D02*
X154233176Y-78036267D01*
X154922605Y-77818552D02*
X155394319Y-77818552D01*
X155394319Y-77818552D02*
X155140319Y-78108838D01*
X155140319Y-78108838D02*
X155249176Y-78108838D01*
X155249176Y-78108838D02*
X155321748Y-78145124D01*
X155321748Y-78145124D02*
X155358033Y-78181409D01*
X155358033Y-78181409D02*
X155394319Y-78253981D01*
X155394319Y-78253981D02*
X155394319Y-78435409D01*
X155394319Y-78435409D02*
X155358033Y-78507981D01*
X155358033Y-78507981D02*
X155321748Y-78544267D01*
X155321748Y-78544267D02*
X155249176Y-78580552D01*
X155249176Y-78580552D02*
X155031462Y-78580552D01*
X155031462Y-78580552D02*
X154958890Y-78544267D01*
X154958890Y-78544267D02*
X154922605Y-78507981D01*
X138938748Y-124884752D02*
X138938748Y-125429038D01*
X138938748Y-125429038D02*
X138902463Y-125537895D01*
X138902463Y-125537895D02*
X138829891Y-125610467D01*
X138829891Y-125610467D02*
X138721034Y-125646752D01*
X138721034Y-125646752D02*
X138648463Y-125646752D01*
X139265319Y-124957324D02*
X139301605Y-124921038D01*
X139301605Y-124921038D02*
X139374177Y-124884752D01*
X139374177Y-124884752D02*
X139555605Y-124884752D01*
X139555605Y-124884752D02*
X139628177Y-124921038D01*
X139628177Y-124921038D02*
X139664462Y-124957324D01*
X139664462Y-124957324D02*
X139700748Y-125029895D01*
X139700748Y-125029895D02*
X139700748Y-125102467D01*
X139700748Y-125102467D02*
X139664462Y-125211324D01*
X139664462Y-125211324D02*
X139229034Y-125646752D01*
X139229034Y-125646752D02*
X139700748Y-125646752D01*
X145814891Y-102383981D02*
X145778605Y-102420267D01*
X145778605Y-102420267D02*
X145669748Y-102456552D01*
X145669748Y-102456552D02*
X145597176Y-102456552D01*
X145597176Y-102456552D02*
X145488319Y-102420267D01*
X145488319Y-102420267D02*
X145415748Y-102347695D01*
X145415748Y-102347695D02*
X145379462Y-102275124D01*
X145379462Y-102275124D02*
X145343176Y-102129981D01*
X145343176Y-102129981D02*
X145343176Y-102021124D01*
X145343176Y-102021124D02*
X145379462Y-101875981D01*
X145379462Y-101875981D02*
X145415748Y-101803409D01*
X145415748Y-101803409D02*
X145488319Y-101730838D01*
X145488319Y-101730838D02*
X145597176Y-101694552D01*
X145597176Y-101694552D02*
X145669748Y-101694552D01*
X145669748Y-101694552D02*
X145778605Y-101730838D01*
X145778605Y-101730838D02*
X145814891Y-101767124D01*
X146540605Y-102456552D02*
X146105176Y-102456552D01*
X146322891Y-102456552D02*
X146322891Y-101694552D01*
X146322891Y-101694552D02*
X146250319Y-101803409D01*
X146250319Y-101803409D02*
X146177748Y-101875981D01*
X146177748Y-101875981D02*
X146105176Y-101912267D01*
X147012319Y-101694552D02*
X147084890Y-101694552D01*
X147084890Y-101694552D02*
X147157462Y-101730838D01*
X147157462Y-101730838D02*
X147193748Y-101767124D01*
X147193748Y-101767124D02*
X147230033Y-101839695D01*
X147230033Y-101839695D02*
X147266319Y-101984838D01*
X147266319Y-101984838D02*
X147266319Y-102166267D01*
X147266319Y-102166267D02*
X147230033Y-102311409D01*
X147230033Y-102311409D02*
X147193748Y-102383981D01*
X147193748Y-102383981D02*
X147157462Y-102420267D01*
X147157462Y-102420267D02*
X147084890Y-102456552D01*
X147084890Y-102456552D02*
X147012319Y-102456552D01*
X147012319Y-102456552D02*
X146939748Y-102420267D01*
X146939748Y-102420267D02*
X146903462Y-102383981D01*
X146903462Y-102383981D02*
X146867176Y-102311409D01*
X146867176Y-102311409D02*
X146830890Y-102166267D01*
X146830890Y-102166267D02*
X146830890Y-101984838D01*
X146830890Y-101984838D02*
X146867176Y-101839695D01*
X146867176Y-101839695D02*
X146903462Y-101767124D01*
X146903462Y-101767124D02*
X146939748Y-101730838D01*
X146939748Y-101730838D02*
X147012319Y-101694552D01*
X143891000Y-107028552D02*
X143637000Y-106665695D01*
X143455571Y-107028552D02*
X143455571Y-106266552D01*
X143455571Y-106266552D02*
X143745857Y-106266552D01*
X143745857Y-106266552D02*
X143818428Y-106302838D01*
X143818428Y-106302838D02*
X143854714Y-106339124D01*
X143854714Y-106339124D02*
X143891000Y-106411695D01*
X143891000Y-106411695D02*
X143891000Y-106520552D01*
X143891000Y-106520552D02*
X143854714Y-106593124D01*
X143854714Y-106593124D02*
X143818428Y-106629409D01*
X143818428Y-106629409D02*
X143745857Y-106665695D01*
X143745857Y-106665695D02*
X143455571Y-106665695D01*
X144181285Y-106339124D02*
X144217571Y-106302838D01*
X144217571Y-106302838D02*
X144290143Y-106266552D01*
X144290143Y-106266552D02*
X144471571Y-106266552D01*
X144471571Y-106266552D02*
X144544143Y-106302838D01*
X144544143Y-106302838D02*
X144580428Y-106339124D01*
X144580428Y-106339124D02*
X144616714Y-106411695D01*
X144616714Y-106411695D02*
X144616714Y-106484267D01*
X144616714Y-106484267D02*
X144580428Y-106593124D01*
X144580428Y-106593124D02*
X144145000Y-107028552D01*
X144145000Y-107028552D02*
X144616714Y-107028552D01*
X151511000Y-104325267D02*
X151619858Y-104361552D01*
X151619858Y-104361552D02*
X151801286Y-104361552D01*
X151801286Y-104361552D02*
X151873858Y-104325267D01*
X151873858Y-104325267D02*
X151910143Y-104288981D01*
X151910143Y-104288981D02*
X151946429Y-104216409D01*
X151946429Y-104216409D02*
X151946429Y-104143838D01*
X151946429Y-104143838D02*
X151910143Y-104071267D01*
X151910143Y-104071267D02*
X151873858Y-104034981D01*
X151873858Y-104034981D02*
X151801286Y-103998695D01*
X151801286Y-103998695D02*
X151656143Y-103962409D01*
X151656143Y-103962409D02*
X151583572Y-103926124D01*
X151583572Y-103926124D02*
X151547286Y-103889838D01*
X151547286Y-103889838D02*
X151511000Y-103817267D01*
X151511000Y-103817267D02*
X151511000Y-103744695D01*
X151511000Y-103744695D02*
X151547286Y-103672124D01*
X151547286Y-103672124D02*
X151583572Y-103635838D01*
X151583572Y-103635838D02*
X151656143Y-103599552D01*
X151656143Y-103599552D02*
X151837572Y-103599552D01*
X151837572Y-103599552D02*
X151946429Y-103635838D01*
X152200429Y-103599552D02*
X152381857Y-104361552D01*
X152381857Y-104361552D02*
X152527000Y-103817267D01*
X152527000Y-103817267D02*
X152672143Y-104361552D01*
X152672143Y-104361552D02*
X152853572Y-103599552D01*
X153543000Y-104361552D02*
X153107571Y-104361552D01*
X153325286Y-104361552D02*
X153325286Y-103599552D01*
X153325286Y-103599552D02*
X153252714Y-103708409D01*
X153252714Y-103708409D02*
X153180143Y-103780981D01*
X153180143Y-103780981D02*
X153107571Y-103817267D01*
X147549767Y-78900529D02*
X147549767Y-78951845D01*
X147549767Y-78951845D02*
X147498451Y-79054476D01*
X147498451Y-79054476D02*
X147447135Y-79105792D01*
X147447135Y-79105792D02*
X147344504Y-79157108D01*
X147344504Y-79157108D02*
X147241872Y-79157108D01*
X147241872Y-79157108D02*
X147164899Y-79131450D01*
X147164899Y-79131450D02*
X147036609Y-79054476D01*
X147036609Y-79054476D02*
X146959636Y-78977502D01*
X146959636Y-78977502D02*
X146882662Y-78849213D01*
X146882662Y-78849213D02*
X146857004Y-78772239D01*
X146857004Y-78772239D02*
X146857004Y-78669608D01*
X146857004Y-78669608D02*
X146908320Y-78566976D01*
X146908320Y-78566976D02*
X146959636Y-78515661D01*
X146959636Y-78515661D02*
X147062267Y-78464345D01*
X147062267Y-78464345D02*
X147113583Y-78464345D01*
X148114240Y-78438687D02*
X147806345Y-78746582D01*
X147960293Y-78592634D02*
X147421477Y-78053819D01*
X147421477Y-78053819D02*
X147447135Y-78182108D01*
X147447135Y-78182108D02*
X147447135Y-78284740D01*
X147447135Y-78284740D02*
X147421477Y-78361713D01*
X148062924Y-77412372D02*
X147806345Y-77668951D01*
X147806345Y-77668951D02*
X148037266Y-77951188D01*
X148037266Y-77951188D02*
X148037266Y-77899872D01*
X148037266Y-77899872D02*
X148062924Y-77822898D01*
X148062924Y-77822898D02*
X148191213Y-77694609D01*
X148191213Y-77694609D02*
X148268187Y-77668951D01*
X148268187Y-77668951D02*
X148319503Y-77668951D01*
X148319503Y-77668951D02*
X148396476Y-77694609D01*
X148396476Y-77694609D02*
X148524766Y-77822898D01*
X148524766Y-77822898D02*
X148550424Y-77899872D01*
X148550424Y-77899872D02*
X148550424Y-77951188D01*
X148550424Y-77951188D02*
X148524766Y-78028161D01*
X148524766Y-78028161D02*
X148396476Y-78156451D01*
X148396476Y-78156451D02*
X148319503Y-78182109D01*
X148319503Y-78182109D02*
X148268187Y-78182109D01*
X154631571Y-108501752D02*
X154631571Y-107739752D01*
X154631571Y-107739752D02*
X154813000Y-107739752D01*
X154813000Y-107739752D02*
X154921857Y-107776038D01*
X154921857Y-107776038D02*
X154994428Y-107848609D01*
X154994428Y-107848609D02*
X155030714Y-107921181D01*
X155030714Y-107921181D02*
X155067000Y-108066324D01*
X155067000Y-108066324D02*
X155067000Y-108175181D01*
X155067000Y-108175181D02*
X155030714Y-108320324D01*
X155030714Y-108320324D02*
X154994428Y-108392895D01*
X154994428Y-108392895D02*
X154921857Y-108465467D01*
X154921857Y-108465467D02*
X154813000Y-108501752D01*
X154813000Y-108501752D02*
X154631571Y-108501752D01*
X155321000Y-107739752D02*
X155792714Y-107739752D01*
X155792714Y-107739752D02*
X155538714Y-108030038D01*
X155538714Y-108030038D02*
X155647571Y-108030038D01*
X155647571Y-108030038D02*
X155720143Y-108066324D01*
X155720143Y-108066324D02*
X155756428Y-108102609D01*
X155756428Y-108102609D02*
X155792714Y-108175181D01*
X155792714Y-108175181D02*
X155792714Y-108356609D01*
X155792714Y-108356609D02*
X155756428Y-108429181D01*
X155756428Y-108429181D02*
X155720143Y-108465467D01*
X155720143Y-108465467D02*
X155647571Y-108501752D01*
X155647571Y-108501752D02*
X155429857Y-108501752D01*
X155429857Y-108501752D02*
X155357285Y-108465467D01*
X155357285Y-108465467D02*
X155321000Y-108429181D01*
X139573000Y-118153752D02*
X139573000Y-117391752D01*
X139573000Y-117391752D02*
X139863286Y-117391752D01*
X139863286Y-117391752D02*
X139935857Y-117428038D01*
X139935857Y-117428038D02*
X139972143Y-117464324D01*
X139972143Y-117464324D02*
X140008429Y-117536895D01*
X140008429Y-117536895D02*
X140008429Y-117645752D01*
X140008429Y-117645752D02*
X139972143Y-117718324D01*
X139972143Y-117718324D02*
X139935857Y-117754609D01*
X139935857Y-117754609D02*
X139863286Y-117790895D01*
X139863286Y-117790895D02*
X139573000Y-117790895D01*
X140589000Y-117754609D02*
X140335000Y-117754609D01*
X140335000Y-118153752D02*
X140335000Y-117391752D01*
X140335000Y-117391752D02*
X140697857Y-117391752D01*
X141242143Y-117754609D02*
X141351000Y-117790895D01*
X141351000Y-117790895D02*
X141387286Y-117827181D01*
X141387286Y-117827181D02*
X141423572Y-117899752D01*
X141423572Y-117899752D02*
X141423572Y-118008609D01*
X141423572Y-118008609D02*
X141387286Y-118081181D01*
X141387286Y-118081181D02*
X141351000Y-118117467D01*
X141351000Y-118117467D02*
X141278429Y-118153752D01*
X141278429Y-118153752D02*
X140988143Y-118153752D01*
X140988143Y-118153752D02*
X140988143Y-117391752D01*
X140988143Y-117391752D02*
X141242143Y-117391752D01*
X141242143Y-117391752D02*
X141314715Y-117428038D01*
X141314715Y-117428038D02*
X141351000Y-117464324D01*
X141351000Y-117464324D02*
X141387286Y-117536895D01*
X141387286Y-117536895D02*
X141387286Y-117609467D01*
X141387286Y-117609467D02*
X141351000Y-117682038D01*
X141351000Y-117682038D02*
X141314715Y-117718324D01*
X141314715Y-117718324D02*
X141242143Y-117754609D01*
X141242143Y-117754609D02*
X140988143Y-117754609D01*
X142149286Y-118153752D02*
X141713857Y-118153752D01*
X141931572Y-118153752D02*
X141931572Y-117391752D01*
X141931572Y-117391752D02*
X141859000Y-117500609D01*
X141859000Y-117500609D02*
X141786429Y-117573181D01*
X141786429Y-117573181D02*
X141713857Y-117609467D01*
X143582571Y-107790552D02*
X143582571Y-108334838D01*
X143582571Y-108334838D02*
X143546286Y-108443695D01*
X143546286Y-108443695D02*
X143473714Y-108516267D01*
X143473714Y-108516267D02*
X143364857Y-108552552D01*
X143364857Y-108552552D02*
X143292286Y-108552552D01*
X143945428Y-108552552D02*
X143945428Y-107790552D01*
X143945428Y-107790552D02*
X144199428Y-108334838D01*
X144199428Y-108334838D02*
X144453428Y-107790552D01*
X144453428Y-107790552D02*
X144453428Y-108552552D01*
X144816285Y-108552552D02*
X144816285Y-107790552D01*
X144816285Y-107790552D02*
X145106571Y-107790552D01*
X145106571Y-107790552D02*
X145179142Y-107826838D01*
X145179142Y-107826838D02*
X145215428Y-107863124D01*
X145215428Y-107863124D02*
X145251714Y-107935695D01*
X145251714Y-107935695D02*
X145251714Y-108044552D01*
X145251714Y-108044552D02*
X145215428Y-108117124D01*
X145215428Y-108117124D02*
X145179142Y-108153409D01*
X145179142Y-108153409D02*
X145106571Y-108189695D01*
X145106571Y-108189695D02*
X144816285Y-108189695D01*
X145977428Y-108552552D02*
X145541999Y-108552552D01*
X145759714Y-108552552D02*
X145759714Y-107790552D01*
X145759714Y-107790552D02*
X145687142Y-107899409D01*
X145687142Y-107899409D02*
X145614571Y-107971981D01*
X145614571Y-107971981D02*
X145541999Y-108008267D01*
X140208748Y-122580609D02*
X139954748Y-122580609D01*
X139954748Y-122979752D02*
X139954748Y-122217752D01*
X139954748Y-122217752D02*
X140317605Y-122217752D01*
X141007034Y-122979752D02*
X140571605Y-122979752D01*
X140789320Y-122979752D02*
X140789320Y-122217752D01*
X140789320Y-122217752D02*
X140716748Y-122326609D01*
X140716748Y-122326609D02*
X140644177Y-122399181D01*
X140644177Y-122399181D02*
X140571605Y-122435467D01*
X151921661Y-81489266D02*
X151665083Y-81745844D01*
X151665083Y-81745844D02*
X151126267Y-81207029D01*
X151588109Y-80847819D02*
X151588109Y-80796503D01*
X151588109Y-80796503D02*
X151613767Y-80719529D01*
X151613767Y-80719529D02*
X151742056Y-80591240D01*
X151742056Y-80591240D02*
X151819030Y-80565582D01*
X151819030Y-80565582D02*
X151870346Y-80565582D01*
X151870346Y-80565582D02*
X151947319Y-80591240D01*
X151947319Y-80591240D02*
X151998635Y-80642556D01*
X151998635Y-80642556D02*
X152049951Y-80745187D01*
X152049951Y-80745187D02*
X152049951Y-81360976D01*
X152049951Y-81360976D02*
X152383503Y-81027424D01*
X154958143Y-88794981D02*
X154921857Y-88831267D01*
X154921857Y-88831267D02*
X154813000Y-88867552D01*
X154813000Y-88867552D02*
X154740428Y-88867552D01*
X154740428Y-88867552D02*
X154631571Y-88831267D01*
X154631571Y-88831267D02*
X154559000Y-88758695D01*
X154559000Y-88758695D02*
X154522714Y-88686124D01*
X154522714Y-88686124D02*
X154486428Y-88540981D01*
X154486428Y-88540981D02*
X154486428Y-88432124D01*
X154486428Y-88432124D02*
X154522714Y-88286981D01*
X154522714Y-88286981D02*
X154559000Y-88214409D01*
X154559000Y-88214409D02*
X154631571Y-88141838D01*
X154631571Y-88141838D02*
X154740428Y-88105552D01*
X154740428Y-88105552D02*
X154813000Y-88105552D01*
X154813000Y-88105552D02*
X154921857Y-88141838D01*
X154921857Y-88141838D02*
X154958143Y-88178124D01*
X155683857Y-88867552D02*
X155248428Y-88867552D01*
X155466143Y-88867552D02*
X155466143Y-88105552D01*
X155466143Y-88105552D02*
X155393571Y-88214409D01*
X155393571Y-88214409D02*
X155321000Y-88286981D01*
X155321000Y-88286981D02*
X155248428Y-88323267D01*
X156337000Y-88105552D02*
X156191857Y-88105552D01*
X156191857Y-88105552D02*
X156119285Y-88141838D01*
X156119285Y-88141838D02*
X156083000Y-88178124D01*
X156083000Y-88178124D02*
X156010428Y-88286981D01*
X156010428Y-88286981D02*
X155974142Y-88432124D01*
X155974142Y-88432124D02*
X155974142Y-88722409D01*
X155974142Y-88722409D02*
X156010428Y-88794981D01*
X156010428Y-88794981D02*
X156046714Y-88831267D01*
X156046714Y-88831267D02*
X156119285Y-88867552D01*
X156119285Y-88867552D02*
X156264428Y-88867552D01*
X156264428Y-88867552D02*
X156337000Y-88831267D01*
X156337000Y-88831267D02*
X156373285Y-88794981D01*
X156373285Y-88794981D02*
X156409571Y-88722409D01*
X156409571Y-88722409D02*
X156409571Y-88540981D01*
X156409571Y-88540981D02*
X156373285Y-88468409D01*
X156373285Y-88468409D02*
X156337000Y-88432124D01*
X156337000Y-88432124D02*
X156264428Y-88395838D01*
X156264428Y-88395838D02*
X156119285Y-88395838D01*
X156119285Y-88395838D02*
X156046714Y-88432124D01*
X156046714Y-88432124D02*
X156010428Y-88468409D01*
X156010428Y-88468409D02*
X155974142Y-88540981D01*
X142675428Y-115664552D02*
X142675428Y-116281409D01*
X142675428Y-116281409D02*
X142711714Y-116353981D01*
X142711714Y-116353981D02*
X142748000Y-116390267D01*
X142748000Y-116390267D02*
X142820571Y-116426552D01*
X142820571Y-116426552D02*
X142965714Y-116426552D01*
X142965714Y-116426552D02*
X143038285Y-116390267D01*
X143038285Y-116390267D02*
X143074571Y-116353981D01*
X143074571Y-116353981D02*
X143110857Y-116281409D01*
X143110857Y-116281409D02*
X143110857Y-115664552D01*
X143872857Y-116426552D02*
X143437428Y-116426552D01*
X143655143Y-116426552D02*
X143655143Y-115664552D01*
X143655143Y-115664552D02*
X143582571Y-115773409D01*
X143582571Y-115773409D02*
X143510000Y-115845981D01*
X143510000Y-115845981D02*
X143437428Y-115882267D01*
X152074176Y-100500752D02*
X152074176Y-101117609D01*
X152074176Y-101117609D02*
X152110462Y-101190181D01*
X152110462Y-101190181D02*
X152146748Y-101226467D01*
X152146748Y-101226467D02*
X152219319Y-101262752D01*
X152219319Y-101262752D02*
X152364462Y-101262752D01*
X152364462Y-101262752D02*
X152437033Y-101226467D01*
X152437033Y-101226467D02*
X152473319Y-101190181D01*
X152473319Y-101190181D02*
X152509605Y-101117609D01*
X152509605Y-101117609D02*
X152509605Y-100500752D01*
X152799891Y-100500752D02*
X153271605Y-100500752D01*
X153271605Y-100500752D02*
X153017605Y-100791038D01*
X153017605Y-100791038D02*
X153126462Y-100791038D01*
X153126462Y-100791038D02*
X153199034Y-100827324D01*
X153199034Y-100827324D02*
X153235319Y-100863609D01*
X153235319Y-100863609D02*
X153271605Y-100936181D01*
X153271605Y-100936181D02*
X153271605Y-101117609D01*
X153271605Y-101117609D02*
X153235319Y-101190181D01*
X153235319Y-101190181D02*
X153199034Y-101226467D01*
X153199034Y-101226467D02*
X153126462Y-101262752D01*
X153126462Y-101262752D02*
X152908748Y-101262752D01*
X152908748Y-101262752D02*
X152836176Y-101226467D01*
X152836176Y-101226467D02*
X152799891Y-101190181D01*
X147374428Y-92423552D02*
X147374428Y-93040409D01*
X147374428Y-93040409D02*
X147410714Y-93112981D01*
X147410714Y-93112981D02*
X147447000Y-93149267D01*
X147447000Y-93149267D02*
X147519571Y-93185552D01*
X147519571Y-93185552D02*
X147664714Y-93185552D01*
X147664714Y-93185552D02*
X147737285Y-93149267D01*
X147737285Y-93149267D02*
X147773571Y-93112981D01*
X147773571Y-93112981D02*
X147809857Y-93040409D01*
X147809857Y-93040409D02*
X147809857Y-92423552D01*
X148136428Y-92496124D02*
X148172714Y-92459838D01*
X148172714Y-92459838D02*
X148245286Y-92423552D01*
X148245286Y-92423552D02*
X148426714Y-92423552D01*
X148426714Y-92423552D02*
X148499286Y-92459838D01*
X148499286Y-92459838D02*
X148535571Y-92496124D01*
X148535571Y-92496124D02*
X148571857Y-92568695D01*
X148571857Y-92568695D02*
X148571857Y-92641267D01*
X148571857Y-92641267D02*
X148535571Y-92750124D01*
X148535571Y-92750124D02*
X148100143Y-93185552D01*
X148100143Y-93185552D02*
X148571857Y-93185552D01*
D13*
%TO.C,C11*%
X149752912Y-100681200D02*
X149968584Y-100681200D01*
X149752912Y-101401200D02*
X149968584Y-101401200D01*
%TO.C,C12*%
X155342748Y-80448036D02*
X155342748Y-80232364D01*
X156062748Y-80448036D02*
X156062748Y-80232364D01*
%TO.C,C7*%
X143905328Y-80084200D02*
X143624168Y-80084200D01*
X143905328Y-81104200D02*
X143624168Y-81104200D01*
%TO.C,C9*%
X155340912Y-90013200D02*
X155556584Y-90013200D01*
X155340912Y-90733200D02*
X155556584Y-90733200D01*
%TO.C,R1*%
X152198389Y-106376200D02*
X151891107Y-106376200D01*
X152198389Y-107136200D02*
X151891107Y-107136200D01*
%TO.C,C4*%
X152700748Y-110331364D02*
X152700748Y-110547036D01*
X153420748Y-110331364D02*
X153420748Y-110547036D01*
%TO.C,J1*%
X144307748Y-126923200D02*
X144307748Y-129413200D01*
X146452748Y-124483200D02*
X147252748Y-124483200D01*
X146852748Y-124933200D02*
X146452748Y-124483200D01*
X147252748Y-124483200D02*
X146852748Y-124933200D01*
X151997748Y-126923200D02*
X151997748Y-129413200D01*
%TO.C,C14*%
X143905328Y-103706200D02*
X143624168Y-103706200D01*
X143905328Y-104726200D02*
X143624168Y-104726200D01*
%TO.C,D1*%
X146124748Y-119091200D02*
X142114748Y-119091200D01*
X146124748Y-121091200D02*
X142114748Y-121091200D01*
X146124748Y-121091200D02*
X146124748Y-119091200D01*
%TO.C,C17*%
X155469748Y-83242036D02*
X155469748Y-83026364D01*
X156189748Y-83242036D02*
X156189748Y-83026364D01*
%TO.C,C6*%
X141078584Y-87219200D02*
X140862912Y-87219200D01*
X141078584Y-87939200D02*
X140862912Y-87939200D01*
%TO.C,C8*%
X145436748Y-80448036D02*
X145436748Y-80232364D01*
X146156748Y-80448036D02*
X146156748Y-80232364D01*
%TO.C,L1*%
X149148938Y-80137507D02*
X149301441Y-80290010D01*
X149658055Y-79628390D02*
X149810558Y-79780893D01*
%TO.C,C5*%
X151026748Y-110552620D02*
X151026748Y-110833780D01*
X152046748Y-110552620D02*
X152046748Y-110833780D01*
%TO.C,C2*%
X151026748Y-114897780D02*
X151026748Y-114616620D01*
X152046748Y-114897780D02*
X152046748Y-114616620D01*
%TO.C,D2*%
X147284748Y-120711200D02*
X147284748Y-122011200D01*
X150404748Y-122011200D02*
X150404748Y-120741200D01*
X150684748Y-120601200D02*
X150354748Y-120361200D01*
X150684748Y-120121200D01*
X150684748Y-120601200D01*
G36*
X150684748Y-120601200D02*
G01*
X150354748Y-120361200D01*
X150684748Y-120121200D01*
X150684748Y-120601200D01*
G37*
%TO.C,J3*%
X158182748Y-73422200D02*
X159512748Y-73422200D01*
X158182748Y-74752200D02*
X158182748Y-73422200D01*
X158182748Y-76022200D02*
X158182748Y-129422200D01*
X158182748Y-76022200D02*
X160842748Y-76022200D01*
X158182748Y-129422200D02*
X160842748Y-129422200D01*
X160842748Y-76022200D02*
X160842748Y-129422200D01*
%TO.C,C3*%
X152700748Y-115246036D02*
X152700748Y-115030364D01*
X153420748Y-115246036D02*
X153420748Y-115030364D01*
%TO.C,C1*%
X147085912Y-117445200D02*
X147301584Y-117445200D01*
X147085912Y-118165200D02*
X147301584Y-118165200D01*
%TO.C,C13*%
X153922748Y-80226780D02*
X153922748Y-79945620D01*
X154942748Y-80226780D02*
X154942748Y-79945620D01*
%TO.C,J2*%
X135322748Y-73422200D02*
X136652748Y-73422200D01*
X135322748Y-74752200D02*
X135322748Y-73422200D01*
X135322748Y-76022200D02*
X135322748Y-129422200D01*
X135322748Y-76022200D02*
X137982748Y-76022200D01*
X135322748Y-129422200D02*
X137982748Y-129422200D01*
X137982748Y-76022200D02*
X137982748Y-129422200D01*
%TO.C,C10*%
X146412584Y-100681200D02*
X146196912Y-100681200D01*
X146412584Y-101401200D02*
X146196912Y-101401200D01*
%TO.C,R2*%
X143865107Y-105233200D02*
X144172389Y-105233200D01*
X143865107Y-105993200D02*
X144172389Y-105993200D01*
%TO.C,SW1*%
X146080748Y-103535200D02*
X150220748Y-103535200D01*
X146080748Y-103835200D02*
X146080748Y-103535200D01*
X146080748Y-106675200D02*
X146080748Y-106375200D01*
X150220748Y-103535200D02*
X150220748Y-103835200D01*
X150220748Y-106375200D02*
X150220748Y-106675200D01*
X150220748Y-106675200D02*
X146080748Y-106675200D01*
%TO.C,C15*%
X148513938Y-78383893D02*
X148666441Y-78231390D01*
X149023055Y-78893010D02*
X149175558Y-78740507D01*
%TO.C,D3*%
X151498748Y-108888200D02*
X153783748Y-108888200D01*
X153783748Y-107418200D02*
X151498748Y-107418200D01*
X153783748Y-108888200D02*
X153783748Y-107418200D01*
%TO.C,PFB1*%
X144513168Y-117295200D02*
X144794328Y-117295200D01*
X144513168Y-118315200D02*
X144794328Y-118315200D01*
%TO.C,JMP1*%
X148599006Y-107630700D02*
X148124490Y-107630700D01*
X148599006Y-108675700D02*
X148124490Y-108675700D01*
%TO.C,F1*%
X144366812Y-121721200D02*
X143162684Y-121721200D01*
X144366812Y-123541200D02*
X143162684Y-123541200D01*
%TO.C,L2*%
X150545938Y-80415893D02*
X150698441Y-80263390D01*
X151055055Y-80925010D02*
X151207558Y-80772507D01*
%TO.C,Y1*%
X153717748Y-84397200D02*
X153717748Y-86697200D01*
X153717748Y-86697200D02*
X156417748Y-86697200D01*
%TO.C,C16*%
X155340912Y-87092200D02*
X155556584Y-87092200D01*
X155340912Y-87812200D02*
X155556584Y-87812200D01*
%TO.C,U1*%
X144165748Y-109315200D02*
X144165748Y-110575200D01*
X144165748Y-116135200D02*
X144165748Y-114875200D01*
X147925748Y-109315200D02*
X144165748Y-109315200D01*
X147925748Y-116135200D02*
X144165748Y-116135200D01*
X149445748Y-116365200D02*
X148965748Y-116365200D01*
X149205748Y-116035200D01*
X149445748Y-116365200D01*
G36*
X149445748Y-116365200D02*
G01*
X148965748Y-116365200D01*
X149205748Y-116035200D01*
X149445748Y-116365200D01*
G37*
%TO.C,U3*%
X145376748Y-94506200D02*
X145376748Y-94766200D01*
X145376748Y-99956200D02*
X145376748Y-99696200D01*
X148126748Y-94506200D02*
X145376748Y-94506200D01*
X148126748Y-94506200D02*
X150876748Y-94506200D01*
X148126748Y-99956200D02*
X145376748Y-99956200D01*
X148126748Y-99956200D02*
X150876748Y-99956200D01*
X150876748Y-94506200D02*
X150876748Y-94766200D01*
X150876748Y-99956200D02*
X150876748Y-99696200D01*
X151886748Y-100026200D02*
X151406748Y-100026200D01*
X151646748Y-99696200D01*
X151886748Y-100026200D01*
G36*
X151886748Y-100026200D02*
G01*
X151406748Y-100026200D01*
X151646748Y-99696200D01*
X151886748Y-100026200D01*
G37*
%TO.C,U2*%
X144404748Y-84542200D02*
X145054748Y-84542200D01*
X144404748Y-85192200D02*
X144404748Y-84542200D01*
X144404748Y-91112200D02*
X144404748Y-91762200D01*
X144404748Y-91762200D02*
X145054748Y-91762200D01*
X150974748Y-84542200D02*
X151384748Y-84542200D01*
X151624748Y-85192200D02*
X151624748Y-84842200D01*
X151624748Y-91112200D02*
X151624748Y-91762200D01*
X151624748Y-91762200D02*
X150974748Y-91762200D01*
X151954748Y-84782200D02*
X151624748Y-84542200D01*
X151954748Y-84302200D01*
X151954748Y-84782200D01*
G36*
X151954748Y-84782200D02*
G01*
X151624748Y-84542200D01*
X151954748Y-84302200D01*
X151954748Y-84782200D01*
G37*
%TD*%
%LPC*%
D14*
%TO.C,C11*%
X149380748Y-101041200D03*
X150340748Y-101041200D03*
%TD*%
D15*
%TO.C,C12*%
X155702748Y-80820200D03*
X155702748Y-79860200D03*
%TD*%
D16*
%TO.C,C7*%
X144539748Y-80594200D03*
X142989748Y-80594200D03*
%TD*%
D14*
%TO.C,C9*%
X154968748Y-90373200D03*
X155928748Y-90373200D03*
%TD*%
D17*
%TO.C,R1*%
X152554748Y-106756200D03*
X151534748Y-106756200D03*
%TD*%
D18*
%TO.C,C4*%
X153060748Y-109959200D03*
X153060748Y-110919200D03*
%TD*%
D19*
%TO.C,J1*%
X146152748Y-126123200D03*
X150152748Y-126123200D03*
D20*
X146852748Y-125798200D03*
X147502748Y-125798200D03*
X148152748Y-125798200D03*
X148802748Y-125798200D03*
X149452748Y-125798200D03*
D21*
X145052748Y-125923200D03*
D22*
X145327748Y-128473200D03*
D23*
X146952748Y-128473200D03*
X149352748Y-128473200D03*
D24*
X150977748Y-128473200D03*
D25*
X151252748Y-125923200D03*
%TD*%
D16*
%TO.C,C14*%
X144539748Y-104216200D03*
X142989748Y-104216200D03*
%TD*%
D26*
%TO.C,D1*%
X145414748Y-120091200D03*
X142114748Y-120091200D03*
%TD*%
D15*
%TO.C,C17*%
X155829748Y-83614200D03*
X155829748Y-82654200D03*
%TD*%
D27*
%TO.C,C6*%
X141450748Y-87579200D03*
X140490748Y-87579200D03*
%TD*%
D28*
%TO.C,AE1*%
X143382000Y-76930000D03*
D29*
X141147000Y-76930000D03*
%TD*%
D15*
%TO.C,C8*%
X145796748Y-80820200D03*
X145796748Y-79860200D03*
%TD*%
D30*
%TO.C,L1*%
X149140337Y-79619789D03*
X149819159Y-80298611D03*
%TD*%
D31*
%TO.C,C5*%
X151536748Y-109918200D03*
X151536748Y-111468200D03*
%TD*%
D32*
%TO.C,C2*%
X151536748Y-115532200D03*
X151536748Y-113982200D03*
%TD*%
D33*
%TO.C,D2*%
X149594748Y-120361200D03*
D34*
X147894748Y-120361200D03*
X147894748Y-122361200D03*
X149794748Y-122361200D03*
%TD*%
D35*
%TO.C,J3*%
X159512748Y-74752200D03*
D36*
X159512748Y-77292200D03*
X159512748Y-79832200D03*
X159512748Y-82372200D03*
X159512748Y-84912200D03*
X159512748Y-87452200D03*
X159512748Y-89992200D03*
X159512748Y-92532200D03*
X159512748Y-95072200D03*
X159512748Y-97612200D03*
X159512748Y-100152200D03*
X159512748Y-102692200D03*
X159512748Y-105232200D03*
X159512748Y-107772200D03*
X159512748Y-110312200D03*
X159512748Y-112852200D03*
X159512748Y-115392200D03*
X159512748Y-117932200D03*
X159512748Y-120472200D03*
X159512748Y-123012200D03*
X159512748Y-125552200D03*
X159512748Y-128092200D03*
%TD*%
D15*
%TO.C,C3*%
X153060748Y-115618200D03*
X153060748Y-114658200D03*
%TD*%
D14*
%TO.C,C1*%
X146713748Y-117805200D03*
X147673748Y-117805200D03*
%TD*%
D32*
%TO.C,C13*%
X154432748Y-80861200D03*
X154432748Y-79311200D03*
%TD*%
D35*
%TO.C,J2*%
X136652748Y-74752200D03*
D36*
X136652748Y-77292200D03*
X136652748Y-79832200D03*
X136652748Y-82372200D03*
X136652748Y-84912200D03*
X136652748Y-87452200D03*
X136652748Y-89992200D03*
X136652748Y-92532200D03*
X136652748Y-95072200D03*
X136652748Y-97612200D03*
X136652748Y-100152200D03*
X136652748Y-102692200D03*
X136652748Y-105232200D03*
X136652748Y-107772200D03*
X136652748Y-110312200D03*
X136652748Y-112852200D03*
X136652748Y-115392200D03*
X136652748Y-117932200D03*
X136652748Y-120472200D03*
X136652748Y-123012200D03*
X136652748Y-125552200D03*
X136652748Y-128092200D03*
%TD*%
D27*
%TO.C,C10*%
X146784748Y-101041200D03*
X145824748Y-101041200D03*
%TD*%
D37*
%TO.C,R2*%
X143508748Y-105613200D03*
X144528748Y-105613200D03*
%TD*%
D38*
%TO.C,SW1*%
X150250748Y-105105200D03*
X146050748Y-105105200D03*
%TD*%
D39*
%TO.C,C15*%
X148505337Y-78901611D03*
X149184159Y-78222789D03*
%TD*%
D40*
%TO.C,D3*%
X153086248Y-108153200D03*
X151511248Y-108153200D03*
%TD*%
D41*
%TO.C,PFB1*%
X143878748Y-117805200D03*
X145428748Y-117805200D03*
%TD*%
D42*
%TO.C,JMP1*%
X149186748Y-108153200D03*
X147536748Y-108153200D03*
%TD*%
D43*
%TO.C,F1*%
X145252248Y-122631200D03*
X142277248Y-122631200D03*
%TD*%
D39*
%TO.C,L2*%
X150537337Y-80933611D03*
X151216159Y-80254789D03*
%TD*%
D44*
%TO.C,Y1*%
X154367748Y-86097200D03*
X155767748Y-86097200D03*
X155767748Y-84997200D03*
X154367748Y-84997200D03*
%TD*%
D14*
%TO.C,C16*%
X154968748Y-87452200D03*
X155928748Y-87452200D03*
%TD*%
D45*
%TO.C,U1*%
X149225748Y-115025200D03*
X149225748Y-112725200D03*
X149225748Y-110425200D03*
D46*
X142925748Y-112725200D03*
%TD*%
D47*
%TO.C,U3*%
X151726748Y-99136200D03*
X151726748Y-97866200D03*
X151726748Y-96596200D03*
X151726748Y-95326200D03*
X144526748Y-95326200D03*
X144526748Y-96596200D03*
X144526748Y-97866200D03*
X144526748Y-99136200D03*
%TD*%
D48*
%TO.C,U2*%
X150614748Y-84714700D03*
X150214748Y-84714700D03*
X149814748Y-84714700D03*
X149414748Y-84714700D03*
X149014748Y-84714700D03*
X148614748Y-84714700D03*
X148214748Y-84714700D03*
X147814748Y-84714700D03*
X147414748Y-84714700D03*
X147014748Y-84714700D03*
X146614748Y-84714700D03*
X146214748Y-84714700D03*
X145814748Y-84714700D03*
X145414748Y-84714700D03*
D49*
X144577248Y-85552200D03*
X144577248Y-85952200D03*
X144577248Y-86352200D03*
X144577248Y-86752200D03*
X144577248Y-87152200D03*
X144577248Y-87552200D03*
X144577248Y-87952200D03*
X144577248Y-88352200D03*
X144577248Y-88752200D03*
X144577248Y-89152200D03*
X144577248Y-89552200D03*
X144577248Y-89952200D03*
X144577248Y-90352200D03*
X144577248Y-90752200D03*
D48*
X145414748Y-91589700D03*
X145814748Y-91589700D03*
X146214748Y-91589700D03*
X146614748Y-91589700D03*
X147014748Y-91589700D03*
X147414748Y-91589700D03*
X147814748Y-91589700D03*
X148214748Y-91589700D03*
X148614748Y-91589700D03*
X149014748Y-91589700D03*
X149414748Y-91589700D03*
X149814748Y-91589700D03*
X150214748Y-91589700D03*
X150614748Y-91589700D03*
D49*
X151452248Y-90752200D03*
X151452248Y-90352200D03*
X151452248Y-89952200D03*
X151452248Y-89552200D03*
X151452248Y-89152200D03*
X151452248Y-88752200D03*
X151452248Y-88352200D03*
X151452248Y-87952200D03*
X151452248Y-87552200D03*
X151452248Y-87152200D03*
X151452248Y-86752200D03*
X151452248Y-86352200D03*
X151452248Y-85952200D03*
X151452248Y-85552200D03*
D50*
X148014748Y-88152200D03*
%TD*%
%LPD*%
M02*
