%TF.GenerationSoftware,KiCad,Pcbnew,8.0.8*%
%TF.CreationDate,2025-04-17T09:07:27-03:00*%
%TF.ProjectId,ESP32_DevBoard_Minimal_Electgpl,45535033-325f-4446-9576-426f6172645f,rev?*%
%TF.SameCoordinates,Original*%
%TF.FileFunction,Copper,L1,Top*%
%TF.FilePolarity,Positive*%
%FSLAX46Y46*%
G04 Gerber Fmt 4.6, Leading zero omitted, Abs format (unit mm)*
G04 Created by KiCad (PCBNEW 8.0.8) date 2025-04-17 09:07:27*
%MOMM*%
%LPD*%
G01*
G04 APERTURE LIST*
G04 Aperture macros list*
%AMRoundRect*
0 Rectangle with rounded corners*
0 $1 Rounding radius*
0 $2 $3 $4 $5 $6 $7 $8 $9 X,Y pos of 4 corners*
0 Add a 4 corners polygon primitive as box body*
4,1,4,$2,$3,$4,$5,$6,$7,$8,$9,$2,$3,0*
0 Add four circle primitives for the rounded corners*
1,1,$1+$1,$2,$3*
1,1,$1+$1,$4,$5*
1,1,$1+$1,$6,$7*
1,1,$1+$1,$8,$9*
0 Add four rect primitives between the rounded corners*
20,1,$1+$1,$2,$3,$4,$5,0*
20,1,$1+$1,$4,$5,$6,$7,0*
20,1,$1+$1,$6,$7,$8,$9,0*
20,1,$1+$1,$8,$9,$2,$3,0*%
%AMFreePoly0*
4,1,9,1.050000,0.350000,0.550000,0.000000,0.550000,-0.400000,0.800000,-0.650000,0.800000,-0.800000,-1.050000,-0.800000,-1.050000,0.800000,1.050000,0.800000,1.050000,0.350000,1.050000,0.350000,$1*%
%AMFreePoly1*
4,1,9,1.050000,-0.800000,-0.800000,-0.800000,-0.800000,-0.650000,-0.550000,-0.400000,-0.550000,0.000000,-1.050000,0.350000,-1.050000,0.800000,1.050000,0.800000,1.050000,-0.800000,1.050000,-0.800000,$1*%
G04 Aperture macros list end*
%TA.AperFunction,Conductor*%
%ADD10C,0.200000*%
%TD*%
%TA.AperFunction,EtchedComponent*%
%ADD11C,0.000000*%
%TD*%
%TA.AperFunction,SMDPad,CuDef*%
%ADD12RoundRect,0.140000X-0.140000X-0.170000X0.140000X-0.170000X0.140000X0.170000X-0.140000X0.170000X0*%
%TD*%
%TA.AperFunction,SMDPad,CuDef*%
%ADD13RoundRect,0.140000X0.170000X-0.140000X0.170000X0.140000X-0.170000X0.140000X-0.170000X-0.140000X0*%
%TD*%
%TA.AperFunction,SMDPad,CuDef*%
%ADD14RoundRect,0.225000X0.225000X0.250000X-0.225000X0.250000X-0.225000X-0.250000X0.225000X-0.250000X0*%
%TD*%
%TA.AperFunction,SMDPad,CuDef*%
%ADD15RoundRect,0.135000X0.135000X0.185000X-0.135000X0.185000X-0.135000X-0.185000X0.135000X-0.185000X0*%
%TD*%
%TA.AperFunction,SMDPad,CuDef*%
%ADD16RoundRect,0.140000X-0.170000X0.140000X-0.170000X-0.140000X0.170000X-0.140000X0.170000X0.140000X0*%
%TD*%
%TA.AperFunction,SMDPad,CuDef*%
%ADD17R,0.400000X1.350000*%
%TD*%
%TA.AperFunction,SMDPad,CuDef*%
%ADD18FreePoly0,0.000000*%
%TD*%
%TA.AperFunction,HeatsinkPad*%
%ADD19O,1.000000X1.700000*%
%TD*%
%TA.AperFunction,SMDPad,CuDef*%
%ADD20R,1.900000X1.900000*%
%TD*%
%TA.AperFunction,HeatsinkPad*%
%ADD21O,0.850000X1.700000*%
%TD*%
%TA.AperFunction,SMDPad,CuDef*%
%ADD22FreePoly1,0.000000*%
%TD*%
%TA.AperFunction,SMDPad,CuDef*%
%ADD23RoundRect,0.225000X0.225000X0.375000X-0.225000X0.375000X-0.225000X-0.375000X0.225000X-0.375000X0*%
%TD*%
%TA.AperFunction,SMDPad,CuDef*%
%ADD24RoundRect,0.140000X0.140000X0.170000X-0.140000X0.170000X-0.140000X-0.170000X0.140000X-0.170000X0*%
%TD*%
%TA.AperFunction,SMDPad,CuDef*%
%ADD25R,0.500000X0.500000*%
%TD*%
%TA.AperFunction,SMDPad,CuDef*%
%ADD26R,0.630000X0.500000*%
%TD*%
%TA.AperFunction,SMDPad,CuDef*%
%ADD27RoundRect,0.140000X-0.219203X-0.021213X-0.021213X-0.219203X0.219203X0.021213X0.021213X0.219203X0*%
%TD*%
%TA.AperFunction,SMDPad,CuDef*%
%ADD28RoundRect,0.225000X-0.250000X0.225000X-0.250000X-0.225000X0.250000X-0.225000X0.250000X0.225000X0*%
%TD*%
%TA.AperFunction,SMDPad,CuDef*%
%ADD29RoundRect,0.225000X0.250000X-0.225000X0.250000X0.225000X-0.250000X0.225000X-0.250000X-0.225000X0*%
%TD*%
%TA.AperFunction,SMDPad,CuDef*%
%ADD30RoundRect,0.175000X-0.325000X0.175000X-0.325000X-0.175000X0.325000X-0.175000X0.325000X0.175000X0*%
%TD*%
%TA.AperFunction,SMDPad,CuDef*%
%ADD31RoundRect,0.150000X-0.150000X0.200000X-0.150000X-0.200000X0.150000X-0.200000X0.150000X0.200000X0*%
%TD*%
%TA.AperFunction,ComponentPad*%
%ADD32R,1.700000X1.700000*%
%TD*%
%TA.AperFunction,ComponentPad*%
%ADD33O,1.700000X1.700000*%
%TD*%
%TA.AperFunction,SMDPad,CuDef*%
%ADD34RoundRect,0.135000X-0.135000X-0.185000X0.135000X-0.185000X0.135000X0.185000X-0.135000X0.185000X0*%
%TD*%
%TA.AperFunction,SMDPad,CuDef*%
%ADD35RoundRect,0.200000X0.200000X0.800000X-0.200000X0.800000X-0.200000X-0.800000X0.200000X-0.800000X0*%
%TD*%
%TA.AperFunction,SMDPad,CuDef*%
%ADD36RoundRect,0.140000X0.021213X-0.219203X0.219203X-0.021213X-0.021213X0.219203X-0.219203X0.021213X0*%
%TD*%
%TA.AperFunction,SMDPad,CuDef*%
%ADD37RoundRect,0.218750X0.218750X0.256250X-0.218750X0.256250X-0.218750X-0.256250X0.218750X-0.256250X0*%
%TD*%
%TA.AperFunction,SMDPad,CuDef*%
%ADD38RoundRect,0.225000X-0.225000X-0.250000X0.225000X-0.250000X0.225000X0.250000X-0.225000X0.250000X0*%
%TD*%
%TA.AperFunction,SMDPad,CuDef*%
%ADD39RoundRect,0.200000X0.200000X0.275000X-0.200000X0.275000X-0.200000X-0.275000X0.200000X-0.275000X0*%
%TD*%
%TA.AperFunction,SMDPad,CuDef*%
%ADD40RoundRect,0.250001X0.462499X0.624999X-0.462499X0.624999X-0.462499X-0.624999X0.462499X-0.624999X0*%
%TD*%
%TA.AperFunction,SMDPad,CuDef*%
%ADD41R,0.900000X0.800000*%
%TD*%
%TA.AperFunction,SMDPad,CuDef*%
%ADD42RoundRect,0.375000X0.625000X0.375000X-0.625000X0.375000X-0.625000X-0.375000X0.625000X-0.375000X0*%
%TD*%
%TA.AperFunction,SMDPad,CuDef*%
%ADD43RoundRect,0.500000X0.500000X1.400000X-0.500000X1.400000X-0.500000X-1.400000X0.500000X-1.400000X0*%
%TD*%
%TA.AperFunction,SMDPad,CuDef*%
%ADD44RoundRect,0.150000X0.650000X0.150000X-0.650000X0.150000X-0.650000X-0.150000X0.650000X-0.150000X0*%
%TD*%
%TA.AperFunction,SMDPad,CuDef*%
%ADD45RoundRect,0.050000X-0.050000X0.387500X-0.050000X-0.387500X0.050000X-0.387500X0.050000X0.387500X0*%
%TD*%
%TA.AperFunction,SMDPad,CuDef*%
%ADD46RoundRect,0.050000X-0.387500X0.050000X-0.387500X-0.050000X0.387500X-0.050000X0.387500X0.050000X0*%
%TD*%
%TA.AperFunction,HeatsinkPad*%
%ADD47R,5.600000X5.600000*%
%TD*%
%TA.AperFunction,ViaPad*%
%ADD48C,0.600000*%
%TD*%
%TA.AperFunction,Conductor*%
%ADD49C,0.508000*%
%TD*%
%TA.AperFunction,Conductor*%
%ADD50C,0.152400*%
%TD*%
%TA.AperFunction,Conductor*%
%ADD51C,0.203200*%
%TD*%
%TA.AperFunction,Conductor*%
%ADD52C,0.406400*%
%TD*%
G04 APERTURE END LIST*
D10*
%TO.N,RAW*%
X145161000Y-120590541D02*
X144869398Y-120590541D01*
X144869398Y-119594697D01*
X145161000Y-119594697D01*
X145161000Y-120590541D01*
%TA.AperFunction,Conductor*%
G36*
X145161000Y-120590541D02*
G01*
X144869398Y-120590541D01*
X144869398Y-119594697D01*
X145161000Y-119594697D01*
X145161000Y-120590541D01*
G37*
%TD.AperFunction*%
%TO.N,Net-(D1-A)*%
X142671185Y-120594656D02*
X142367000Y-120594656D01*
X142367000Y-119590583D01*
X142671185Y-119590583D01*
X142671185Y-120594656D01*
%TA.AperFunction,Conductor*%
G36*
X142671185Y-120594656D02*
G01*
X142367000Y-120594656D01*
X142367000Y-119590583D01*
X142671185Y-119590583D01*
X142671185Y-120594656D01*
G37*
%TD.AperFunction*%
%TO.N,GND*%
X140208000Y-77089000D02*
X142494000Y-77089000D01*
X142494000Y-77851000D01*
X140208000Y-77851000D01*
X140208000Y-77089000D01*
%TA.AperFunction,Conductor*%
G36*
X140208000Y-77089000D02*
G01*
X142494000Y-77089000D01*
X142494000Y-77851000D01*
X140208000Y-77851000D01*
X140208000Y-77089000D01*
G37*
%TD.AperFunction*%
D11*
%TA.AperFunction,EtchedComponent*%
%TD*%
%TO.C,AE1*%
G36*
X145832000Y-74410000D02*
G01*
X145832000Y-74470000D01*
X147832000Y-74470000D01*
X147832000Y-71770000D01*
X150632000Y-71770000D01*
X150632000Y-74470000D01*
X152632000Y-74470000D01*
X152632000Y-71770000D01*
X155332000Y-71770000D01*
X155332000Y-76440000D01*
X154832000Y-76440000D01*
X154832000Y-72270000D01*
X153132000Y-72270000D01*
X153132000Y-74970000D01*
X150132000Y-74970000D01*
X150132000Y-72270000D01*
X148332000Y-72270000D01*
X148332000Y-74970000D01*
X145332000Y-74970000D01*
X145332000Y-72270000D01*
X143632000Y-72270000D01*
X143632000Y-77180000D01*
X143132000Y-77180000D01*
X143132000Y-72270000D01*
X141462000Y-72270000D01*
X141462000Y-77180000D01*
X140832000Y-77180000D01*
X140832000Y-76948392D01*
X140832000Y-76926785D01*
X141134417Y-76926785D01*
X141144258Y-76974395D01*
X141168326Y-77016797D01*
X141206269Y-77049581D01*
X141214181Y-77053935D01*
X141256844Y-77066043D01*
X141305363Y-77065300D01*
X141350878Y-77052400D01*
X141369489Y-77041787D01*
X141403132Y-77006553D01*
X141423691Y-76961368D01*
X141430222Y-76911842D01*
X141421782Y-76863583D01*
X141404888Y-76831357D01*
X141369628Y-76798687D01*
X141324318Y-76778592D01*
X141274733Y-76772018D01*
X141226647Y-76779908D01*
X141193755Y-76796814D01*
X141158815Y-76833584D01*
X141139153Y-76878378D01*
X141134417Y-76926785D01*
X140832000Y-76926785D01*
X140832000Y-71770000D01*
X145832000Y-71770000D01*
X145832000Y-74410000D01*
G37*
%TD.AperFunction*%
D12*
%TO.P,C11,1*%
%TO.N,VDD_SPI*%
X149380748Y-101041200D03*
%TO.P,C11,2*%
%TO.N,GND*%
X150340748Y-101041200D03*
%TD*%
D13*
%TO.P,C12,1*%
%TO.N,+3.3V*%
X155702748Y-80820200D03*
%TO.P,C12,2*%
%TO.N,GND*%
X155702748Y-79860200D03*
%TD*%
D14*
%TO.P,C7,1*%
%TO.N,+3.3V*%
X144539748Y-80594200D03*
%TO.P,C7,2*%
%TO.N,GND*%
X142989748Y-80594200D03*
%TD*%
D12*
%TO.P,C9,1*%
%TO.N,+3.3V*%
X154968748Y-90373200D03*
%TO.P,C9,2*%
%TO.N,GND*%
X155928748Y-90373200D03*
%TD*%
D15*
%TO.P,R1,1*%
%TO.N,+3.3V*%
X152554748Y-106756200D03*
%TO.P,R1,2*%
%TO.N,Net-(D3-A)*%
X151534748Y-106756200D03*
%TD*%
D16*
%TO.P,C4,1*%
%TO.N,Net-(U1-VO)*%
X153060748Y-109959200D03*
%TO.P,C4,2*%
%TO.N,GND*%
X153060748Y-110919200D03*
%TD*%
D17*
%TO.P,J1,1,VBUS*%
%TO.N,VBUS*%
X146852748Y-125798200D03*
%TO.P,J1,2,D-*%
%TO.N,D_M*%
X147502748Y-125798200D03*
%TO.P,J1,3,D+*%
%TO.N,D_P*%
X148152748Y-125798200D03*
%TO.P,J1,4,ID*%
%TO.N,unconnected-(J1-ID-Pad4)*%
X148802748Y-125798200D03*
%TO.P,J1,5,GND*%
%TO.N,GND*%
X149452748Y-125798200D03*
D18*
%TO.P,J1,6,Shield*%
X145052748Y-125923200D03*
D19*
X145327748Y-128473200D03*
D20*
X146952748Y-128473200D03*
X149352748Y-128473200D03*
D21*
X150977748Y-128473200D03*
D22*
X151252748Y-125923200D03*
%TD*%
D14*
%TO.P,C14,1*%
%TO.N,CHIP_PU*%
X144539748Y-104216200D03*
%TO.P,C14,2*%
%TO.N,GND*%
X142989748Y-104216200D03*
%TD*%
D23*
%TO.P,D1,1,K*%
%TO.N,RAW*%
X145414748Y-120091200D03*
%TO.P,D1,2,A*%
%TO.N,Net-(D1-A)*%
X142114748Y-120091200D03*
%TD*%
D13*
%TO.P,C17,1*%
%TO.N,Net-(U2-XTAL_P)*%
X155829748Y-83614200D03*
%TO.P,C17,2*%
%TO.N,GND*%
X155829748Y-82654200D03*
%TD*%
D24*
%TO.P,C6,1*%
%TO.N,+3.3V*%
X141450748Y-87579200D03*
%TO.P,C6,2*%
%TO.N,GND*%
X140490748Y-87579200D03*
%TD*%
D25*
%TO.P,AE1,1,A*%
%TO.N,Net-(AE1-A)*%
X143382000Y-76930000D03*
D26*
%TO.P,AE1,2,Shield*%
%TO.N,GND*%
X141147000Y-76930000D03*
%TD*%
D13*
%TO.P,C8,1*%
%TO.N,+3.3V*%
X145796748Y-80820200D03*
%TO.P,C8,2*%
%TO.N,GND*%
X145796748Y-79860200D03*
%TD*%
D27*
%TO.P,L1,1,1*%
%TO.N,Net-(AE1-A)*%
X149140337Y-79619789D03*
%TO.P,L1,2,2*%
%TO.N,Net-(U2-LNA_IN{slash}RF)*%
X149819159Y-80298611D03*
%TD*%
D28*
%TO.P,C5,1*%
%TO.N,Net-(U1-VO)*%
X151536748Y-109918200D03*
%TO.P,C5,2*%
%TO.N,GND*%
X151536748Y-111468200D03*
%TD*%
D29*
%TO.P,C2,1*%
%TO.N,Net-(U1-VI)*%
X151536748Y-115532200D03*
%TO.P,C2,2*%
%TO.N,GND*%
X151536748Y-113982200D03*
%TD*%
D30*
%TO.P,D2,1,A*%
%TO.N,GND*%
X149594748Y-120361200D03*
D31*
%TO.P,D2,2,K*%
%TO.N,VBUS*%
X147894748Y-120361200D03*
%TO.P,D2,3,K*%
%TO.N,D_M*%
X147894748Y-122361200D03*
%TO.P,D2,4,K*%
%TO.N,D_P*%
X149794748Y-122361200D03*
%TD*%
D32*
%TO.P,J3,1,Pin_1*%
%TO.N,GND*%
X159512748Y-74752200D03*
D33*
%TO.P,J3,2,Pin_2*%
%TO.N,TXD*%
X159512748Y-77292200D03*
%TO.P,J3,3,Pin_3*%
%TO.N,RXD*%
X159512748Y-79832200D03*
%TO.P,J3,4,Pin_4*%
%TO.N,GPIO1*%
X159512748Y-82372200D03*
%TO.P,J3,5,Pin_5*%
%TO.N,GPIO2*%
X159512748Y-84912200D03*
%TO.P,J3,6,Pin_6*%
%TO.N,GPIO42*%
X159512748Y-87452200D03*
%TO.P,J3,7,Pin_7*%
%TO.N,GPIO41*%
X159512748Y-89992200D03*
%TO.P,J3,8,Pin_8*%
%TO.N,GPIO40*%
X159512748Y-92532200D03*
%TO.P,J3,9,Pin_9*%
%TO.N,GPIO39*%
X159512748Y-95072200D03*
%TO.P,J3,10,Pin_10*%
%TO.N,GPIO38*%
X159512748Y-97612200D03*
%TO.P,J3,11,Pin_11*%
%TO.N,GPIO37*%
X159512748Y-100152200D03*
%TO.P,J3,12,Pin_12*%
%TO.N,GPIO36*%
X159512748Y-102692200D03*
%TO.P,J3,13,Pin_13*%
%TO.N,GPIO35*%
X159512748Y-105232200D03*
%TO.P,J3,14,Pin_14*%
%TO.N,GPIO0*%
X159512748Y-107772200D03*
%TO.P,J3,15,Pin_15*%
%TO.N,GPIO45*%
X159512748Y-110312200D03*
%TO.P,J3,16,Pin_16*%
%TO.N,GPIO48*%
X159512748Y-112852200D03*
%TO.P,J3,17,Pin_17*%
%TO.N,GPIO47*%
X159512748Y-115392200D03*
%TO.P,J3,18,Pin_18*%
%TO.N,GPIO21*%
X159512748Y-117932200D03*
%TO.P,J3,19,Pin_19*%
%TO.N,GPIO33*%
X159512748Y-120472200D03*
%TO.P,J3,20,Pin_20*%
%TO.N,GPIO34*%
X159512748Y-123012200D03*
%TO.P,J3,21,Pin_21*%
%TO.N,RAW*%
X159512748Y-125552200D03*
%TO.P,J3,22,Pin_22*%
%TO.N,GND*%
X159512748Y-128092200D03*
%TD*%
D13*
%TO.P,C3,1*%
%TO.N,Net-(U1-VI)*%
X153060748Y-115618200D03*
%TO.P,C3,2*%
%TO.N,GND*%
X153060748Y-114658200D03*
%TD*%
D12*
%TO.P,C1,1*%
%TO.N,RAW*%
X146713748Y-117805200D03*
%TO.P,C1,2*%
%TO.N,GND*%
X147673748Y-117805200D03*
%TD*%
D29*
%TO.P,C13,1*%
%TO.N,+3.3V*%
X154432748Y-80861200D03*
%TO.P,C13,2*%
%TO.N,GND*%
X154432748Y-79311200D03*
%TD*%
D32*
%TO.P,J2,1,Pin_1*%
%TO.N,+3.3V*%
X136652748Y-74752200D03*
D33*
%TO.P,J2,2,Pin_2*%
X136652748Y-77292200D03*
%TO.P,J2,3,Pin_3*%
%TO.N,CHIP_PU*%
X136652748Y-79832200D03*
%TO.P,J2,4,Pin_4*%
%TO.N,GPIO4*%
X136652748Y-82372200D03*
%TO.P,J2,5,Pin_5*%
%TO.N,GPIO5*%
X136652748Y-84912200D03*
%TO.P,J2,6,Pin_6*%
%TO.N,GPIO6*%
X136652748Y-87452200D03*
%TO.P,J2,7,Pin_7*%
%TO.N,GPIO7*%
X136652748Y-89992200D03*
%TO.P,J2,8,Pin_8*%
%TO.N,GPIO15*%
X136652748Y-92532200D03*
%TO.P,J2,9,Pin_9*%
%TO.N,GPIO16*%
X136652748Y-95072200D03*
%TO.P,J2,10,Pin_10*%
%TO.N,GPIO17*%
X136652748Y-97612200D03*
%TO.P,J2,11,Pin_11*%
%TO.N,GPIO18*%
X136652748Y-100152200D03*
%TO.P,J2,12,Pin_12*%
%TO.N,GPIO8*%
X136652748Y-102692200D03*
%TO.P,J2,13,Pin_13*%
%TO.N,GPIO3*%
X136652748Y-105232200D03*
%TO.P,J2,14,Pin_14*%
%TO.N,GPIO46*%
X136652748Y-107772200D03*
%TO.P,J2,15,Pin_15*%
%TO.N,GPIO9*%
X136652748Y-110312200D03*
%TO.P,J2,16,Pin_16*%
%TO.N,GPIO10*%
X136652748Y-112852200D03*
%TO.P,J2,17,Pin_17*%
%TO.N,GPIO11*%
X136652748Y-115392200D03*
%TO.P,J2,18,Pin_18*%
%TO.N,GPIO12*%
X136652748Y-117932200D03*
%TO.P,J2,19,Pin_19*%
%TO.N,GPIO13*%
X136652748Y-120472200D03*
%TO.P,J2,20,Pin_20*%
%TO.N,GPIO14*%
X136652748Y-123012200D03*
%TO.P,J2,21,Pin_21*%
%TO.N,GPIO26*%
X136652748Y-125552200D03*
%TO.P,J2,22,Pin_22*%
%TO.N,GND*%
X136652748Y-128092200D03*
%TD*%
D24*
%TO.P,C10,1*%
%TO.N,VDD_SPI*%
X146784748Y-101041200D03*
%TO.P,C10,2*%
%TO.N,GND*%
X145824748Y-101041200D03*
%TD*%
D34*
%TO.P,R2,1*%
%TO.N,+3.3V*%
X143508748Y-105613200D03*
%TO.P,R2,2*%
%TO.N,CHIP_PU*%
X144528748Y-105613200D03*
%TD*%
D35*
%TO.P,SW1,1,1*%
%TO.N,GND*%
X150250748Y-105105200D03*
%TO.P,SW1,2,2*%
%TO.N,CHIP_PU*%
X146050748Y-105105200D03*
%TD*%
D36*
%TO.P,C15,1*%
%TO.N,Net-(AE1-A)*%
X148505337Y-78901611D03*
%TO.P,C15,2*%
%TO.N,GND*%
X149184159Y-78222789D03*
%TD*%
D37*
%TO.P,D3,1,K*%
%TO.N,GND*%
X153086248Y-108153200D03*
%TO.P,D3,2,A*%
%TO.N,Net-(D3-A)*%
X151511248Y-108153200D03*
%TD*%
D38*
%TO.P,PFB1,1*%
%TO.N,Net-(U1-VI)*%
X143878748Y-117805200D03*
%TO.P,PFB1,2*%
%TO.N,RAW*%
X145428748Y-117805200D03*
%TD*%
D39*
%TO.P,JMP1,1*%
%TO.N,Net-(U1-VO)*%
X149186748Y-108153200D03*
%TO.P,JMP1,2*%
%TO.N,+3.3V*%
X147536748Y-108153200D03*
%TD*%
D40*
%TO.P,F1,1*%
%TO.N,VBUS*%
X145252248Y-122631200D03*
%TO.P,F1,2*%
%TO.N,Net-(D1-A)*%
X142277248Y-122631200D03*
%TD*%
D36*
%TO.P,L2,1,1*%
%TO.N,Net-(U2-LNA_IN{slash}RF)*%
X150537337Y-80933611D03*
%TO.P,L2,2,2*%
%TO.N,GND*%
X151216159Y-80254789D03*
%TD*%
D41*
%TO.P,Y1,1,1*%
%TO.N,Net-(U2-XTAL_N)*%
X154367748Y-86097200D03*
%TO.P,Y1,2,2*%
%TO.N,GND*%
X155767748Y-86097200D03*
%TO.P,Y1,3,3*%
%TO.N,Net-(U2-XTAL_P)*%
X155767748Y-84997200D03*
%TO.P,Y1,4,4*%
%TO.N,GND*%
X154367748Y-84997200D03*
%TD*%
D12*
%TO.P,C16,1*%
%TO.N,Net-(U2-XTAL_N)*%
X154968748Y-87452200D03*
%TO.P,C16,2*%
%TO.N,GND*%
X155928748Y-87452200D03*
%TD*%
D42*
%TO.P,U1,1,VI*%
%TO.N,Net-(U1-VI)*%
X149225748Y-115025200D03*
%TO.P,U1,2,GND*%
%TO.N,GND*%
X149225748Y-112725200D03*
%TO.P,U1,3,VO*%
%TO.N,Net-(U1-VO)*%
X149225748Y-110425200D03*
D43*
%TO.P,U1,4*%
%TO.N,N/C*%
X142925748Y-112725200D03*
%TD*%
D44*
%TO.P,U3,1,~{CS}*%
%TO.N,SPICS0*%
X151726748Y-99136200D03*
%TO.P,U3,2,DO*%
%TO.N,SPIQ*%
X151726748Y-97866200D03*
%TO.P,U3,3,~{WP}*%
%TO.N,SPIWP*%
X151726748Y-96596200D03*
%TO.P,U3,4,GND*%
%TO.N,GND*%
X151726748Y-95326200D03*
%TO.P,U3,5,DI*%
%TO.N,SPID*%
X144526748Y-95326200D03*
%TO.P,U3,6,CLK*%
%TO.N,SPICLK*%
X144526748Y-96596200D03*
%TO.P,U3,7,~{RESET}*%
%TO.N,SPIHD*%
X144526748Y-97866200D03*
%TO.P,U3,8,VCC*%
%TO.N,VDD_SPI*%
X144526748Y-99136200D03*
%TD*%
D45*
%TO.P,U2,1,LNA_IN/RF*%
%TO.N,Net-(U2-LNA_IN{slash}RF)*%
X150614748Y-84714700D03*
%TO.P,U2,2,VDD3P3*%
%TO.N,+3.3V*%
X150214748Y-84714700D03*
%TO.P,U2,3,VDD3P3*%
X149814748Y-84714700D03*
%TO.P,U2,4,CHIP_PU/RESET*%
%TO.N,CHIP_PU*%
X149414748Y-84714700D03*
%TO.P,U2,5,GPIO0/BOOT*%
%TO.N,GPIO0*%
X149014748Y-84714700D03*
%TO.P,U2,6,GPIO1/ADC1_CH0*%
%TO.N,GPIO1*%
X148614748Y-84714700D03*
%TO.P,U2,7,GPIO2/ADC1_CH1*%
%TO.N,GPIO2*%
X148214748Y-84714700D03*
%TO.P,U2,8,GPIO3/ADC1_CH2*%
%TO.N,GPIO3*%
X147814748Y-84714700D03*
%TO.P,U2,9,GPIO4/ADC1_CH3*%
%TO.N,GPIO4*%
X147414748Y-84714700D03*
%TO.P,U2,10,GPIO5/ADC1_CH4*%
%TO.N,GPIO5*%
X147014748Y-84714700D03*
%TO.P,U2,11,GPIO6/ADC1_CH5*%
%TO.N,GPIO6*%
X146614748Y-84714700D03*
%TO.P,U2,12,GPIO7/ADC1_CH6*%
%TO.N,GPIO7*%
X146214748Y-84714700D03*
%TO.P,U2,13,GPIO8/ADC1_CH7*%
%TO.N,GPIO8*%
X145814748Y-84714700D03*
%TO.P,U2,14,GPIO9/ADC1_CH8*%
%TO.N,GPIO9*%
X145414748Y-84714700D03*
D46*
%TO.P,U2,15,GPIO10/ADC1_CH9*%
%TO.N,GPIO10*%
X144577248Y-85552200D03*
%TO.P,U2,16,GPIO11/ADC2_CH0*%
%TO.N,GPIO11*%
X144577248Y-85952200D03*
%TO.P,U2,17,GPIO12/ADC2_CH1*%
%TO.N,GPIO12*%
X144577248Y-86352200D03*
%TO.P,U2,18,GPIO13/ADC2_CH2*%
%TO.N,GPIO13*%
X144577248Y-86752200D03*
%TO.P,U2,19,GPIO14/ADC2_CH3*%
%TO.N,GPIO14*%
X144577248Y-87152200D03*
%TO.P,U2,20,VDD3P3_RTC*%
%TO.N,+3.3V*%
X144577248Y-87552200D03*
%TO.P,U2,21,GPIO15/ADC2_CH4/XTAL_32K_P*%
%TO.N,GPIO15*%
X144577248Y-87952200D03*
%TO.P,U2,22,GPIO16/ADC2_CH5/XTAL_32K_N*%
%TO.N,GPIO16*%
X144577248Y-88352200D03*
%TO.P,U2,23,GPIO17/ADC2_CH6*%
%TO.N,GPIO17*%
X144577248Y-88752200D03*
%TO.P,U2,24,GPIO18/ADC2_CH7*%
%TO.N,GPIO18*%
X144577248Y-89152200D03*
%TO.P,U2,25,GPIO19/USB_D-/ADC2_CH8*%
%TO.N,D_M*%
X144577248Y-89552200D03*
%TO.P,U2,26,GPIO20/USB_D+/ADC2_CH9*%
%TO.N,D_P*%
X144577248Y-89952200D03*
%TO.P,U2,27,GPIO21*%
%TO.N,GPIO21*%
X144577248Y-90352200D03*
%TO.P,U2,28,SPI_CS1/GPIO26*%
%TO.N,GPIO26*%
X144577248Y-90752200D03*
D45*
%TO.P,U2,29,VDD_SPI*%
%TO.N,VDD_SPI*%
X145414748Y-91589700D03*
%TO.P,U2,30,SPIHD/GPIO27*%
%TO.N,SPIHD*%
X145814748Y-91589700D03*
%TO.P,U2,31,SPIWP/GPIO28*%
%TO.N,SPIWP*%
X146214748Y-91589700D03*
%TO.P,U2,32,SPICS0/GPIO29*%
%TO.N,SPICS0*%
X146614748Y-91589700D03*
%TO.P,U2,33,SPICLK/GPIO30*%
%TO.N,SPICLK*%
X147014748Y-91589700D03*
%TO.P,U2,34,SPIQ/GPIO31*%
%TO.N,SPIQ*%
X147414748Y-91589700D03*
%TO.P,U2,35,SPID/GPIO32*%
%TO.N,SPID*%
X147814748Y-91589700D03*
%TO.P,U2,36,SPICLK_N/GPIO48*%
%TO.N,GPIO48*%
X148214748Y-91589700D03*
%TO.P,U2,37,SPICLK_P/GPIO47*%
%TO.N,GPIO47*%
X148614748Y-91589700D03*
%TO.P,U2,38,GPIO33*%
%TO.N,GPIO33*%
X149014748Y-91589700D03*
%TO.P,U2,39,GPIO34*%
%TO.N,GPIO34*%
X149414748Y-91589700D03*
%TO.P,U2,40,GPIO35*%
%TO.N,GPIO35*%
X149814748Y-91589700D03*
%TO.P,U2,41,GPIO36*%
%TO.N,GPIO36*%
X150214748Y-91589700D03*
%TO.P,U2,42,GPIO37*%
%TO.N,GPIO37*%
X150614748Y-91589700D03*
D46*
%TO.P,U2,43,GPIO38*%
%TO.N,GPIO38*%
X151452248Y-90752200D03*
%TO.P,U2,44,MTCK/JTAG/GPIO39*%
%TO.N,GPIO39*%
X151452248Y-90352200D03*
%TO.P,U2,45,MTDO/JTAG/GPIO40*%
%TO.N,GPIO40*%
X151452248Y-89952200D03*
%TO.P,U2,46,VDD3P3_CPU*%
%TO.N,+3.3V*%
X151452248Y-89552200D03*
%TO.P,U2,47,MTDI/JTAG/GPIO41*%
%TO.N,GPIO41*%
X151452248Y-89152200D03*
%TO.P,U2,48,MTMS/JTAG/GPIO42*%
%TO.N,GPIO42*%
X151452248Y-88752200D03*
%TO.P,U2,49,U0TXD/PROG/GPIO43*%
%TO.N,TXD*%
X151452248Y-88352200D03*
%TO.P,U2,50,U0RXD/PROG/GPIO44*%
%TO.N,RXD*%
X151452248Y-87952200D03*
%TO.P,U2,51,GPIO45*%
%TO.N,GPIO45*%
X151452248Y-87552200D03*
%TO.P,U2,52,GPIO46*%
%TO.N,GPIO46*%
X151452248Y-87152200D03*
%TO.P,U2,53,XTAL_N*%
%TO.N,Net-(U2-XTAL_N)*%
X151452248Y-86752200D03*
%TO.P,U2,54,XTAL_P*%
%TO.N,Net-(U2-XTAL_P)*%
X151452248Y-86352200D03*
%TO.P,U2,55,VDDA*%
%TO.N,+3.3V*%
X151452248Y-85952200D03*
%TO.P,U2,56,VDDA*%
X151452248Y-85552200D03*
D47*
%TO.P,U2,57,GND*%
%TO.N,GND*%
X148014748Y-88152200D03*
%TD*%
D48*
%TO.N,+3.3V*%
X146329748Y-108153200D03*
X142621748Y-87552200D03*
X146685748Y-80820200D03*
X152654748Y-85547200D03*
X154178748Y-90373200D03*
X153441748Y-106756200D03*
X142748748Y-105613200D03*
%TO.N,GND*%
X142327748Y-128116950D03*
X146077748Y-113116950D03*
X156077748Y-128116950D03*
X149098748Y-80721200D03*
X146685000Y-79121000D03*
X143002748Y-125933200D03*
X148590748Y-77546200D03*
X151077748Y-118116950D03*
X152327748Y-118116950D03*
X150495748Y-79578200D03*
X152654748Y-77546200D03*
X144526748Y-79121000D03*
X152019748Y-112725200D03*
X153289748Y-125933200D03*
X153577748Y-121866950D03*
X154686748Y-77546200D03*
X153577748Y-123116950D03*
X157327748Y-128116950D03*
X146077748Y-111866950D03*
X148463748Y-80086200D03*
X148590748Y-117805200D03*
X143577748Y-119366950D03*
X154432748Y-84142800D03*
X156077748Y-123116950D03*
X156718748Y-77546200D03*
X154827748Y-123116950D03*
X146685748Y-79832200D03*
X150622748Y-77546200D03*
X142327748Y-124366950D03*
X151638748Y-77546200D03*
X153577748Y-128116950D03*
X144827748Y-111866950D03*
X151638748Y-91389200D03*
X144653748Y-91516200D03*
X149606748Y-119329200D03*
X148014748Y-88152200D03*
X155702748Y-77546200D03*
X156718000Y-86106000D03*
X141859748Y-80594200D03*
X145542748Y-77546200D03*
X152908748Y-113614200D03*
X154827748Y-128116950D03*
X144827748Y-109366950D03*
X156718748Y-90373200D03*
X144526748Y-77546200D03*
X144827748Y-113116950D03*
X153289748Y-95326200D03*
X142327748Y-109366950D03*
X151384748Y-84785200D03*
X141217525Y-88714977D03*
X145542000Y-79121000D03*
X151384748Y-83205600D03*
X151077748Y-119366950D03*
X141077748Y-126866950D03*
X157734748Y-77546200D03*
X146558748Y-77546200D03*
X149860748Y-78943200D03*
X157327748Y-126866950D03*
X149606748Y-77546200D03*
X156077748Y-120616950D03*
X152327748Y-123116950D03*
X138430748Y-77546200D03*
X142032748Y-104195320D03*
X140843748Y-84023200D03*
X151384748Y-81843600D03*
X141077748Y-128116950D03*
X139827748Y-128116950D03*
X142494748Y-77546200D03*
X152327748Y-128116950D03*
X143510748Y-79121000D03*
X146077748Y-110616950D03*
X138577748Y-126866950D03*
X140462748Y-77546200D03*
X150622748Y-78816200D03*
X143577748Y-128116950D03*
X139827748Y-126866950D03*
X151257748Y-101041200D03*
X154203748Y-108153200D03*
X151130748Y-112725200D03*
X149733748Y-81356200D03*
X144780748Y-84999800D03*
X143577748Y-109366950D03*
X151384748Y-105105200D03*
X144827748Y-110616950D03*
X148577748Y-99366950D03*
X147327748Y-113116950D03*
X154827748Y-121866950D03*
X156718748Y-87452200D03*
X142327748Y-115616950D03*
X152908748Y-112725200D03*
X143577748Y-120616950D03*
X151892748Y-79705200D03*
X155829748Y-81737200D03*
X154827748Y-126866950D03*
X156077748Y-126866950D03*
X147327748Y-110616950D03*
X141478748Y-77546200D03*
X147327748Y-98116950D03*
X141077748Y-125616950D03*
X151384748Y-84023200D03*
X144907748Y-101041200D03*
X147828748Y-79451200D03*
X155448748Y-79070200D03*
X152908748Y-111836200D03*
X147574748Y-77546200D03*
X153670748Y-77546200D03*
X138577748Y-128116950D03*
X139954748Y-84023200D03*
X142327748Y-116866950D03*
X142494748Y-78943200D03*
X156077748Y-119366950D03*
X147327748Y-111866950D03*
X142327748Y-118116950D03*
X139446748Y-77546200D03*
X156077748Y-121866950D03*
X149479748Y-124028200D03*
%TO.N,CHIP_PU*%
X147193748Y-105105200D03*
%TO.N,RAW*%
X145414748Y-118694200D03*
%TO.N,GPIO0*%
X148886148Y-83214655D03*
%TO.N,SPIWP*%
X149987748Y-96596200D03*
X143002748Y-97337600D03*
%TO.N,GPIO14*%
X142562651Y-86622297D03*
%TO.N,TXD*%
X158115748Y-81737200D03*
%TO.N,GPIO13*%
X143094681Y-86090268D03*
%TO.N,GPIO12*%
X142601597Y-85482621D03*
%TO.N,GPIO45*%
X154051748Y-88087200D03*
%TO.N,GPIO2*%
X147898511Y-82138800D03*
%TO.N,GPIO26*%
X141423148Y-101930200D03*
%TO.N,GPIO10*%
X142600908Y-84304399D03*
%TO.N,GPIO8*%
X138430748Y-91770200D03*
%TO.N,GPIO3*%
X147146108Y-82138800D03*
X141118348Y-105232200D03*
%TO.N,GPIO9*%
X143129748Y-83769200D03*
%TO.N,GPIO34*%
X157247348Y-111836200D03*
%TO.N,GPIO46*%
X141423148Y-107772200D03*
X154051748Y-87325200D03*
%TO.N,GPIO48*%
X157226748Y-114122200D03*
%TO.N,GPIO11*%
X143136419Y-84953400D03*
%TO.N,GPIO33*%
X157222952Y-112598200D03*
%TO.N,GPIO1*%
X148563023Y-82535170D03*
%TD*%
D49*
%TO.N,Net-(AE1-A)*%
X143764748Y-78308200D02*
X143383748Y-77927200D01*
D50*
X143383748Y-77103800D02*
X143382748Y-77103800D01*
D49*
X149140337Y-79536611D02*
X148505337Y-78901611D01*
D50*
X143383748Y-77216000D02*
X143383748Y-77103800D01*
D49*
X143383748Y-77927200D02*
X143383748Y-77216000D01*
D50*
X149140337Y-79619789D02*
X149140337Y-79536611D01*
D49*
X147911926Y-78308200D02*
X143764748Y-78308200D01*
X148505337Y-78901611D02*
X147911926Y-78308200D01*
D51*
%TO.N,+3.3V*%
X142621748Y-87552200D02*
X141477748Y-87552200D01*
X154473748Y-80820200D02*
X154432748Y-80861200D01*
D10*
X136652748Y-74752200D02*
X136652748Y-77292200D01*
D51*
X144577248Y-87552200D02*
X142621748Y-87552200D01*
X154968748Y-90373200D02*
X154178748Y-90373200D01*
X152654748Y-82639200D02*
X154432748Y-80861200D01*
X152654748Y-85547200D02*
X152654748Y-82639200D01*
X143508748Y-105613200D02*
X142748748Y-105613200D01*
D10*
X145796748Y-80820200D02*
X144765748Y-80820200D01*
D51*
X151452248Y-85952200D02*
X151452248Y-85552200D01*
X154178748Y-90373200D02*
X153688618Y-90373200D01*
D10*
X146685748Y-80820200D02*
X145796748Y-80820200D01*
X149987748Y-84714700D02*
X149814748Y-84714700D01*
X136652748Y-74752200D02*
X137252748Y-75352200D01*
D51*
X152649748Y-85552200D02*
X152654748Y-85547200D01*
D10*
X144765748Y-80820200D02*
X144539748Y-80594200D01*
X150214748Y-84714700D02*
X149987748Y-84714700D01*
X149814748Y-84714700D02*
X149814748Y-83770800D01*
X136906748Y-77292200D02*
X136652748Y-77292200D01*
D51*
X155702748Y-80820200D02*
X154473748Y-80820200D01*
D10*
X149814748Y-84714700D02*
X149814748Y-82453200D01*
D51*
X152867618Y-89552200D02*
X151452248Y-89552200D01*
X153688618Y-90373200D02*
X152867618Y-89552200D01*
X151452248Y-85552200D02*
X152649748Y-85552200D01*
D10*
X149814748Y-82453200D02*
X148181748Y-80820200D01*
D51*
X152554748Y-106756200D02*
X153441748Y-106756200D01*
X141477748Y-87552200D02*
X141450748Y-87579200D01*
D10*
X148181748Y-80820200D02*
X146685748Y-80820200D01*
D52*
X147536748Y-108153200D02*
X146329748Y-108153200D01*
D50*
%TO.N,GND*%
X149594748Y-119341200D02*
X149606748Y-119329200D01*
X149452748Y-125798200D02*
X149452748Y-124055200D01*
X145052748Y-125923200D02*
X143012748Y-125923200D01*
X146952748Y-128473200D02*
X145052748Y-126573200D01*
X144866962Y-84999800D02*
X144780748Y-84999800D01*
X146952748Y-128473200D02*
X145327748Y-128473200D01*
X154367748Y-84207800D02*
X154432748Y-84142800D01*
X151726748Y-95326200D02*
X153289748Y-95326200D01*
X155767748Y-86097200D02*
X156709200Y-86097200D01*
X151262748Y-125933200D02*
X151252748Y-125923200D01*
X155829748Y-82654200D02*
X155829748Y-81737200D01*
X153289748Y-125933200D02*
X151262748Y-125933200D01*
X151252748Y-126573200D02*
X151252748Y-125923200D01*
X148014748Y-88152200D02*
X148017748Y-88152200D01*
X154432748Y-79311200D02*
X155207748Y-79311200D01*
X146952748Y-128473200D02*
X149352748Y-128473200D01*
X149352748Y-128473200D02*
X151252748Y-126573200D01*
X142989748Y-80594200D02*
X141859748Y-80594200D01*
X140490748Y-87988200D02*
X141217525Y-88714977D01*
X142053628Y-104216200D02*
X142032748Y-104195320D01*
X151330348Y-91080800D02*
X151638748Y-91389200D01*
X150943348Y-91080800D02*
X151330348Y-91080800D01*
X148014748Y-88155200D02*
X144653748Y-91516200D01*
X149452748Y-124055200D02*
X149479748Y-124028200D01*
X150340748Y-101041200D02*
X151257748Y-101041200D01*
X145052748Y-126573200D02*
X145052748Y-125923200D01*
X148014748Y-88152200D02*
X148014748Y-88155200D01*
X143012748Y-125923200D02*
X143002748Y-125933200D01*
X148017748Y-88152200D02*
X151384748Y-84785200D01*
X145796748Y-79860200D02*
X146657748Y-79860200D01*
X155928748Y-90373200D02*
X156718748Y-90373200D01*
X156709200Y-86097200D02*
X156718000Y-86106000D01*
X148014748Y-88147586D02*
X144866962Y-84999800D01*
X154367748Y-84997200D02*
X154367748Y-84207800D01*
X146657748Y-79860200D02*
X146685748Y-79832200D01*
X142989748Y-104216200D02*
X142053628Y-104216200D01*
X140490748Y-87579200D02*
X140490748Y-87988200D01*
X149352748Y-128473200D02*
X150977748Y-128473200D01*
X147673748Y-117805200D02*
X148590748Y-117805200D01*
X155702748Y-79860200D02*
X155702748Y-79324200D01*
X155702748Y-79324200D02*
X155448748Y-79070200D01*
X153086248Y-108153200D02*
X154203748Y-108153200D01*
X148014748Y-88152200D02*
X150943348Y-91080800D01*
X149594748Y-120361200D02*
X149594748Y-119341200D01*
X145824748Y-101041200D02*
X144907748Y-101041200D01*
X155207748Y-79311200D02*
X155448748Y-79070200D01*
X150250748Y-105105200D02*
X151384748Y-105105200D01*
X148014748Y-88152200D02*
X148014748Y-88147586D01*
X155928748Y-87452200D02*
X156718748Y-87452200D01*
%TO.N,VDD_SPI*%
X143622742Y-99136200D02*
X144526748Y-99136200D01*
X145923748Y-99136200D02*
X146784748Y-99997200D01*
X145414748Y-91589700D02*
X145414748Y-92584000D01*
X141783548Y-94313192D02*
X141783548Y-97297006D01*
X145414748Y-92584000D02*
X144907748Y-93091000D01*
X143005740Y-93091000D02*
X141783548Y-94313192D01*
X144526748Y-99136200D02*
X145923748Y-99136200D01*
X146784748Y-99997200D02*
X146784748Y-101041200D01*
X144907748Y-93091000D02*
X143005740Y-93091000D01*
X141783548Y-97297006D02*
X143622742Y-99136200D01*
D10*
X147079748Y-101041200D02*
X149085748Y-101041200D01*
D50*
%TO.N,CHIP_PU*%
X144539748Y-104216200D02*
X144539748Y-105602200D01*
X146050748Y-105105200D02*
X144539748Y-105105200D01*
X147193748Y-105105200D02*
X146050748Y-105105200D01*
X144539748Y-105105200D02*
X144528748Y-105116200D01*
X144528748Y-105116200D02*
X144528748Y-105613200D01*
X148385607Y-81610200D02*
X138430748Y-81610200D01*
X144539748Y-105602200D02*
X144528748Y-105613200D01*
X138430748Y-81610200D02*
X136652748Y-79832200D01*
X149414748Y-82639341D02*
X148385607Y-81610200D01*
X149414748Y-84714700D02*
X149414748Y-82639341D01*
%TO.N,Net-(U2-XTAL_N)*%
X154367748Y-86097200D02*
X153882748Y-86097200D01*
X153227748Y-86752200D02*
X151452248Y-86752200D01*
X154968748Y-86698200D02*
X154367748Y-86097200D01*
X153882748Y-86097200D02*
X153227748Y-86752200D01*
X154968748Y-87452200D02*
X154968748Y-86698200D01*
%TO.N,Net-(U2-XTAL_P)*%
X151452248Y-86352200D02*
X153119748Y-86352200D01*
X155829748Y-84935200D02*
X155767748Y-84997200D01*
X153416748Y-84023200D02*
X153825748Y-83614200D01*
X153825748Y-83614200D02*
X155829748Y-83614200D01*
X153416748Y-86055200D02*
X153416748Y-84023200D01*
X155829748Y-83614200D02*
X155829748Y-84935200D01*
X153119748Y-86352200D02*
X153416748Y-86055200D01*
D52*
%TO.N,RAW*%
X145414748Y-120091200D02*
X145414748Y-118694200D01*
X145414748Y-118694200D02*
X145414748Y-117884700D01*
X145494248Y-117805200D02*
X146713748Y-117805200D01*
D10*
X145414748Y-117884700D02*
X145494248Y-117805200D01*
D50*
%TO.N,Net-(D3-A)*%
X151534748Y-106756200D02*
X151534748Y-108129700D01*
X151534748Y-108129700D02*
X151511248Y-108153200D01*
%TO.N,D_M*%
X139929348Y-102131904D02*
X141111196Y-103313752D01*
X151017196Y-103313752D02*
X155194748Y-107491304D01*
X150368748Y-121615200D02*
X148640748Y-121615200D01*
X155194748Y-117932200D02*
X151257748Y-121869200D01*
X139929348Y-92884808D02*
X139929348Y-102131904D01*
X144577248Y-89552200D02*
X143261956Y-89552200D01*
X155194748Y-107491304D02*
X155194748Y-117932200D01*
X143261956Y-89552200D02*
X139929348Y-92884808D01*
X148640748Y-121615200D02*
X147894748Y-122361200D01*
X141111196Y-103313752D02*
X151017196Y-103313752D01*
D10*
X147502748Y-125798200D02*
X147502748Y-122753200D01*
D50*
X150622748Y-121869200D02*
X150368748Y-121615200D01*
X151257748Y-121869200D02*
X150622748Y-121869200D01*
D10*
X147502748Y-122753200D02*
X147894748Y-122361200D01*
%TO.N,VBUS*%
X145252248Y-122631200D02*
X145252248Y-122540700D01*
D52*
X146852748Y-124231700D02*
X145252248Y-122631200D01*
X146852748Y-125798200D02*
X146852748Y-124231700D01*
X145252248Y-122540700D02*
X147431748Y-120361200D01*
X147431748Y-120361200D02*
X147894748Y-120361200D01*
D50*
%TO.N,D_P*%
X153523679Y-120373732D02*
X153891374Y-120741427D01*
X154230785Y-120741427D02*
X154315637Y-120656574D01*
X155499548Y-118058452D02*
X155499548Y-107365052D01*
X143293008Y-89952200D02*
X144577248Y-89952200D01*
X149794748Y-122361200D02*
X151196800Y-122361200D01*
X154315637Y-120317162D02*
X153947941Y-119949466D01*
D10*
X148152748Y-125798200D02*
X148152748Y-123323200D01*
X149114748Y-122361200D02*
X149794748Y-122361200D01*
D50*
X153947941Y-119610055D02*
X154032796Y-119525203D01*
X155499548Y-107365052D02*
X151131496Y-102997000D01*
X140234148Y-93011060D02*
X143293008Y-89952200D01*
X154032796Y-119525203D02*
X154316567Y-119241433D01*
X151131496Y-102997000D02*
X141225496Y-102997000D01*
D10*
X148152748Y-123323200D02*
X149114748Y-122361200D01*
D50*
X154316567Y-119241433D02*
X155499548Y-118058452D01*
X141225496Y-102997000D02*
X140234148Y-102005652D01*
X151196800Y-122361200D02*
X153184268Y-120373732D01*
X140234148Y-102005652D02*
X140234148Y-93011060D01*
X154315637Y-120656574D02*
G75*
G03*
X154315605Y-120317194I-169737J169674D01*
G01*
X153891374Y-120741427D02*
G75*
G03*
X154230785Y-120741428I169706J169707D01*
G01*
X153184268Y-120373732D02*
G75*
G02*
X153523679Y-120373731I169706J-169707D01*
G01*
X153947941Y-119949466D02*
G75*
G02*
X153947980Y-119610095I169659J169666D01*
G01*
%TO.N,Net-(U1-VI)*%
X149225748Y-115025200D02*
X145832800Y-115025200D01*
X145832800Y-115025200D02*
X143878748Y-116979252D01*
X151622748Y-115618200D02*
X151536748Y-115532200D01*
X153060748Y-115618200D02*
X151622748Y-115618200D01*
X149225748Y-115025200D02*
X151029748Y-115025200D01*
X143878748Y-116979252D02*
X143878748Y-117805200D01*
X151029748Y-115025200D02*
X151536748Y-115532200D01*
D10*
%TO.N,Net-(U1-VO)*%
X149225748Y-110425200D02*
X151029748Y-110425200D01*
X151029748Y-110425200D02*
X151536748Y-109918200D01*
D50*
X153060748Y-109959200D02*
X151577748Y-109959200D01*
X149250748Y-110400200D02*
X149225748Y-110425200D01*
D10*
X151742748Y-109664200D02*
X151663748Y-109743200D01*
D50*
X151577748Y-109959200D02*
X151536748Y-109918200D01*
X149250748Y-108216200D02*
X149250748Y-110400200D01*
D52*
%TO.N,Net-(D1-A)*%
X142277248Y-122631200D02*
X142277248Y-120253700D01*
D10*
X142277248Y-120253700D02*
X142114748Y-120091200D01*
D49*
%TO.N,Net-(U2-LNA_IN{slash}RF)*%
X150622000Y-81018274D02*
X150622000Y-83820000D01*
D51*
X150614748Y-83827252D02*
X150614748Y-84714700D01*
D49*
X150537337Y-80933611D02*
X150622000Y-81018274D01*
D51*
X150622000Y-83820000D02*
X150614748Y-83827252D01*
X149819159Y-80298611D02*
X149902337Y-80298611D01*
D49*
X149902337Y-80298611D02*
X150537337Y-80933611D01*
D51*
X150614748Y-81011022D02*
X150537337Y-80933611D01*
D50*
%TO.N,GPIO0*%
X149014748Y-83343255D02*
X149014748Y-84714700D01*
X148886148Y-83214655D02*
X149014748Y-83343255D01*
%TO.N,SPIHD*%
X145814748Y-92869800D02*
X145288748Y-93395800D01*
X142783794Y-97866200D02*
X144526748Y-97866200D01*
X145288748Y-93395800D02*
X143131992Y-93395800D01*
X145814748Y-91589700D02*
X145814748Y-92869800D01*
X142088348Y-97170754D02*
X142783794Y-97866200D01*
X142088348Y-94439444D02*
X142088348Y-97170754D01*
X143131992Y-93395800D02*
X142088348Y-94439444D01*
%TO.N,SPIWP*%
X142393148Y-94565696D02*
X142393148Y-96728000D01*
X142393148Y-96728000D02*
X143002748Y-97337600D01*
X145669748Y-93700600D02*
X143258244Y-93700600D01*
X146214748Y-91589700D02*
X146214748Y-93155600D01*
X149987748Y-96596200D02*
X151726748Y-96596200D01*
X146214748Y-93155600D02*
X145669748Y-93700600D01*
X143258244Y-93700600D02*
X142393148Y-94565696D01*
%TO.N,SPICS0*%
X146614748Y-93314400D02*
X145923748Y-94005400D01*
X142697948Y-94691948D02*
X142697948Y-96214452D01*
X143714696Y-97231200D02*
X148413696Y-97231200D01*
X143384496Y-94005400D02*
X142697948Y-94691948D01*
X148413696Y-97231200D02*
X150318696Y-99136200D01*
X150318696Y-99136200D02*
X151726748Y-99136200D01*
X146614748Y-91589700D02*
X146614748Y-93314400D01*
X142697948Y-96214452D02*
X143714696Y-97231200D01*
X145923748Y-94005400D02*
X143384496Y-94005400D01*
%TO.N,SPICLK*%
X143510748Y-94310200D02*
X146304748Y-94310200D01*
X146304748Y-94310200D02*
X147014748Y-93600200D01*
X144526748Y-96596200D02*
X143510748Y-96596200D01*
X143002748Y-96088200D02*
X143002748Y-94818200D01*
X147014748Y-93600200D02*
X147014748Y-91589700D01*
X143510748Y-96596200D02*
X143002748Y-96088200D01*
X143002748Y-94818200D02*
X143510748Y-94310200D01*
%TO.N,SPIQ*%
X147414748Y-91589700D02*
X147414748Y-93631252D01*
X147414748Y-93631252D02*
X146431000Y-94615000D01*
X149479748Y-97866200D02*
X151726748Y-97866200D01*
X143637000Y-94615000D02*
X143307548Y-94944452D01*
X143637748Y-95961200D02*
X147574748Y-95961200D01*
X143307548Y-94944452D02*
X143307548Y-95631000D01*
X147574748Y-95961200D02*
X149479748Y-97866200D01*
X143307548Y-95631000D02*
X143637748Y-95961200D01*
X146431000Y-94615000D02*
X143637000Y-94615000D01*
%TO.N,SPID*%
X147814748Y-93662304D02*
X147814748Y-91589700D01*
X144526748Y-95326200D02*
X146150852Y-95326200D01*
X146150852Y-95326200D02*
X147814748Y-93662304D01*
%TO.N,GPIO17*%
X143199852Y-88752200D02*
X138810252Y-93141800D01*
X138810252Y-93141800D02*
X138810252Y-95454696D01*
X144577248Y-88752200D02*
X143199852Y-88752200D01*
X138810252Y-95454696D02*
X136652748Y-97612200D01*
%TO.N,GPIO14*%
X142562651Y-86622297D02*
X143195658Y-86622297D01*
X143195658Y-86622297D02*
X143725561Y-87152200D01*
X143725561Y-87152200D02*
X144577248Y-87152200D01*
%TO.N,GPIO16*%
X143168800Y-88352200D02*
X138505452Y-93015548D01*
X138049748Y-95072200D02*
X136652748Y-95072200D01*
X144577248Y-88352200D02*
X143168800Y-88352200D01*
X138505452Y-93015548D02*
X138505452Y-94616496D01*
X138505452Y-94616496D02*
X138049748Y-95072200D01*
%TO.N,GPIO47*%
X150036940Y-93573600D02*
X155143200Y-93573600D01*
X155143200Y-93573600D02*
X155741970Y-94172370D01*
X156871148Y-110998000D02*
X156413948Y-111455200D01*
X156413948Y-112609902D02*
X157164246Y-113360200D01*
X157480748Y-113360200D02*
X159512748Y-115392200D01*
X148614748Y-92151408D02*
X150036940Y-93573600D01*
X157164246Y-113360200D02*
X157480748Y-113360200D01*
X155741970Y-94172370D02*
X155741970Y-98536682D01*
X155741970Y-98536682D02*
X156871148Y-99665860D01*
X148614748Y-91589700D02*
X148614748Y-92151408D01*
X156871148Y-99665860D02*
X156871148Y-110998000D01*
X156413948Y-111455200D02*
X156413948Y-112609902D01*
%TO.N,GPIO4*%
X138354548Y-82372200D02*
X136652748Y-82372200D01*
X138811748Y-81915000D02*
X138354548Y-82372200D01*
X147414748Y-83154992D02*
X146174756Y-81915000D01*
X147414748Y-84714700D02*
X147414748Y-83154992D01*
X146174756Y-81915000D02*
X138811748Y-81915000D01*
%TO.N,GPIO6*%
X137795748Y-86309200D02*
X136652748Y-87452200D01*
X137795748Y-83819252D02*
X137795748Y-86309200D01*
X139090400Y-82524600D02*
X137795748Y-83819252D01*
X145922252Y-82524600D02*
X139090400Y-82524600D01*
X146614748Y-83217096D02*
X145922252Y-82524600D01*
X146614748Y-84714700D02*
X146614748Y-83217096D01*
%TO.N,GPIO7*%
X138100548Y-83945504D02*
X138100548Y-88544400D01*
X139216652Y-82829400D02*
X138100548Y-83945504D01*
X146214748Y-84714700D02*
X146214748Y-83248148D01*
X145796000Y-82829400D02*
X139216652Y-82829400D01*
X138100548Y-88544400D02*
X136652748Y-89992200D01*
X146214748Y-83248148D02*
X145796000Y-82829400D01*
%TO.N,TXD*%
X151452248Y-88352200D02*
X152996696Y-88352200D01*
X158140774Y-81635226D02*
X158115748Y-81660252D01*
X157658548Y-86055200D02*
X157658548Y-82117452D01*
X157658548Y-82117452D02*
X158140774Y-81635226D01*
X156083748Y-89027000D02*
X156464000Y-89027000D01*
X157658548Y-87832452D02*
X157658548Y-86055200D01*
X156464000Y-89027000D02*
X157658548Y-87832452D01*
X158115748Y-81660252D02*
X158115748Y-81737200D01*
X153671496Y-89027000D02*
X156083748Y-89027000D01*
X153328222Y-88683726D02*
X153671496Y-89027000D01*
X152996696Y-88352200D02*
X153328222Y-88683726D01*
%TO.N,GPIO37*%
X151077248Y-91589700D02*
X151537148Y-92049600D01*
X157367196Y-92899752D02*
X157367196Y-98006648D01*
X151537148Y-92049600D02*
X156517044Y-92049600D01*
X157367196Y-98006648D02*
X159512748Y-100152200D01*
X150614748Y-91589700D02*
X151077248Y-91589700D01*
X156517044Y-92049600D02*
X157367196Y-92899752D01*
%TO.N,GPIO21*%
X144577248Y-90352200D02*
X143324060Y-90352200D01*
X155804348Y-115112800D02*
X158623748Y-117932200D01*
X151257748Y-102692200D02*
X155804348Y-107238800D01*
X143324060Y-90352200D02*
X140538948Y-93137312D01*
X140538948Y-93137312D02*
X140538948Y-101879400D01*
X158623748Y-117932200D02*
X159512748Y-117932200D01*
X155804348Y-107238800D02*
X155804348Y-115112800D01*
X141351748Y-102692200D02*
X151257748Y-102692200D01*
X140538948Y-101879400D02*
X141351748Y-102692200D01*
%TO.N,GPIO38*%
X157683948Y-92785452D02*
X157683948Y-95783400D01*
X152738540Y-90752200D02*
X153731140Y-91744800D01*
X153731140Y-91744800D02*
X156643296Y-91744800D01*
X156643296Y-91744800D02*
X157683948Y-92785452D01*
X151452248Y-90752200D02*
X152738540Y-90752200D01*
X157683948Y-95783400D02*
X159512748Y-97612200D01*
%TO.N,GPIO13*%
X143094681Y-86090268D02*
X143756613Y-86752200D01*
X143756613Y-86752200D02*
X144577248Y-86752200D01*
%TO.N,GPIO12*%
X143233967Y-85482000D02*
X144104167Y-86352200D01*
X144104167Y-86352200D02*
X144577248Y-86352200D01*
X142601597Y-85482621D02*
X142602218Y-85482000D01*
X142602218Y-85482000D02*
X143233967Y-85482000D01*
%TO.N,GPIO45*%
X153516748Y-87552200D02*
X154051748Y-88087200D01*
X151452248Y-87552200D02*
X153516748Y-87552200D01*
%TO.N,GPIO2*%
X148052748Y-82673148D02*
X148052748Y-83760358D01*
X148214748Y-83922358D02*
X148214748Y-84714700D01*
X147898511Y-82518911D02*
X148052748Y-82673148D01*
X147898511Y-82138800D02*
X147898511Y-82518911D01*
X148052748Y-83760358D02*
X148214748Y-83922358D01*
%TO.N,GPIO40*%
X158115748Y-91135200D02*
X159512748Y-92532200D01*
X153983644Y-91135200D02*
X158115748Y-91135200D01*
X151452248Y-89952200D02*
X152800644Y-89952200D01*
X152800644Y-89952200D02*
X153983644Y-91135200D01*
%TO.N,RXD*%
X151452248Y-87952200D02*
X153027748Y-87952200D01*
X153027748Y-87952200D02*
X153797748Y-88722200D01*
X156337748Y-88722200D02*
X157353748Y-87706200D01*
X159512748Y-80721200D02*
X159512748Y-79832200D01*
X157353748Y-87706200D02*
X157353748Y-81751646D01*
X153797748Y-88722200D02*
X156337748Y-88722200D01*
X159025348Y-81208600D02*
X159512748Y-80721200D01*
X157353748Y-81751646D02*
X157896794Y-81208600D01*
X157896794Y-81208600D02*
X159025348Y-81208600D01*
%TO.N,GPIO18*%
X143230904Y-89152200D02*
X139115052Y-93268052D01*
X144577248Y-89152200D02*
X143230904Y-89152200D01*
X139115052Y-95580948D02*
X137731348Y-96964652D01*
X139115052Y-93268052D02*
X139115052Y-95580948D01*
X137731348Y-99073600D02*
X136652748Y-100152200D01*
X137731348Y-96964652D02*
X137731348Y-99073600D01*
%TO.N,GPIO26*%
X144577248Y-90752200D02*
X143355112Y-90752200D01*
X140843748Y-93263564D02*
X140843748Y-101350800D01*
X140843748Y-101350800D02*
X141423148Y-101930200D01*
X143355112Y-90752200D02*
X140843748Y-93263564D01*
%TO.N,GPIO10*%
X142910794Y-84424800D02*
X143355373Y-84424800D01*
X143355373Y-84424800D02*
X143665019Y-84734446D01*
X142600908Y-84304399D02*
X142790393Y-84304399D01*
X143665019Y-85050948D02*
X144166271Y-85552200D01*
X143665019Y-84734446D02*
X143665019Y-85050948D01*
X144166271Y-85552200D02*
X144577248Y-85552200D01*
X142790393Y-84304399D02*
X142910794Y-84424800D01*
%TO.N,GPIO41*%
X151452248Y-89152200D02*
X152934592Y-89152200D01*
X153418992Y-89636600D02*
X159157148Y-89636600D01*
X159157148Y-89636600D02*
X159512748Y-89992200D01*
X152934592Y-89152200D02*
X153418992Y-89636600D01*
%TO.N,GPIO8*%
X138405348Y-91744800D02*
X138430748Y-91770200D01*
X145814748Y-83279200D02*
X145669748Y-83134200D01*
X145814748Y-84714700D02*
X145814748Y-83279200D01*
X138405348Y-84071756D02*
X138405348Y-91744800D01*
X145669748Y-83134200D02*
X139342904Y-83134200D01*
X139342904Y-83134200D02*
X138405348Y-84071756D01*
%TO.N,GPIO3*%
X147146108Y-82197560D02*
X147747948Y-82799400D01*
X147146108Y-82138800D02*
X147146108Y-82197560D01*
X147747948Y-82799400D02*
X147747948Y-83886610D01*
X147814748Y-83953410D02*
X147814748Y-84714700D01*
X147747948Y-83886610D02*
X147814748Y-83953410D01*
%TO.N,GPIO9*%
X144469248Y-83769200D02*
X145414748Y-84714700D01*
X143129748Y-83769200D02*
X144469248Y-83769200D01*
%TO.N,GPIO34*%
X150289444Y-92964000D02*
X149414748Y-92089304D01*
X155395704Y-92964000D02*
X150289444Y-92964000D01*
X156351570Y-93919866D02*
X155395704Y-92964000D01*
X157480748Y-99413356D02*
X156351570Y-98284178D01*
X157247348Y-111836200D02*
X157480748Y-111602800D01*
X156351570Y-98284178D02*
X156351570Y-93919866D01*
X149414748Y-92089304D02*
X149414748Y-91589700D01*
X157480748Y-111602800D02*
X157480748Y-99413356D01*
%TO.N,GPIO15*%
X143137748Y-87952200D02*
X138557748Y-92532200D01*
X138557748Y-92532200D02*
X136652748Y-92532200D01*
X144577248Y-87952200D02*
X143137748Y-87952200D01*
%TO.N,GPIO46*%
X151452248Y-87152200D02*
X153878748Y-87152200D01*
X153878748Y-87152200D02*
X154051748Y-87325200D01*
%TO.N,GPIO36*%
X150541948Y-92354400D02*
X156390792Y-92354400D01*
X156390792Y-92354400D02*
X156961170Y-92924778D01*
X156961170Y-98031674D02*
X158115748Y-99186252D01*
X150214748Y-91589700D02*
X150214748Y-92027200D01*
X158115748Y-101295200D02*
X159512748Y-102692200D01*
X150214748Y-92027200D02*
X150541948Y-92354400D01*
X156961170Y-92924778D02*
X156961170Y-98031674D01*
X158115748Y-99186252D02*
X158115748Y-101295200D01*
%TO.N,GPIO35*%
X157810948Y-103530400D02*
X159512748Y-105232200D01*
X157810948Y-99312504D02*
X157810948Y-103530400D01*
X149814748Y-91589700D02*
X149814748Y-92058252D01*
X155521956Y-92659200D02*
X156656370Y-93793614D01*
X156656370Y-93793614D02*
X156656370Y-98157926D01*
X149814748Y-92058252D02*
X150415696Y-92659200D01*
X150415696Y-92659200D02*
X155521956Y-92659200D01*
X156656370Y-98157926D02*
X157810948Y-99312504D01*
%TO.N,GPIO39*%
X153857392Y-91440000D02*
X156769548Y-91440000D01*
X157988748Y-93548200D02*
X159512748Y-95072200D01*
D10*
X158750748Y-95072200D02*
X159512748Y-95072200D01*
D50*
X152769592Y-90352200D02*
X153857392Y-91440000D01*
X157988748Y-92659200D02*
X157988748Y-93548200D01*
X156769548Y-91440000D02*
X157988748Y-92659200D01*
X151452248Y-90352200D02*
X152769592Y-90352200D01*
%TO.N,GPIO42*%
X158215852Y-87706200D02*
X159258748Y-87706200D01*
X153545244Y-89331800D02*
X156590252Y-89331800D01*
X156590252Y-89331800D02*
X158215852Y-87706200D01*
X152965644Y-88752200D02*
X153545244Y-89331800D01*
X151452248Y-88752200D02*
X152965644Y-88752200D01*
X159258748Y-87706200D02*
X159512748Y-87452200D01*
%TO.N,GPIO48*%
X156109148Y-113004600D02*
X156109148Y-111328948D01*
X148214748Y-92182460D02*
X148214748Y-91589700D01*
X155437170Y-94298622D02*
X155016948Y-93878400D01*
X156566348Y-99792112D02*
X155437170Y-98662934D01*
X157226748Y-114122200D02*
X156109148Y-113004600D01*
X155437170Y-98662934D02*
X155437170Y-94298622D01*
X155016948Y-93878400D02*
X149910688Y-93878400D01*
X156566348Y-110871748D02*
X156566348Y-99792112D01*
X156109148Y-111328948D02*
X156566348Y-110871748D01*
X149910688Y-93878400D02*
X148214748Y-92182460D01*
%TO.N,GPIO11*%
X144577248Y-85952200D02*
X144135219Y-85952200D01*
X144135219Y-85952200D02*
X143136419Y-84953400D01*
D10*
%TO.N,GPIO5*%
X136652748Y-84912200D02*
X136652748Y-84883357D01*
D50*
X146048504Y-82219800D02*
X138964148Y-82219800D01*
X147014748Y-84714700D02*
X147014748Y-83186044D01*
X136652748Y-84531200D02*
X136652748Y-84912200D01*
X138964148Y-82219800D02*
X136652748Y-84531200D01*
X147014748Y-83186044D02*
X146048504Y-82219800D01*
%TO.N,GPIO33*%
X156046770Y-94046118D02*
X155269452Y-93268800D01*
X156718748Y-112055154D02*
X156718748Y-111617246D01*
X157222952Y-112559358D02*
X156718748Y-112055154D01*
X157222952Y-112598200D02*
X157222952Y-112559358D01*
X156046770Y-98410430D02*
X156046770Y-94046118D01*
X157175948Y-111160046D02*
X157175948Y-99539608D01*
X157175948Y-99539608D02*
X156046770Y-98410430D01*
X155269452Y-93268800D02*
X150163192Y-93268800D01*
X156718748Y-111617246D02*
X157175948Y-111160046D01*
X149014748Y-92120356D02*
X149014748Y-91589700D01*
X150163192Y-93268800D02*
X149014748Y-92120356D01*
%TO.N,GPIO1*%
X148357548Y-82740645D02*
X148357548Y-83634106D01*
X148614748Y-83891306D02*
X148614748Y-84714700D01*
X148357548Y-83634106D02*
X148614748Y-83891306D01*
X148563023Y-82535170D02*
X148357548Y-82740645D01*
%TD*%
%TA.AperFunction,Conductor*%
%TO.N,Net-(U1-VI)*%
G36*
X150511425Y-114395885D02*
G01*
X150532067Y-114412519D01*
X150599934Y-114480386D01*
X150620632Y-114509947D01*
X150620953Y-114509750D01*
X150624343Y-114515246D01*
X150624635Y-114515663D01*
X150624742Y-114515894D01*
X150713779Y-114660243D01*
X150713780Y-114660244D01*
X150833704Y-114780168D01*
X150978051Y-114869203D01*
X150978059Y-114869205D01*
X150978275Y-114869307D01*
X150978690Y-114869597D01*
X150984198Y-114872995D01*
X150984000Y-114873315D01*
X151013560Y-114894012D01*
X151257748Y-115138200D01*
X151876867Y-115138200D01*
X151943906Y-115157885D01*
X151976813Y-115188807D01*
X151996217Y-115215232D01*
X152104954Y-115309454D01*
X152145422Y-115327935D01*
X152235828Y-115369223D01*
X152235831Y-115369223D01*
X152235832Y-115369224D01*
X152378248Y-115389700D01*
X152613285Y-115389700D01*
X152647879Y-115394623D01*
X152789755Y-115435843D01*
X152826058Y-115438700D01*
X152826066Y-115438700D01*
X153165748Y-115438700D01*
X153232787Y-115458385D01*
X153278542Y-115511189D01*
X153289748Y-115562700D01*
X153289748Y-115848838D01*
X153270063Y-115915877D01*
X153253429Y-115936519D01*
X152310067Y-116879881D01*
X152248744Y-116913366D01*
X152222386Y-116916200D01*
X146034905Y-116916200D01*
X145969805Y-116897737D01*
X145962445Y-116893197D01*
X145854803Y-116857528D01*
X145801457Y-116839851D01*
X145702094Y-116829700D01*
X145155410Y-116829700D01*
X145155392Y-116829701D01*
X145056040Y-116839850D01*
X145056037Y-116839851D01*
X144935831Y-116879683D01*
X144895051Y-116893197D01*
X144895049Y-116893197D01*
X144895049Y-116893198D01*
X144887691Y-116897737D01*
X144822591Y-116916200D01*
X144780747Y-116916200D01*
X144272748Y-117424199D01*
X144272748Y-118062200D01*
X144253063Y-118129239D01*
X144200259Y-118174994D01*
X144148748Y-118186200D01*
X143634748Y-118186200D01*
X143567709Y-118166515D01*
X143521954Y-118113711D01*
X143510748Y-118062200D01*
X143510748Y-116332562D01*
X143530433Y-116265523D01*
X143547067Y-116244881D01*
X145379429Y-114412519D01*
X145440752Y-114379034D01*
X145467110Y-114376200D01*
X150444386Y-114376200D01*
X150511425Y-114395885D01*
G37*
%TD.AperFunction*%
%TD*%
%TA.AperFunction,Conductor*%
%TO.N,GND*%
G36*
X152789750Y-110736842D02*
G01*
X152789753Y-110736842D01*
X152789755Y-110736843D01*
X152826058Y-110739700D01*
X152826066Y-110739700D01*
X153289748Y-110739700D01*
X153289748Y-114837700D01*
X152826050Y-114837700D01*
X152789756Y-114840556D01*
X152789750Y-114840557D01*
X152639534Y-114884200D01*
X152378248Y-114884200D01*
X152359716Y-114854156D01*
X152239792Y-114734232D01*
X152239788Y-114734229D01*
X152095453Y-114645201D01*
X152095447Y-114645198D01*
X152095445Y-114645197D01*
X152095442Y-114645196D01*
X151934457Y-114591851D01*
X151835100Y-114581700D01*
X151835093Y-114581700D01*
X151463248Y-114581700D01*
X150241748Y-113360200D01*
X148463748Y-113360200D01*
X148463748Y-112090200D01*
X150241748Y-112090200D01*
X151460324Y-110871623D01*
X151460490Y-110871533D01*
X151486848Y-110868699D01*
X151835086Y-110868699D01*
X151835092Y-110868699D01*
X151835100Y-110868698D01*
X151835103Y-110868698D01*
X151889508Y-110863140D01*
X151934456Y-110858549D01*
X152095445Y-110805203D01*
X152239792Y-110716168D01*
X152262760Y-110693200D01*
X152639537Y-110693200D01*
X152789750Y-110736842D01*
G37*
%TD.AperFunction*%
%TD*%
%TA.AperFunction,Conductor*%
%TO.N,Net-(U1-VO)*%
G36*
X149495425Y-107791885D02*
G01*
X149516067Y-107808519D01*
X151130748Y-109423200D01*
X152984386Y-109423200D01*
X153051425Y-109442885D01*
X153072067Y-109459519D01*
X153253429Y-109640881D01*
X153286914Y-109702204D01*
X153289748Y-109728562D01*
X153289748Y-110014700D01*
X153270063Y-110081739D01*
X153217259Y-110127494D01*
X153165748Y-110138700D01*
X152826050Y-110138700D01*
X152789756Y-110141556D01*
X152789753Y-110141557D01*
X152695632Y-110168902D01*
X152647879Y-110182776D01*
X152613285Y-110187700D01*
X152262743Y-110187700D01*
X152155306Y-110199252D01*
X152155301Y-110199253D01*
X152020500Y-110249532D01*
X151994384Y-110269083D01*
X151969825Y-110287467D01*
X151904363Y-110311884D01*
X151895516Y-110312200D01*
X150622747Y-110312200D01*
X150024067Y-110910881D01*
X149962744Y-110944366D01*
X149936386Y-110947200D01*
X148587748Y-110947200D01*
X148520709Y-110927515D01*
X148474954Y-110874711D01*
X148463748Y-110823200D01*
X148463748Y-109093562D01*
X148483433Y-109026523D01*
X148500067Y-109005881D01*
X148844748Y-108661200D01*
X148844748Y-107896200D01*
X148864433Y-107829161D01*
X148917237Y-107783406D01*
X148968748Y-107772200D01*
X149428386Y-107772200D01*
X149495425Y-107791885D01*
G37*
%TD.AperFunction*%
%TD*%
%TA.AperFunction,Conductor*%
%TO.N,GND*%
G36*
X158111028Y-77057885D02*
G01*
X158156783Y-77110689D01*
X158167517Y-77173007D01*
X158157089Y-77292198D01*
X158157089Y-77292200D01*
X158177684Y-77527603D01*
X158177686Y-77527613D01*
X158238842Y-77755855D01*
X158238844Y-77755859D01*
X158238845Y-77755863D01*
X158281694Y-77847752D01*
X158338713Y-77970030D01*
X158338715Y-77970034D01*
X158360758Y-78001514D01*
X158471811Y-78160114D01*
X158474249Y-78163595D01*
X158474254Y-78163602D01*
X158641345Y-78330693D01*
X158641351Y-78330698D01*
X158826906Y-78460625D01*
X158870531Y-78515202D01*
X158877725Y-78584700D01*
X158846202Y-78647055D01*
X158826906Y-78663775D01*
X158641345Y-78793705D01*
X158474253Y-78960797D01*
X158338713Y-79154369D01*
X158338712Y-79154371D01*
X158238846Y-79368535D01*
X158238842Y-79368544D01*
X158177686Y-79596786D01*
X158177684Y-79596796D01*
X158157089Y-79832199D01*
X158157089Y-79832200D01*
X158177684Y-80067603D01*
X158177686Y-80067613D01*
X158238842Y-80295855D01*
X158238844Y-80295859D01*
X158238845Y-80295863D01*
X158313283Y-80455495D01*
X158323775Y-80524573D01*
X158295255Y-80588357D01*
X158236779Y-80626596D01*
X158200901Y-80631900D01*
X157972718Y-80631900D01*
X157820870Y-80631900D01*
X157674196Y-80671201D01*
X157674195Y-80671201D01*
X157674193Y-80671202D01*
X157674192Y-80671202D01*
X157542695Y-80747122D01*
X157542689Y-80747127D01*
X156892275Y-81397541D01*
X156892270Y-81397547D01*
X156816350Y-81529044D01*
X156816350Y-81529045D01*
X156816349Y-81529047D01*
X156816349Y-81529048D01*
X156810013Y-81552694D01*
X156777048Y-81675722D01*
X156777048Y-83077027D01*
X156757363Y-83144066D01*
X156704559Y-83189821D01*
X156635401Y-83199765D01*
X156571845Y-83170740D01*
X156546316Y-83140148D01*
X156509867Y-83078516D01*
X156509860Y-83078507D01*
X156395440Y-82964087D01*
X156395432Y-82964081D01*
X156318455Y-82918557D01*
X156256143Y-82881706D01*
X156256142Y-82881705D01*
X156256141Y-82881705D01*
X156256138Y-82881704D01*
X156100745Y-82836557D01*
X156100739Y-82836556D01*
X156064445Y-82833700D01*
X156064438Y-82833700D01*
X155595058Y-82833700D01*
X155595050Y-82833700D01*
X155558756Y-82836556D01*
X155558750Y-82836557D01*
X155403357Y-82881704D01*
X155403354Y-82881705D01*
X155264063Y-82964081D01*
X155264055Y-82964087D01*
X155226964Y-83001180D01*
X155165642Y-83034666D01*
X155139282Y-83037500D01*
X153901672Y-83037500D01*
X153749824Y-83037500D01*
X153603150Y-83076801D01*
X153603149Y-83076801D01*
X153603147Y-83076802D01*
X153603146Y-83076802D01*
X153471649Y-83152722D01*
X153471643Y-83152727D01*
X153468529Y-83155842D01*
X153465255Y-83157629D01*
X153465200Y-83157672D01*
X153465193Y-83157663D01*
X153407206Y-83189327D01*
X153337514Y-83184343D01*
X153281581Y-83142471D01*
X153257164Y-83077007D01*
X153256848Y-83068161D01*
X153256848Y-82939959D01*
X153276533Y-82872920D01*
X153293162Y-82852282D01*
X154297427Y-81848017D01*
X154358750Y-81814533D01*
X154385108Y-81811699D01*
X154731086Y-81811699D01*
X154731092Y-81811699D01*
X154731100Y-81811698D01*
X154731103Y-81811698D01*
X154785508Y-81806140D01*
X154830456Y-81801549D01*
X154991445Y-81748203D01*
X155135792Y-81659168D01*
X155198085Y-81596874D01*
X155259407Y-81563390D01*
X155320361Y-81565480D01*
X155431750Y-81597842D01*
X155431753Y-81597842D01*
X155431755Y-81597843D01*
X155468058Y-81600700D01*
X155468066Y-81600700D01*
X155937430Y-81600700D01*
X155937438Y-81600700D01*
X155973741Y-81597843D01*
X155973743Y-81597842D01*
X155973745Y-81597842D01*
X156014723Y-81585936D01*
X156129143Y-81552694D01*
X156268435Y-81470317D01*
X156382865Y-81355887D01*
X156465242Y-81216595D01*
X156510391Y-81061193D01*
X156513248Y-81024890D01*
X156513248Y-80615510D01*
X156510391Y-80579207D01*
X156509272Y-80575357D01*
X156465243Y-80423809D01*
X156465242Y-80423806D01*
X156465242Y-80423805D01*
X156382865Y-80284513D01*
X156382863Y-80284511D01*
X156382860Y-80284507D01*
X156268440Y-80170087D01*
X156268432Y-80170081D01*
X156140543Y-80094448D01*
X156129143Y-80087706D01*
X156129142Y-80087705D01*
X156129141Y-80087705D01*
X156129138Y-80087704D01*
X155973745Y-80042557D01*
X155973739Y-80042556D01*
X155937445Y-80039700D01*
X155937438Y-80039700D01*
X155468058Y-80039700D01*
X155468050Y-80039700D01*
X155431756Y-80042556D01*
X155431750Y-80042557D01*
X155276346Y-80087707D01*
X155272653Y-80089305D01*
X155269515Y-80089691D01*
X155268861Y-80089882D01*
X155268830Y-80089776D01*
X155203309Y-80097856D01*
X155140350Y-80067559D01*
X155135809Y-80063245D01*
X155135788Y-80063229D01*
X154991453Y-79974201D01*
X154991447Y-79974198D01*
X154991445Y-79974197D01*
X154991442Y-79974196D01*
X154830457Y-79920851D01*
X154731094Y-79910700D01*
X154134410Y-79910700D01*
X154134392Y-79910701D01*
X154035040Y-79920850D01*
X154035037Y-79920851D01*
X153874053Y-79974196D01*
X153874042Y-79974201D01*
X153729707Y-80063229D01*
X153729703Y-80063232D01*
X153609780Y-80183155D01*
X153609777Y-80183159D01*
X153520749Y-80327494D01*
X153520744Y-80327505D01*
X153467399Y-80488490D01*
X153457248Y-80587847D01*
X153457248Y-80933839D01*
X153437563Y-81000878D01*
X153420929Y-81021520D01*
X152285050Y-82157400D01*
X152172949Y-82269500D01*
X152172947Y-82269503D01*
X152093681Y-82406797D01*
X152052648Y-82559933D01*
X152052648Y-83264200D01*
X152032963Y-83331239D01*
X151980159Y-83376994D01*
X151928648Y-83388200D01*
X151500500Y-83388200D01*
X151433461Y-83368515D01*
X151387706Y-83315711D01*
X151376500Y-83264200D01*
X151376500Y-81131399D01*
X151380396Y-81100561D01*
X151390504Y-81061193D01*
X151397040Y-81035738D01*
X151397040Y-80873910D01*
X151364487Y-80747125D01*
X151356795Y-80717165D01*
X151278836Y-80575357D01*
X151278835Y-80575355D01*
X151255185Y-80547665D01*
X151255170Y-80547649D01*
X150923298Y-80215777D01*
X150923281Y-80215761D01*
X150895594Y-80192114D01*
X150895593Y-80192113D01*
X150838362Y-80160650D01*
X150810419Y-80139669D01*
X150383305Y-79712554D01*
X150383300Y-79712550D01*
X150381446Y-79711311D01*
X150362665Y-79695897D01*
X150247531Y-79580763D01*
X150219841Y-79557113D01*
X150219839Y-79557112D01*
X150219838Y-79557111D01*
X150078032Y-79479153D01*
X150054978Y-79473234D01*
X149994940Y-79437496D01*
X149965713Y-79383967D01*
X149959795Y-79360918D01*
X149881835Y-79219107D01*
X149858185Y-79191417D01*
X149743045Y-79076277D01*
X149727632Y-79057496D01*
X149726396Y-79055646D01*
X149299275Y-78628524D01*
X149278295Y-78600582D01*
X149246835Y-78543355D01*
X149246834Y-78543353D01*
X149223186Y-78515666D01*
X149223170Y-78515649D01*
X148891298Y-78183777D01*
X148891281Y-78183761D01*
X148863594Y-78160114D01*
X148863593Y-78160113D01*
X148806362Y-78128650D01*
X148778419Y-78107669D01*
X148392895Y-77722143D01*
X148392894Y-77722142D01*
X148269318Y-77639572D01*
X148269317Y-77639571D01*
X148269315Y-77639570D01*
X148269312Y-77639568D01*
X148269307Y-77639566D01*
X148186468Y-77605254D01*
X148132006Y-77582695D01*
X148107820Y-77577884D01*
X147986240Y-77553699D01*
X147986238Y-77553699D01*
X147837614Y-77553699D01*
X147831500Y-77553699D01*
X147831480Y-77553700D01*
X144262248Y-77553700D01*
X144195209Y-77534015D01*
X144149454Y-77481211D01*
X144138248Y-77429700D01*
X144138248Y-77162200D01*
X144157933Y-77095161D01*
X144210737Y-77049406D01*
X144262248Y-77038200D01*
X158043989Y-77038200D01*
X158111028Y-77057885D01*
G37*
%TD.AperFunction*%
%TA.AperFunction,Conductor*%
G36*
X140269539Y-77057885D02*
G01*
X140315294Y-77110689D01*
X140326500Y-77162200D01*
X140326500Y-77180002D01*
X140331644Y-77251940D01*
X140372182Y-77389994D01*
X140449967Y-77511030D01*
X140449971Y-77511034D01*
X140527121Y-77577885D01*
X140558706Y-77605254D01*
X140599174Y-77623735D01*
X140689580Y-77665023D01*
X140689583Y-77665023D01*
X140689584Y-77665024D01*
X140832000Y-77685500D01*
X140832003Y-77685500D01*
X141462000Y-77685500D01*
X141533940Y-77680355D01*
X141671992Y-77639819D01*
X141793032Y-77562031D01*
X141887254Y-77453294D01*
X141947024Y-77322416D01*
X141967500Y-77180000D01*
X141967500Y-77162200D01*
X141987185Y-77095161D01*
X142039989Y-77049406D01*
X142091500Y-77038200D01*
X142502500Y-77038200D01*
X142569539Y-77057885D01*
X142615294Y-77110689D01*
X142626500Y-77162200D01*
X142626500Y-77180002D01*
X142628932Y-77214004D01*
X142629248Y-77222850D01*
X142629248Y-77847752D01*
X142629247Y-77847778D01*
X142629247Y-77852888D01*
X142629247Y-78001512D01*
X142653432Y-78123094D01*
X142658243Y-78147280D01*
X142673355Y-78183763D01*
X142673355Y-78183764D01*
X142715114Y-78284581D01*
X142715120Y-78284592D01*
X142797690Y-78408168D01*
X142797691Y-78408169D01*
X143174349Y-78784825D01*
X143174368Y-78784846D01*
X143283776Y-78894254D01*
X143283783Y-78894260D01*
X143407356Y-78976828D01*
X143407357Y-78976828D01*
X143407358Y-78976829D01*
X143544668Y-79033705D01*
X143664249Y-79057491D01*
X143690431Y-79062699D01*
X143690435Y-79062700D01*
X143690436Y-79062700D01*
X147548038Y-79062700D01*
X147615077Y-79082385D01*
X147635719Y-79099018D01*
X147711397Y-79174695D01*
X147732378Y-79202640D01*
X147763837Y-79259864D01*
X147763840Y-79259868D01*
X147787487Y-79287555D01*
X147787503Y-79287572D01*
X148119375Y-79619444D01*
X148119392Y-79619460D01*
X148147079Y-79643107D01*
X148147079Y-79643108D01*
X148147081Y-79643109D01*
X148204308Y-79674569D01*
X148232250Y-79695549D01*
X148264252Y-79727551D01*
X148296675Y-79784394D01*
X148320879Y-79878662D01*
X148383090Y-79991824D01*
X148398839Y-80020471D01*
X148401100Y-80023118D01*
X148401895Y-80024893D01*
X148402442Y-80025684D01*
X148402295Y-80025785D01*
X148429672Y-80086876D01*
X148419238Y-80155962D01*
X148373110Y-80208440D01*
X148305932Y-80227649D01*
X148274722Y-80223428D01*
X148270706Y-80222352D01*
X148260805Y-80219699D01*
X148102691Y-80219699D01*
X148095095Y-80219699D01*
X148095079Y-80219700D01*
X147268160Y-80219700D01*
X147201121Y-80200015D01*
X147190845Y-80192645D01*
X147188011Y-80190385D01*
X147188010Y-80190384D01*
X147093256Y-80130846D01*
X147035271Y-80094411D01*
X146865002Y-80034831D01*
X146864997Y-80034830D01*
X146685752Y-80014635D01*
X146685744Y-80014635D01*
X146506498Y-80034830D01*
X146506485Y-80034833D01*
X146329654Y-80096710D01*
X146328862Y-80094448D01*
X146270987Y-80103972D01*
X146230559Y-80090200D01*
X146230299Y-80090803D01*
X146223138Y-80087704D01*
X146067745Y-80042557D01*
X146067739Y-80042556D01*
X146031445Y-80039700D01*
X146031438Y-80039700D01*
X145562058Y-80039700D01*
X145562050Y-80039700D01*
X145525748Y-80042557D01*
X145524020Y-80042873D01*
X145523044Y-80042770D01*
X145519438Y-80043054D01*
X145519385Y-80042384D01*
X145454536Y-80035551D01*
X145400040Y-79991824D01*
X145396223Y-79986010D01*
X145337716Y-79891156D01*
X145217792Y-79771232D01*
X145217788Y-79771229D01*
X145073453Y-79682201D01*
X145073447Y-79682198D01*
X145073445Y-79682197D01*
X145050419Y-79674567D01*
X144912457Y-79628851D01*
X144813094Y-79618700D01*
X144266410Y-79618700D01*
X144266392Y-79618701D01*
X144167040Y-79628850D01*
X144167037Y-79628851D01*
X144006053Y-79682196D01*
X144006042Y-79682201D01*
X143861707Y-79771229D01*
X143861703Y-79771232D01*
X143741780Y-79891155D01*
X143741777Y-79891159D01*
X143652749Y-80035494D01*
X143652744Y-80035505D01*
X143599399Y-80196490D01*
X143589248Y-80295847D01*
X143589248Y-80892537D01*
X143589250Y-80892560D01*
X143589693Y-80896893D01*
X143576927Y-80965586D01*
X143529049Y-81016473D01*
X143466336Y-81033500D01*
X138720987Y-81033500D01*
X138653948Y-81013815D01*
X138633306Y-80997181D01*
X137978401Y-80342276D01*
X137944916Y-80280953D01*
X137946307Y-80222501D01*
X137948109Y-80215777D01*
X137987811Y-80067608D01*
X138008407Y-79832200D01*
X137987811Y-79596792D01*
X137926651Y-79368537D01*
X137826783Y-79154371D01*
X137772106Y-79076283D01*
X137691242Y-78960797D01*
X137524150Y-78793706D01*
X137524144Y-78793701D01*
X137338590Y-78663775D01*
X137294965Y-78609198D01*
X137287771Y-78539700D01*
X137319294Y-78477345D01*
X137338590Y-78460625D01*
X137413509Y-78408166D01*
X137524149Y-78330695D01*
X137691243Y-78163601D01*
X137826783Y-77970030D01*
X137926651Y-77755863D01*
X137987811Y-77527608D01*
X138008407Y-77292200D01*
X137998591Y-77180000D01*
X137997979Y-77173007D01*
X138011746Y-77104507D01*
X138060361Y-77054324D01*
X138121507Y-77038200D01*
X140202500Y-77038200D01*
X140269539Y-77057885D01*
G37*
%TD.AperFunction*%
%TD*%
%TA.AperFunction,Conductor*%
%TO.N,GND*%
G36*
X140578744Y-103600885D02*
G01*
X140599386Y-103617519D01*
X140757094Y-103775227D01*
X140757095Y-103775228D01*
X140757097Y-103775229D01*
X140888594Y-103851149D01*
X140888595Y-103851149D01*
X140888598Y-103851151D01*
X141035271Y-103890452D01*
X141035272Y-103890452D01*
X143465248Y-103890452D01*
X143532287Y-103910137D01*
X143578042Y-103962941D01*
X143589248Y-104014452D01*
X143589248Y-104514537D01*
X143589249Y-104514555D01*
X143599398Y-104613907D01*
X143599401Y-104613917D01*
X143604630Y-104629698D01*
X143607031Y-104699526D01*
X143571299Y-104759567D01*
X143508778Y-104790759D01*
X143486925Y-104792700D01*
X143309578Y-104792700D01*
X143309556Y-104792701D01*
X143273542Y-104795535D01*
X143119359Y-104840329D01*
X143119349Y-104840333D01*
X143111137Y-104845190D01*
X143043412Y-104862369D01*
X143007067Y-104855497D01*
X142928005Y-104827832D01*
X142927997Y-104827830D01*
X142748752Y-104807635D01*
X142748744Y-104807635D01*
X142569498Y-104827830D01*
X142569493Y-104827831D01*
X142399224Y-104887411D01*
X142246485Y-104983384D01*
X142114008Y-105115862D01*
X142112017Y-105113871D01*
X142065178Y-105146705D01*
X141995365Y-105149513D01*
X141935116Y-105114130D01*
X141906036Y-105059510D01*
X141906016Y-105059518D01*
X141905969Y-105059384D01*
X141904597Y-105056807D01*
X141903716Y-105052951D01*
X141903716Y-105052945D01*
X141844137Y-104882678D01*
X141748164Y-104729938D01*
X141620610Y-104602384D01*
X141544195Y-104554369D01*
X141467871Y-104506411D01*
X141297602Y-104446831D01*
X141297597Y-104446830D01*
X141118352Y-104426635D01*
X141118344Y-104426635D01*
X140939098Y-104446830D01*
X140939093Y-104446831D01*
X140768824Y-104506411D01*
X140616085Y-104602384D01*
X140488532Y-104729937D01*
X140392559Y-104882676D01*
X140332979Y-105052945D01*
X140332978Y-105052950D01*
X140312783Y-105232196D01*
X140312783Y-105232203D01*
X140332978Y-105411449D01*
X140332979Y-105411454D01*
X140392559Y-105581723D01*
X140464279Y-105695864D01*
X140488532Y-105734462D01*
X140616086Y-105862016D01*
X140683939Y-105904651D01*
X140761619Y-105953461D01*
X140768826Y-105957989D01*
X140918677Y-106010424D01*
X140939093Y-106017568D01*
X140939098Y-106017569D01*
X141118344Y-106037765D01*
X141118348Y-106037765D01*
X141118352Y-106037765D01*
X141297597Y-106017569D01*
X141297600Y-106017568D01*
X141297603Y-106017568D01*
X141467870Y-105957989D01*
X141620610Y-105862016D01*
X141748164Y-105734462D01*
X141748164Y-105734461D01*
X141753088Y-105729538D01*
X141755094Y-105731544D01*
X141801794Y-105698735D01*
X141871604Y-105695855D01*
X141931890Y-105731174D01*
X141961059Y-105785889D01*
X141961080Y-105785882D01*
X141961125Y-105786012D01*
X141962496Y-105788583D01*
X141963378Y-105792451D01*
X142022959Y-105962723D01*
X142087264Y-106065063D01*
X142118932Y-106115462D01*
X142246486Y-106243016D01*
X142328088Y-106294290D01*
X142363923Y-106316807D01*
X142399226Y-106338989D01*
X142505569Y-106376200D01*
X142569493Y-106398568D01*
X142569498Y-106398569D01*
X142748744Y-106418765D01*
X142748748Y-106418765D01*
X142748752Y-106418765D01*
X142927997Y-106398569D01*
X142927998Y-106398568D01*
X142928003Y-106398568D01*
X143007066Y-106370901D01*
X143076843Y-106367339D01*
X143111139Y-106381210D01*
X143119355Y-106386069D01*
X143119362Y-106386071D01*
X143273539Y-106430864D01*
X143273542Y-106430864D01*
X143273544Y-106430865D01*
X143309567Y-106433700D01*
X143707928Y-106433699D01*
X143743952Y-106430865D01*
X143898141Y-106386069D01*
X143955630Y-106352069D01*
X144023350Y-106334888D01*
X144081865Y-106352069D01*
X144139355Y-106386069D01*
X144139358Y-106386069D01*
X144139360Y-106386071D01*
X144293539Y-106430864D01*
X144293542Y-106430864D01*
X144293544Y-106430865D01*
X144329567Y-106433700D01*
X144727928Y-106433699D01*
X144763952Y-106430865D01*
X144918141Y-106386069D01*
X145056346Y-106304335D01*
X145079756Y-106280924D01*
X145141076Y-106247439D01*
X145210768Y-106252421D01*
X145266703Y-106294290D01*
X145273554Y-106304453D01*
X145295276Y-106340385D01*
X145295279Y-106340389D01*
X145415559Y-106460669D01*
X145415561Y-106460670D01*
X145415563Y-106460672D01*
X145561142Y-106548678D01*
X145723552Y-106599286D01*
X145794132Y-106605700D01*
X145794135Y-106605700D01*
X146307361Y-106605700D01*
X146307364Y-106605700D01*
X146377944Y-106599286D01*
X146540354Y-106548678D01*
X146685933Y-106460672D01*
X146806220Y-106340385D01*
X146894226Y-106194806D01*
X146944834Y-106032396D01*
X146946830Y-106010421D01*
X146972499Y-105945440D01*
X147029226Y-105904651D01*
X147084204Y-105898423D01*
X147193744Y-105910765D01*
X147193748Y-105910765D01*
X147193752Y-105910765D01*
X147372997Y-105890569D01*
X147373000Y-105890568D01*
X147373003Y-105890568D01*
X147543270Y-105830989D01*
X147696010Y-105735016D01*
X147823564Y-105607462D01*
X147919537Y-105454722D01*
X147979116Y-105284455D01*
X147981457Y-105263678D01*
X147999313Y-105105203D01*
X147999313Y-105105196D01*
X147979117Y-104925950D01*
X147979116Y-104925945D01*
X147963976Y-104882678D01*
X147919537Y-104755678D01*
X147903363Y-104729938D01*
X147840378Y-104629698D01*
X147823564Y-104602938D01*
X147696010Y-104475384D01*
X147650570Y-104446832D01*
X147543271Y-104379411D01*
X147373002Y-104319831D01*
X147372997Y-104319830D01*
X147193752Y-104299635D01*
X147193743Y-104299635D01*
X147084203Y-104311976D01*
X147015382Y-104299921D01*
X146964003Y-104252571D01*
X146946830Y-104199977D01*
X146944834Y-104178004D01*
X146905365Y-104051341D01*
X146904215Y-103981481D01*
X146941016Y-103922089D01*
X147004085Y-103892021D01*
X147023751Y-103890452D01*
X150726957Y-103890452D01*
X150793996Y-103910137D01*
X150814638Y-103926771D01*
X152611886Y-105724019D01*
X152645371Y-105785342D01*
X152640387Y-105855034D01*
X152598515Y-105910967D01*
X152533051Y-105935384D01*
X152524206Y-105935700D01*
X152355578Y-105935700D01*
X152355556Y-105935701D01*
X152319542Y-105938535D01*
X152165359Y-105983329D01*
X152165352Y-105983332D01*
X152107867Y-106017328D01*
X152040143Y-106034509D01*
X151981629Y-106017328D01*
X151924143Y-105983332D01*
X151924136Y-105983329D01*
X151769956Y-105938535D01*
X151769950Y-105938534D01*
X151733929Y-105935700D01*
X151335578Y-105935700D01*
X151335556Y-105935701D01*
X151299542Y-105938535D01*
X151145359Y-105983329D01*
X151145354Y-105983331D01*
X151007152Y-106065063D01*
X151007144Y-106065069D01*
X150893617Y-106178596D01*
X150893611Y-106178604D01*
X150811879Y-106316806D01*
X150811877Y-106316811D01*
X150767083Y-106470991D01*
X150767082Y-106470997D01*
X150764248Y-106507011D01*
X150764248Y-107005369D01*
X150764249Y-107005391D01*
X150767082Y-107041400D01*
X150811879Y-107195593D01*
X150824162Y-107216362D01*
X150841345Y-107284086D01*
X150819185Y-107350348D01*
X150805112Y-107367164D01*
X150724464Y-107447812D01*
X150636203Y-107590904D01*
X150636198Y-107590915D01*
X150629930Y-107609832D01*
X150583312Y-107750515D01*
X150583312Y-107750516D01*
X150583311Y-107750516D01*
X150573248Y-107849018D01*
X150573248Y-107851454D01*
X150573098Y-107851962D01*
X150573088Y-107852174D01*
X150573037Y-107852171D01*
X150553563Y-107918493D01*
X150500759Y-107964248D01*
X150431601Y-107974192D01*
X150368045Y-107945167D01*
X150361567Y-107939135D01*
X150060529Y-107638097D01*
X150034432Y-107594927D01*
X150033305Y-107595435D01*
X150030227Y-107588597D01*
X150030226Y-107588596D01*
X150030226Y-107588594D01*
X149942220Y-107443015D01*
X149942218Y-107443013D01*
X149942217Y-107443011D01*
X149821936Y-107322730D01*
X149758011Y-107284086D01*
X149676354Y-107234722D01*
X149513944Y-107184114D01*
X149513942Y-107184113D01*
X149513940Y-107184113D01*
X149464526Y-107179623D01*
X149443364Y-107177700D01*
X148930132Y-107177700D01*
X148910893Y-107179448D01*
X148859555Y-107184113D01*
X148697141Y-107234722D01*
X148551559Y-107322730D01*
X148551558Y-107322731D01*
X148449429Y-107424861D01*
X148388106Y-107458346D01*
X148318414Y-107453362D01*
X148274067Y-107424861D01*
X148171936Y-107322730D01*
X148108011Y-107284086D01*
X148026354Y-107234722D01*
X147863944Y-107184114D01*
X147863942Y-107184113D01*
X147863940Y-107184113D01*
X147814526Y-107179623D01*
X147793364Y-107177700D01*
X147280132Y-107177700D01*
X147260893Y-107179448D01*
X147209555Y-107184113D01*
X147047141Y-107234722D01*
X146901561Y-107322729D01*
X146820864Y-107403426D01*
X146759540Y-107436910D01*
X146689849Y-107431926D01*
X146679379Y-107427463D01*
X146679273Y-107427412D01*
X146509002Y-107367831D01*
X146508997Y-107367830D01*
X146329752Y-107347635D01*
X146329744Y-107347635D01*
X146150498Y-107367830D01*
X146150493Y-107367831D01*
X145980224Y-107427411D01*
X145827485Y-107523384D01*
X145699932Y-107650937D01*
X145603959Y-107803676D01*
X145544379Y-107973945D01*
X145544378Y-107973950D01*
X145524183Y-108153196D01*
X145524183Y-108153203D01*
X145544378Y-108332449D01*
X145544379Y-108332454D01*
X145603959Y-108502723D01*
X145692475Y-108643595D01*
X145699932Y-108655462D01*
X145827486Y-108783016D01*
X145871534Y-108810693D01*
X145980152Y-108878943D01*
X145980226Y-108878989D01*
X146090856Y-108917700D01*
X146150493Y-108938568D01*
X146150498Y-108938569D01*
X146329744Y-108958765D01*
X146329748Y-108958765D01*
X146329752Y-108958765D01*
X146508997Y-108938569D01*
X146509000Y-108938568D01*
X146509003Y-108938568D01*
X146679270Y-108878989D01*
X146679276Y-108878985D01*
X146679365Y-108878943D01*
X146679433Y-108878931D01*
X146685843Y-108876689D01*
X146686235Y-108877810D01*
X146748305Y-108867581D01*
X146812443Y-108895294D01*
X146820864Y-108902974D01*
X146901559Y-108983669D01*
X146901561Y-108983670D01*
X146901563Y-108983672D01*
X147047142Y-109071678D01*
X147209552Y-109122286D01*
X147280132Y-109128700D01*
X147280135Y-109128700D01*
X147793360Y-109128700D01*
X147793364Y-109128700D01*
X147823026Y-109126004D01*
X147891571Y-109139540D01*
X147941917Y-109187986D01*
X147958248Y-109249495D01*
X147958248Y-109408422D01*
X147938563Y-109475461D01*
X147930896Y-109486108D01*
X147858720Y-109575900D01*
X147774108Y-109746504D01*
X147728148Y-109931307D01*
X147725248Y-109974079D01*
X147725248Y-110876322D01*
X147725249Y-110876325D01*
X147728147Y-110919086D01*
X147728147Y-110919087D01*
X147736370Y-110952151D01*
X147772609Y-111097871D01*
X147774108Y-111103896D01*
X147858715Y-111274492D01*
X147858717Y-111274495D01*
X147978025Y-111422921D01*
X147978026Y-111422922D01*
X148126452Y-111542230D01*
X148126455Y-111542232D01*
X148297050Y-111626839D01*
X148297051Y-111626839D01*
X148297055Y-111626841D01*
X148481859Y-111672800D01*
X148524625Y-111675700D01*
X149926870Y-111675699D01*
X149969637Y-111672800D01*
X150154441Y-111626841D01*
X150325044Y-111542230D01*
X150473470Y-111422922D01*
X150592778Y-111274496D01*
X150677389Y-111103893D01*
X150680376Y-111097871D01*
X150682283Y-111098817D01*
X150717879Y-111050790D01*
X150783226Y-111026060D01*
X150792664Y-111025700D01*
X150943079Y-111025700D01*
X150943095Y-111025701D01*
X150950691Y-111025701D01*
X151108802Y-111025701D01*
X151108805Y-111025701D01*
X151261533Y-110984777D01*
X151343247Y-110937599D01*
X151398464Y-110905720D01*
X151398467Y-110905717D01*
X151399167Y-110905018D01*
X151399902Y-110904616D01*
X151404914Y-110900771D01*
X151405513Y-110901552D01*
X151460324Y-110871623D01*
X150241748Y-112090200D01*
X148463748Y-112090200D01*
X148463748Y-113360200D01*
X150241748Y-113360200D01*
X151461482Y-114579934D01*
X151400456Y-114562015D01*
X151379814Y-114545381D01*
X151371004Y-114536571D01*
X151303159Y-114479643D01*
X151281865Y-114464762D01*
X151278558Y-114460633D01*
X151259645Y-114448967D01*
X151253627Y-114445008D01*
X151244989Y-114438960D01*
X151235588Y-114434128D01*
X151200453Y-114412452D01*
X151200407Y-114412428D01*
X151161700Y-114388553D01*
X151139116Y-114370696D01*
X151123248Y-114354828D01*
X151105391Y-114332244D01*
X151081555Y-114293600D01*
X151081554Y-114293597D01*
X151059831Y-114258379D01*
X151058707Y-114254272D01*
X151048931Y-114240310D01*
X151044968Y-114234284D01*
X151037608Y-114222352D01*
X151029239Y-114212185D01*
X151014021Y-114190451D01*
X151007960Y-114183228D01*
X150957376Y-114122944D01*
X150889509Y-114055077D01*
X150889485Y-114055055D01*
X150849267Y-114018928D01*
X150849255Y-114018918D01*
X150828604Y-114002276D01*
X150784722Y-113970633D01*
X150653848Y-113910863D01*
X150586803Y-113891176D01*
X150539330Y-113884350D01*
X150444386Y-113870700D01*
X150444384Y-113870700D01*
X150278552Y-113870700D01*
X150223457Y-113857788D01*
X150154443Y-113823560D01*
X150154441Y-113823559D01*
X150080056Y-113805060D01*
X149969640Y-113777600D01*
X149948254Y-113776150D01*
X149926871Y-113774700D01*
X149926868Y-113774700D01*
X148524625Y-113774700D01*
X148524622Y-113774701D01*
X148481861Y-113777599D01*
X148481860Y-113777599D01*
X148297053Y-113823559D01*
X148228039Y-113857788D01*
X148172944Y-113870700D01*
X145467108Y-113870700D01*
X145413059Y-113873597D01*
X145413058Y-113873597D01*
X145386725Y-113876429D01*
X145386698Y-113876432D01*
X145333302Y-113885085D01*
X145333300Y-113885085D01*
X145198495Y-113935366D01*
X145137170Y-113968851D01*
X145021988Y-114055076D01*
X145021976Y-114055086D01*
X144610456Y-114466606D01*
X144549133Y-114500091D01*
X144479441Y-114495107D01*
X144423508Y-114453235D01*
X144399091Y-114387771D01*
X144403559Y-114344816D01*
X144415634Y-114302618D01*
X144426248Y-114183237D01*
X144426247Y-111267164D01*
X144415634Y-111147782D01*
X144359657Y-110952151D01*
X144265446Y-110771793D01*
X144202884Y-110695067D01*
X144136857Y-110614090D01*
X143990671Y-110494892D01*
X143979155Y-110485502D01*
X143798797Y-110391291D01*
X143798796Y-110391290D01*
X143798793Y-110391289D01*
X143674027Y-110355590D01*
X143603166Y-110335314D01*
X143603163Y-110335313D01*
X143603161Y-110335313D01*
X143536850Y-110329417D01*
X143483785Y-110324700D01*
X143483780Y-110324700D01*
X142367719Y-110324700D01*
X142367713Y-110324700D01*
X142367712Y-110324701D01*
X142356064Y-110325736D01*
X142248332Y-110335313D01*
X142052702Y-110391289D01*
X141962520Y-110438396D01*
X141872341Y-110485502D01*
X141872339Y-110485503D01*
X141872338Y-110485504D01*
X141714638Y-110614090D01*
X141612218Y-110739700D01*
X141586050Y-110771793D01*
X141568601Y-110805198D01*
X141491837Y-110952154D01*
X141435862Y-111147783D01*
X141435861Y-111147786D01*
X141425248Y-111267166D01*
X141425248Y-114183228D01*
X141425248Y-114183233D01*
X141425249Y-114183236D01*
X141427319Y-114206530D01*
X141435861Y-114302615D01*
X141491837Y-114498245D01*
X141491838Y-114498248D01*
X141491839Y-114498249D01*
X141586050Y-114678607D01*
X141586052Y-114678609D01*
X141714638Y-114836309D01*
X141805311Y-114910242D01*
X141872341Y-114964898D01*
X142052699Y-115059109D01*
X142248330Y-115115086D01*
X142367711Y-115125700D01*
X143483784Y-115125699D01*
X143603166Y-115115086D01*
X143645362Y-115103012D01*
X143715229Y-115103494D01*
X143773745Y-115141673D01*
X143802331Y-115205428D01*
X143791910Y-115274516D01*
X143767155Y-115309908D01*
X143189640Y-115887423D01*
X143189603Y-115887462D01*
X143153476Y-115927680D01*
X143153466Y-115927692D01*
X143136824Y-115948343D01*
X143105181Y-115992225D01*
X143045411Y-116123099D01*
X143025724Y-116190144D01*
X143005248Y-116332563D01*
X143005248Y-117190055D01*
X142993633Y-117242453D01*
X142991747Y-117246497D01*
X142938399Y-117407490D01*
X142928248Y-117506847D01*
X142928248Y-118103537D01*
X142928249Y-118103555D01*
X142938398Y-118202907D01*
X142938399Y-118202910D01*
X142991744Y-118363894D01*
X142991749Y-118363905D01*
X143080777Y-118508240D01*
X143080780Y-118508244D01*
X143200703Y-118628167D01*
X143200707Y-118628170D01*
X143345042Y-118717198D01*
X143345045Y-118717199D01*
X143345051Y-118717203D01*
X143506040Y-118770549D01*
X143605403Y-118780700D01*
X144152092Y-118780699D01*
X144152100Y-118780698D01*
X144152103Y-118780698D01*
X144206508Y-118775140D01*
X144251456Y-118770549D01*
X144412445Y-118717203D01*
X144432397Y-118704896D01*
X144499786Y-118686455D01*
X144566450Y-118707376D01*
X144611221Y-118761016D01*
X144620714Y-118796550D01*
X144629379Y-118873454D01*
X144642884Y-118912050D01*
X144646445Y-118981829D01*
X144611715Y-119042456D01*
X144573304Y-119067560D01*
X144566656Y-119070314D01*
X144566651Y-119070316D01*
X144441245Y-119166544D01*
X144345018Y-119291949D01*
X144284530Y-119437981D01*
X144284530Y-119437982D01*
X144263898Y-119594689D01*
X144263898Y-120590548D01*
X144284530Y-120747255D01*
X144284530Y-120747256D01*
X144345018Y-120893288D01*
X144345019Y-120893290D01*
X144345020Y-120893291D01*
X144432605Y-121007434D01*
X144441246Y-121018695D01*
X144446608Y-121022809D01*
X144513059Y-121073799D01*
X144539875Y-121094375D01*
X144581078Y-121150803D01*
X144585233Y-121220549D01*
X144551021Y-121281469D01*
X144503396Y-121310456D01*
X144470414Y-121321385D01*
X144470410Y-121321387D01*
X144321096Y-121413486D01*
X144321092Y-121413489D01*
X144197037Y-121537544D01*
X144197034Y-121537548D01*
X144104935Y-121686862D01*
X144104934Y-121686864D01*
X144049749Y-121853403D01*
X144049748Y-121853404D01*
X144039248Y-121956184D01*
X144039248Y-123306215D01*
X144049748Y-123408995D01*
X144049749Y-123408996D01*
X144104934Y-123575535D01*
X144104935Y-123575537D01*
X144197034Y-123724851D01*
X144197037Y-123724855D01*
X144321092Y-123848910D01*
X144321096Y-123848913D01*
X144470410Y-123941012D01*
X144470412Y-123941013D01*
X144470414Y-123941014D01*
X144636951Y-123996199D01*
X144739740Y-124006700D01*
X145581204Y-124006700D01*
X145648243Y-124026385D01*
X145668885Y-124043019D01*
X146112729Y-124486863D01*
X146146214Y-124548186D01*
X146149048Y-124574544D01*
X146149048Y-125459123D01*
X146129363Y-125526162D01*
X146076559Y-125571917D01*
X146057142Y-125578898D01*
X145940259Y-125610217D01*
X145814736Y-125682688D01*
X145814730Y-125682693D01*
X145712241Y-125785182D01*
X145712236Y-125785188D01*
X145639765Y-125910711D01*
X145639764Y-125910715D01*
X145602248Y-126050725D01*
X145602248Y-126195675D01*
X145611454Y-126230030D01*
X145639765Y-126335688D01*
X145712236Y-126461211D01*
X145712238Y-126461213D01*
X145712239Y-126461215D01*
X145814733Y-126563709D01*
X145814734Y-126563710D01*
X145814736Y-126563711D01*
X145940259Y-126636182D01*
X145940260Y-126636182D01*
X145940263Y-126636184D01*
X146080273Y-126673700D01*
X146115568Y-126673700D01*
X146182607Y-126693385D01*
X146214833Y-126723387D01*
X146295202Y-126830746D01*
X146341391Y-126865323D01*
X146410412Y-126916993D01*
X146410419Y-126916997D01*
X146455366Y-126933761D01*
X146545265Y-126967291D01*
X146604875Y-126973700D01*
X147100620Y-126973699D01*
X147160231Y-126967291D01*
X147160234Y-126967289D01*
X147164492Y-126966832D01*
X147191002Y-126966832D01*
X147195262Y-126967289D01*
X147195265Y-126967291D01*
X147254875Y-126973700D01*
X147750620Y-126973699D01*
X147810231Y-126967291D01*
X147810234Y-126967289D01*
X147814492Y-126966832D01*
X147841002Y-126966832D01*
X147845262Y-126967289D01*
X147845265Y-126967291D01*
X147904875Y-126973700D01*
X148400620Y-126973699D01*
X148460231Y-126967291D01*
X148460234Y-126967289D01*
X148464492Y-126966832D01*
X148491002Y-126966832D01*
X148495262Y-126967289D01*
X148495265Y-126967291D01*
X148554875Y-126973700D01*
X149050620Y-126973699D01*
X149110231Y-126967291D01*
X149245079Y-126916996D01*
X149360294Y-126830746D01*
X149446544Y-126715531D01*
X149496839Y-126580683D01*
X149501642Y-126536010D01*
X149528377Y-126471463D01*
X149585769Y-126431614D01*
X149655594Y-126429119D01*
X149712611Y-126461587D01*
X149814733Y-126563709D01*
X149814734Y-126563710D01*
X149814736Y-126563711D01*
X149940259Y-126636182D01*
X149940260Y-126636182D01*
X149940263Y-126636184D01*
X150080273Y-126673700D01*
X150080276Y-126673700D01*
X150225220Y-126673700D01*
X150225223Y-126673700D01*
X150365233Y-126636184D01*
X150490763Y-126563709D01*
X150593257Y-126461215D01*
X150665732Y-126335685D01*
X150703248Y-126195675D01*
X150703248Y-126050725D01*
X150665732Y-125910715D01*
X150593257Y-125785185D01*
X150490763Y-125682691D01*
X150490761Y-125682690D01*
X150490759Y-125682688D01*
X150365236Y-125610217D01*
X150365237Y-125610217D01*
X150353754Y-125607140D01*
X150225223Y-125572700D01*
X150080273Y-125572700D01*
X149951741Y-125607140D01*
X149940259Y-125610217D01*
X149814736Y-125682688D01*
X149714928Y-125782496D01*
X149653605Y-125815980D01*
X149583913Y-125810996D01*
X149527980Y-125769124D01*
X149503563Y-125703659D01*
X149503247Y-125694814D01*
X149503247Y-125075329D01*
X149503246Y-125075323D01*
X149496839Y-125015716D01*
X149446545Y-124880871D01*
X149446541Y-124880864D01*
X149360295Y-124765655D01*
X149360292Y-124765652D01*
X149245083Y-124679406D01*
X149245076Y-124679402D01*
X149110230Y-124629108D01*
X149110231Y-124629108D01*
X149050631Y-124622701D01*
X149050629Y-124622700D01*
X149050621Y-124622700D01*
X149050613Y-124622700D01*
X148877248Y-124622700D01*
X148810209Y-124603015D01*
X148764454Y-124550211D01*
X148753248Y-124498700D01*
X148753248Y-123623296D01*
X148772933Y-123556257D01*
X148789563Y-123535619D01*
X149176769Y-123148412D01*
X149238090Y-123114929D01*
X149307781Y-123119913D01*
X149327559Y-123129358D01*
X149384350Y-123162944D01*
X149384353Y-123162944D01*
X149384355Y-123162946D01*
X149542174Y-123208797D01*
X149542177Y-123208797D01*
X149542179Y-123208798D01*
X149579054Y-123211700D01*
X149579062Y-123211700D01*
X150010434Y-123211700D01*
X150010442Y-123211700D01*
X150047317Y-123208798D01*
X150047319Y-123208797D01*
X150047321Y-123208797D01*
X150088939Y-123196705D01*
X150205146Y-123162944D01*
X150346613Y-123079281D01*
X150451676Y-122974217D01*
X150512997Y-122940734D01*
X150539356Y-122937900D01*
X151272722Y-122937900D01*
X151272724Y-122937900D01*
X151419398Y-122898599D01*
X151550902Y-122822675D01*
X153266293Y-121107282D01*
X153327614Y-121073799D01*
X153397305Y-121078783D01*
X153441652Y-121107283D01*
X153483587Y-121149217D01*
X153540462Y-121206092D01*
X153674231Y-121295473D01*
X153813953Y-121353347D01*
X153822857Y-121357035D01*
X153980636Y-121388419D01*
X153980640Y-121388420D01*
X153980641Y-121388420D01*
X154141514Y-121388420D01*
X154141516Y-121388420D01*
X154299300Y-121357036D01*
X154447930Y-121295472D01*
X154581693Y-121206095D01*
X154581697Y-121206090D01*
X154581703Y-121206086D01*
X154584888Y-121202900D01*
X154584890Y-121202900D01*
X154659586Y-121128203D01*
X154668403Y-121119385D01*
X154668564Y-121119244D01*
X154673993Y-121113812D01*
X154673996Y-121113811D01*
X154687151Y-121100650D01*
X154687287Y-121100576D01*
X154723532Y-121064318D01*
X154723533Y-121064319D01*
X154780398Y-121007434D01*
X154869749Y-120873664D01*
X154931289Y-120725035D01*
X154962654Y-120567256D01*
X154962638Y-120406390D01*
X154931244Y-120248617D01*
X154869676Y-120099999D01*
X154780300Y-119966246D01*
X154723424Y-119909372D01*
X154723424Y-119909371D01*
X154723422Y-119909370D01*
X154681495Y-119867443D01*
X154648010Y-119806120D01*
X154652994Y-119736428D01*
X154681493Y-119692083D01*
X155961023Y-118412554D01*
X156036947Y-118281050D01*
X156076248Y-118134376D01*
X156076248Y-117982528D01*
X156076248Y-116499639D01*
X156095933Y-116432600D01*
X156148737Y-116386845D01*
X156217895Y-116376901D01*
X156281451Y-116405926D01*
X156287929Y-116411958D01*
X158203275Y-118327304D01*
X158235367Y-118382885D01*
X158238845Y-118395863D01*
X158338713Y-118610030D01*
X158338715Y-118610034D01*
X158474249Y-118803595D01*
X158474254Y-118803602D01*
X158641345Y-118970693D01*
X158641351Y-118970698D01*
X158826906Y-119100625D01*
X158870531Y-119155202D01*
X158877725Y-119224700D01*
X158846202Y-119287055D01*
X158826906Y-119303775D01*
X158641345Y-119433705D01*
X158474253Y-119600797D01*
X158338713Y-119794369D01*
X158338712Y-119794371D01*
X158238846Y-120008535D01*
X158238842Y-120008544D01*
X158177686Y-120236786D01*
X158177684Y-120236796D01*
X158157089Y-120472199D01*
X158157089Y-120472200D01*
X158177684Y-120707603D01*
X158177686Y-120707613D01*
X158238842Y-120935855D01*
X158238844Y-120935859D01*
X158238845Y-120935863D01*
X158324357Y-121119244D01*
X158338713Y-121150030D01*
X158338715Y-121150034D01*
X158388091Y-121220549D01*
X158458696Y-121321384D01*
X158474249Y-121343595D01*
X158474254Y-121343602D01*
X158641345Y-121510693D01*
X158641351Y-121510698D01*
X158826906Y-121640625D01*
X158870531Y-121695202D01*
X158877725Y-121764700D01*
X158846202Y-121827055D01*
X158826906Y-121843775D01*
X158641345Y-121973705D01*
X158474253Y-122140797D01*
X158338713Y-122334369D01*
X158338712Y-122334371D01*
X158238846Y-122548535D01*
X158238842Y-122548544D01*
X158177686Y-122776786D01*
X158177684Y-122776796D01*
X158157089Y-123012199D01*
X158157089Y-123012200D01*
X158177684Y-123247603D01*
X158177686Y-123247613D01*
X158238842Y-123475855D01*
X158238844Y-123475859D01*
X158238845Y-123475863D01*
X158338713Y-123690030D01*
X158338715Y-123690034D01*
X158474249Y-123883595D01*
X158474254Y-123883602D01*
X158641345Y-124050693D01*
X158641351Y-124050698D01*
X158826906Y-124180625D01*
X158870531Y-124235202D01*
X158877725Y-124304700D01*
X158846202Y-124367055D01*
X158826906Y-124383775D01*
X158641345Y-124513705D01*
X158474253Y-124680797D01*
X158338713Y-124874369D01*
X158338712Y-124874371D01*
X158238846Y-125088535D01*
X158238842Y-125088544D01*
X158177686Y-125316786D01*
X158177684Y-125316796D01*
X158157089Y-125552199D01*
X158157089Y-125552200D01*
X158177684Y-125787603D01*
X158177686Y-125787613D01*
X158238842Y-126015855D01*
X158238844Y-126015859D01*
X158238845Y-126015863D01*
X158322692Y-126195672D01*
X158338713Y-126230030D01*
X158338715Y-126230034D01*
X158447029Y-126384721D01*
X158474253Y-126423601D01*
X158641347Y-126590695D01*
X158706309Y-126636182D01*
X158834913Y-126726232D01*
X158834915Y-126726233D01*
X158834918Y-126726235D01*
X158940652Y-126775539D01*
X158993092Y-126821711D01*
X159012248Y-126887921D01*
X159012248Y-129245700D01*
X158992563Y-129312739D01*
X158939759Y-129358494D01*
X158888248Y-129369700D01*
X137277248Y-129369700D01*
X137210209Y-129350015D01*
X137164454Y-129297211D01*
X137153248Y-129245700D01*
X137153248Y-126887921D01*
X137172933Y-126820882D01*
X137224843Y-126775539D01*
X137330578Y-126726235D01*
X137524149Y-126590695D01*
X137691243Y-126423601D01*
X137826783Y-126230030D01*
X137926651Y-126015863D01*
X137987811Y-125787608D01*
X138008407Y-125552200D01*
X137987811Y-125316792D01*
X137926651Y-125088537D01*
X137826783Y-124874371D01*
X137750658Y-124765652D01*
X137691242Y-124680797D01*
X137524150Y-124513706D01*
X137524144Y-124513701D01*
X137338590Y-124383775D01*
X137294965Y-124329198D01*
X137287771Y-124259700D01*
X137319294Y-124197345D01*
X137338590Y-124180625D01*
X137360774Y-124165091D01*
X137524149Y-124050695D01*
X137691243Y-123883601D01*
X137826783Y-123690030D01*
X137926651Y-123475863D01*
X137987811Y-123247608D01*
X138008407Y-123012200D01*
X137987811Y-122776792D01*
X137926651Y-122548537D01*
X137826783Y-122334371D01*
X137818739Y-122322882D01*
X137691242Y-122140797D01*
X137524150Y-121973706D01*
X137524144Y-121973701D01*
X137499127Y-121956184D01*
X141064248Y-121956184D01*
X141064248Y-123306215D01*
X141074748Y-123408995D01*
X141074749Y-123408996D01*
X141129934Y-123575535D01*
X141129935Y-123575537D01*
X141222034Y-123724851D01*
X141222037Y-123724855D01*
X141346092Y-123848910D01*
X141346096Y-123848913D01*
X141495410Y-123941012D01*
X141495412Y-123941013D01*
X141495414Y-123941014D01*
X141661951Y-123996199D01*
X141764740Y-124006700D01*
X141764745Y-124006700D01*
X142789751Y-124006700D01*
X142789756Y-124006700D01*
X142892545Y-123996199D01*
X143059082Y-123941014D01*
X143208403Y-123848911D01*
X143332459Y-123724855D01*
X143424562Y-123575534D01*
X143479747Y-123408997D01*
X143490248Y-123306208D01*
X143490248Y-121956192D01*
X143479747Y-121853403D01*
X143424562Y-121686866D01*
X143399500Y-121646235D01*
X143332461Y-121537548D01*
X143332458Y-121537544D01*
X143208402Y-121413488D01*
X143059080Y-121321384D01*
X143052541Y-121318335D01*
X143000102Y-121272161D01*
X142980948Y-121205954D01*
X142980948Y-121174802D01*
X143000633Y-121107763D01*
X143029462Y-121076426D01*
X143032886Y-121073799D01*
X143099338Y-121022809D01*
X143195563Y-120897406D01*
X143256053Y-120751371D01*
X143276685Y-120594656D01*
X143276685Y-119590583D01*
X143256053Y-119433868D01*
X143209266Y-119320916D01*
X143195564Y-119287835D01*
X143195563Y-119287834D01*
X143195563Y-119287833D01*
X143099338Y-119162430D01*
X142973935Y-119066205D01*
X142973934Y-119066204D01*
X142973932Y-119066203D01*
X142868910Y-119022702D01*
X142827900Y-119005715D01*
X142808310Y-119003136D01*
X142671192Y-118985083D01*
X142671185Y-118985083D01*
X142367000Y-118985083D01*
X142366999Y-118985083D01*
X142332392Y-118989639D01*
X142316207Y-118990700D01*
X141841410Y-118990700D01*
X141841392Y-118990701D01*
X141742040Y-119000850D01*
X141742037Y-119000851D01*
X141581053Y-119054196D01*
X141581042Y-119054201D01*
X141436707Y-119143229D01*
X141436703Y-119143232D01*
X141316780Y-119263155D01*
X141316777Y-119263159D01*
X141227749Y-119407494D01*
X141227744Y-119407505D01*
X141174399Y-119568490D01*
X141164248Y-119667847D01*
X141164248Y-120514537D01*
X141164249Y-120514555D01*
X141174398Y-120613907D01*
X141174399Y-120613910D01*
X141227744Y-120774894D01*
X141227749Y-120774905D01*
X141316777Y-120919240D01*
X141316780Y-120919244D01*
X141436704Y-121039168D01*
X141514646Y-121087244D01*
X141561369Y-121139190D01*
X141573548Y-121192781D01*
X141573548Y-121205954D01*
X141553863Y-121272993D01*
X141501955Y-121318335D01*
X141495415Y-121321384D01*
X141346093Y-121413488D01*
X141222037Y-121537544D01*
X141222034Y-121537548D01*
X141129935Y-121686862D01*
X141129934Y-121686864D01*
X141074749Y-121853403D01*
X141074748Y-121853404D01*
X141064248Y-121956184D01*
X137499127Y-121956184D01*
X137338590Y-121843775D01*
X137294965Y-121789198D01*
X137287771Y-121719700D01*
X137319294Y-121657345D01*
X137338590Y-121640625D01*
X137454511Y-121559456D01*
X137524149Y-121510695D01*
X137691243Y-121343601D01*
X137826783Y-121150030D01*
X137926651Y-120935863D01*
X137987811Y-120707608D01*
X138008407Y-120472200D01*
X137987811Y-120236792D01*
X137926651Y-120008537D01*
X137826783Y-119794371D01*
X137802247Y-119759329D01*
X137691242Y-119600797D01*
X137524150Y-119433706D01*
X137524144Y-119433701D01*
X137338590Y-119303775D01*
X137294965Y-119249198D01*
X137287771Y-119179700D01*
X137319294Y-119117345D01*
X137338590Y-119100625D01*
X137381878Y-119070314D01*
X137524149Y-118970695D01*
X137691243Y-118803601D01*
X137826783Y-118610030D01*
X137926651Y-118395863D01*
X137987811Y-118167608D01*
X138008407Y-117932200D01*
X137987811Y-117696792D01*
X137926651Y-117468537D01*
X137826783Y-117254371D01*
X137691243Y-117060799D01*
X137691242Y-117060797D01*
X137524150Y-116893706D01*
X137524144Y-116893701D01*
X137338590Y-116763775D01*
X137294965Y-116709198D01*
X137287771Y-116639700D01*
X137319294Y-116577345D01*
X137338590Y-116560625D01*
X137521428Y-116432600D01*
X137524149Y-116430695D01*
X137691243Y-116263601D01*
X137826783Y-116070030D01*
X137926651Y-115855863D01*
X137987811Y-115627608D01*
X138008407Y-115392200D01*
X137987811Y-115156792D01*
X137926651Y-114928537D01*
X137826783Y-114714371D01*
X137801743Y-114678609D01*
X137691242Y-114520797D01*
X137524150Y-114353706D01*
X137524144Y-114353701D01*
X137338590Y-114223775D01*
X137294965Y-114169198D01*
X137287771Y-114099700D01*
X137319294Y-114037345D01*
X137338590Y-114020625D01*
X137495346Y-113910863D01*
X137524149Y-113890695D01*
X137691243Y-113723601D01*
X137826783Y-113530030D01*
X137926651Y-113315863D01*
X137987811Y-113087608D01*
X138008407Y-112852200D01*
X137987811Y-112616792D01*
X137926651Y-112388537D01*
X137826783Y-112174371D01*
X137715515Y-112015462D01*
X137691242Y-111980797D01*
X137524150Y-111813706D01*
X137524144Y-111813701D01*
X137338590Y-111683775D01*
X137294965Y-111629198D01*
X137287771Y-111559700D01*
X137319294Y-111497345D01*
X137338590Y-111480625D01*
X137420998Y-111422922D01*
X137524149Y-111350695D01*
X137691243Y-111183601D01*
X137826783Y-110990030D01*
X137926651Y-110775863D01*
X137987811Y-110547608D01*
X138008407Y-110312200D01*
X137987811Y-110076792D01*
X137926651Y-109848537D01*
X137826783Y-109634371D01*
X137785845Y-109575904D01*
X137691242Y-109440797D01*
X137524150Y-109273706D01*
X137524144Y-109273701D01*
X137338590Y-109143775D01*
X137294965Y-109089198D01*
X137287771Y-109019700D01*
X137319294Y-108957345D01*
X137338590Y-108940625D01*
X137426615Y-108878989D01*
X137524149Y-108810695D01*
X137691243Y-108643601D01*
X137826783Y-108450030D01*
X137926651Y-108235863D01*
X137987811Y-108007608D01*
X138008407Y-107772200D01*
X138008407Y-107772196D01*
X140617583Y-107772196D01*
X140617583Y-107772203D01*
X140637778Y-107951449D01*
X140637779Y-107951454D01*
X140697359Y-108121723D01*
X140769079Y-108235864D01*
X140793332Y-108274462D01*
X140920886Y-108402016D01*
X141073626Y-108497989D01*
X141239078Y-108555883D01*
X141243893Y-108557568D01*
X141243898Y-108557569D01*
X141423144Y-108577765D01*
X141423148Y-108577765D01*
X141423152Y-108577765D01*
X141602397Y-108557569D01*
X141602400Y-108557568D01*
X141602403Y-108557568D01*
X141772670Y-108497989D01*
X141925410Y-108402016D01*
X142052964Y-108274462D01*
X142148937Y-108121722D01*
X142208516Y-107951455D01*
X142208517Y-107951449D01*
X142228713Y-107772203D01*
X142228713Y-107772196D01*
X142208517Y-107592950D01*
X142208516Y-107592945D01*
X142186164Y-107529068D01*
X142148937Y-107422678D01*
X142052964Y-107269938D01*
X141925410Y-107142384D01*
X141848995Y-107094369D01*
X141772671Y-107046411D01*
X141602402Y-106986831D01*
X141602397Y-106986830D01*
X141423152Y-106966635D01*
X141423144Y-106966635D01*
X141243898Y-106986830D01*
X141243893Y-106986831D01*
X141073624Y-107046411D01*
X140920885Y-107142384D01*
X140793332Y-107269937D01*
X140697359Y-107422676D01*
X140637779Y-107592945D01*
X140637778Y-107592950D01*
X140617583Y-107772196D01*
X138008407Y-107772196D01*
X137987811Y-107536792D01*
X137930454Y-107322729D01*
X137926653Y-107308544D01*
X137926652Y-107308543D01*
X137926651Y-107308537D01*
X137826783Y-107094371D01*
X137793202Y-107046411D01*
X137691242Y-106900797D01*
X137524150Y-106733706D01*
X137524144Y-106733701D01*
X137338590Y-106603775D01*
X137294965Y-106549198D01*
X137287771Y-106479700D01*
X137319294Y-106417345D01*
X137338590Y-106400625D01*
X137408242Y-106351854D01*
X137524149Y-106270695D01*
X137691243Y-106103601D01*
X137826783Y-105910030D01*
X137926651Y-105695863D01*
X137987811Y-105467608D01*
X138008407Y-105232200D01*
X137987811Y-104996792D01*
X137926651Y-104768537D01*
X137826783Y-104554371D01*
X137793202Y-104506411D01*
X137691242Y-104360797D01*
X137524150Y-104193706D01*
X137524144Y-104193701D01*
X137338590Y-104063775D01*
X137294965Y-104009198D01*
X137287771Y-103939700D01*
X137319294Y-103877345D01*
X137338590Y-103860625D01*
X137435338Y-103792881D01*
X137524149Y-103730695D01*
X137637325Y-103617519D01*
X137698648Y-103584034D01*
X137725006Y-103581200D01*
X140511705Y-103581200D01*
X140578744Y-103600885D01*
G37*
%TD.AperFunction*%
%TA.AperFunction,Conductor*%
G36*
X154152279Y-107280259D02*
G01*
X154196627Y-107308760D01*
X154581729Y-107693862D01*
X154615214Y-107755185D01*
X154618048Y-107781543D01*
X154618048Y-117641961D01*
X154598363Y-117709000D01*
X154581729Y-117729642D01*
X151055190Y-121256181D01*
X150993867Y-121289666D01*
X150967509Y-121292500D01*
X150912987Y-121292500D01*
X150845948Y-121272815D01*
X150825306Y-121256181D01*
X150722852Y-121153727D01*
X150722846Y-121153722D01*
X150591348Y-121077802D01*
X150591347Y-121077801D01*
X150591346Y-121077801D01*
X150444672Y-121038500D01*
X148735612Y-121038500D01*
X148668573Y-121018815D01*
X148622818Y-120966011D01*
X148612874Y-120896853D01*
X148628879Y-120851380D01*
X148646492Y-120821598D01*
X148692346Y-120663769D01*
X148695248Y-120626894D01*
X148695248Y-120095506D01*
X148692346Y-120058631D01*
X148677794Y-120008544D01*
X148649925Y-119912620D01*
X148646492Y-119900802D01*
X148562829Y-119759335D01*
X148562827Y-119759333D01*
X148562824Y-119759329D01*
X148446618Y-119643123D01*
X148446610Y-119643117D01*
X148320425Y-119568492D01*
X148305146Y-119559456D01*
X148305145Y-119559455D01*
X148305144Y-119559455D01*
X148305141Y-119559454D01*
X148147321Y-119513602D01*
X148147315Y-119513601D01*
X148110449Y-119510700D01*
X148110442Y-119510700D01*
X147679054Y-119510700D01*
X147679046Y-119510700D01*
X147642180Y-119513601D01*
X147642174Y-119513602D01*
X147484354Y-119559454D01*
X147484351Y-119559455D01*
X147342882Y-119643119D01*
X147336718Y-119647901D01*
X147335012Y-119645702D01*
X147285315Y-119672821D01*
X147283184Y-119673264D01*
X147226491Y-119684541D01*
X147226483Y-119684543D01*
X147098424Y-119737586D01*
X146983164Y-119814600D01*
X146937907Y-119859858D01*
X146885148Y-119912617D01*
X146576928Y-120220837D01*
X146515605Y-120254322D01*
X146445913Y-120249338D01*
X146389980Y-120207466D01*
X146365563Y-120142002D01*
X146365247Y-120133156D01*
X146365247Y-119667862D01*
X146365246Y-119667844D01*
X146355097Y-119568492D01*
X146355096Y-119568489D01*
X146335947Y-119510700D01*
X146301751Y-119407503D01*
X146301747Y-119407497D01*
X146301746Y-119407494D01*
X146212718Y-119263159D01*
X146212715Y-119263155D01*
X146154767Y-119205207D01*
X146121282Y-119143884D01*
X146118448Y-119117526D01*
X146118448Y-119114599D01*
X146137453Y-119048628D01*
X146140537Y-119043722D01*
X146200116Y-118873455D01*
X146207987Y-118803602D01*
X146220712Y-118690660D01*
X146247778Y-118626246D01*
X146305373Y-118586691D01*
X146375210Y-118584553D01*
X146378515Y-118585463D01*
X146472755Y-118612843D01*
X146509058Y-118615700D01*
X146509066Y-118615700D01*
X146918430Y-118615700D01*
X146918438Y-118615700D01*
X146954741Y-118612843D01*
X146954743Y-118612842D01*
X146954745Y-118612842D01*
X146995723Y-118600936D01*
X147110143Y-118567694D01*
X147249435Y-118485317D01*
X147363865Y-118370887D01*
X147446242Y-118231595D01*
X147491391Y-118076193D01*
X147494248Y-118039890D01*
X147494248Y-117570510D01*
X147493061Y-117555428D01*
X147507425Y-117487052D01*
X147556477Y-117437295D01*
X147616679Y-117421700D01*
X152222388Y-117421700D01*
X152232534Y-117421155D01*
X152276426Y-117418803D01*
X152276434Y-117418802D01*
X152276436Y-117418802D01*
X152276437Y-117418802D01*
X152283430Y-117418049D01*
X152302784Y-117415969D01*
X152302794Y-117415967D01*
X152302797Y-117415967D01*
X152312396Y-117414411D01*
X152356196Y-117407314D01*
X152491005Y-117357032D01*
X152552328Y-117323547D01*
X152667509Y-117237323D01*
X153610871Y-116293961D01*
X153647036Y-116253700D01*
X153663670Y-116233058D01*
X153663679Y-116233044D01*
X153663693Y-116233028D01*
X153664689Y-116231723D01*
X153664850Y-116231846D01*
X153675833Y-116218917D01*
X153740865Y-116153887D01*
X153823242Y-116014595D01*
X153868391Y-115859193D01*
X153871248Y-115822890D01*
X153871248Y-115413510D01*
X153868391Y-115377207D01*
X153823242Y-115221805D01*
X153740865Y-115082513D01*
X153740863Y-115082511D01*
X153740860Y-115082507D01*
X153626440Y-114968087D01*
X153626432Y-114968081D01*
X153487141Y-114885705D01*
X153487138Y-114885704D01*
X153331745Y-114840557D01*
X153331739Y-114840556D01*
X153295445Y-114837700D01*
X153295438Y-114837700D01*
X153289748Y-114837700D01*
X153289748Y-110739700D01*
X153295430Y-110739700D01*
X153295438Y-110739700D01*
X153331741Y-110736843D01*
X153331743Y-110736842D01*
X153331745Y-110736842D01*
X153402904Y-110716168D01*
X153487143Y-110691694D01*
X153626435Y-110609317D01*
X153740865Y-110494887D01*
X153823242Y-110355595D01*
X153868391Y-110200193D01*
X153871248Y-110163890D01*
X153871248Y-109754510D01*
X153868391Y-109718207D01*
X153823242Y-109562805D01*
X153740865Y-109423513D01*
X153647149Y-109329797D01*
X153635576Y-109316441D01*
X153610871Y-109283439D01*
X153610869Y-109283437D01*
X153610861Y-109283428D01*
X153429524Y-109102092D01*
X153429509Y-109102077D01*
X153420030Y-109093562D01*
X153389267Y-109065928D01*
X153389255Y-109065918D01*
X153368604Y-109049276D01*
X153324722Y-109017633D01*
X153193848Y-108957863D01*
X153126803Y-108938176D01*
X153079330Y-108931350D01*
X152984386Y-108917700D01*
X152984384Y-108917700D01*
X152483745Y-108917700D01*
X152416706Y-108898015D01*
X152370951Y-108845211D01*
X152361007Y-108776053D01*
X152378208Y-108728601D01*
X152386293Y-108715493D01*
X152386297Y-108715487D01*
X152439184Y-108555885D01*
X152449248Y-108457374D01*
X152449248Y-107849026D01*
X152439184Y-107750515D01*
X152435601Y-107739702D01*
X152433200Y-107669874D01*
X152468931Y-107609832D01*
X152531452Y-107578640D01*
X152553307Y-107576699D01*
X152753916Y-107576699D01*
X152753928Y-107576699D01*
X152789952Y-107573865D01*
X152944141Y-107529069D01*
X152999562Y-107496292D01*
X153067285Y-107479109D01*
X153103638Y-107485983D01*
X153262485Y-107541566D01*
X153262491Y-107541567D01*
X153262493Y-107541568D01*
X153262494Y-107541568D01*
X153262498Y-107541569D01*
X153441744Y-107561765D01*
X153441748Y-107561765D01*
X153441752Y-107561765D01*
X153620997Y-107541569D01*
X153621000Y-107541568D01*
X153621003Y-107541568D01*
X153791270Y-107481989D01*
X153944010Y-107386016D01*
X154021268Y-107308757D01*
X154082587Y-107275275D01*
X154152279Y-107280259D01*
G37*
%TD.AperFunction*%
%TA.AperFunction,Conductor*%
G36*
X152615467Y-114884277D02*
G01*
X152613292Y-114884200D01*
X152615470Y-114884200D01*
X152615467Y-114884277D01*
G37*
%TD.AperFunction*%
%TA.AperFunction,Conductor*%
G36*
X152615479Y-110693200D02*
G01*
X152613299Y-110693200D01*
X152615476Y-110693123D01*
X152615479Y-110693200D01*
G37*
%TD.AperFunction*%
%TD*%
M02*
